<svg class="main-svg" xmlns="http://www.w3.org/2000/svg" xmlns:xlink="http://www.w3.org/1999/xlink" width="800" height="500" style="" viewBox="0 0 800 500"><rect x="0" y="0" width="800" height="500" style="fill: rgb(255, 255, 255); fill-opacity: 1;"/><defs id="defs-151f8d"><g class="clips"><clipPath id="clip151f8dxyplot" class="plotclip"><rect width="721" height="390"/></clipPath><clipPath class="axesclip" id="clip151f8dx"><rect x="59" y="0" width="721" height="500"/></clipPath><clipPath class="axesclip" id="clip151f8dy"><rect x="0" y="60" width="800" height="390"/></clipPath><clipPath class="axesclip" id="clip151f8dxy"><rect x="59" y="60" width="721" height="390"/></clipPath></g><g class="gradients"/><g class="patterns"/></defs><g class="bglayer"/><g class="layer-below"><g class="imagelayer"/><g class="shapelayer"/></g><g class="cartesianlayer"><g class="subplot xy"><g class="layer-subplot"><g class="shapelayer"/><g class="imagelayer"/></g><g class="minor-gridlayer"><g class="x"/><g class="y"/></g><g class="gridlayer"><g class="x"><path class="xgrid crisp" transform="translate(239.25,0)" d="M0,60v390" style="stroke: rgb(232, 232, 232); stroke-opacity: 1; stroke-width: 1px;"/><path class="xgrid crisp" transform="translate(419.5,0)" d="M0,60v390" style="stroke: rgb(232, 232, 232); stroke-opacity: 1; stroke-width: 1px;"/><path class="xgrid crisp" transform="translate(599.75,0)" d="M0,60v390" style="stroke: rgb(232, 232, 232); stroke-opacity: 1; stroke-width: 1px;"/></g><g class="y"><path class="ygrid crisp" transform="translate(0,399.93)" d="M59,0h721" style="stroke: rgb(232, 232, 232); stroke-opacity: 1; stroke-width: 1px;"/><path class="ygrid crisp" transform="translate(0,349.86)" d="M59,0h721" style="stroke: rgb(232, 232, 232); stroke-opacity: 1; stroke-width: 1px;"/><path class="ygrid crisp" transform="translate(0,299.8)" d="M59,0h721" style="stroke: rgb(232, 232, 232); stroke-opacity: 1; stroke-width: 1px;"/><path class="ygrid crisp" transform="translate(0,249.73)" d="M59,0h721" style="stroke: rgb(232, 232, 232); stroke-opacity: 1; stroke-width: 1px;"/><path class="ygrid crisp" transform="translate(0,199.66)" d="M59,0h721" style="stroke: rgb(232, 232, 232); stroke-opacity: 1; stroke-width: 1px;"/><path class="ygrid crisp" transform="translate(0,149.59)" d="M59,0h721" style="stroke: rgb(232, 232, 232); stroke-opacity: 1; stroke-width: 1px;"/><path class="ygrid crisp" transform="translate(0,99.53)" d="M59,0h721" style="stroke: rgb(232, 232, 232); stroke-opacity: 1; stroke-width: 1px;"/></g></g><g class="zerolinelayer"/><path class="xlines-below"/><path class="ylines-below"/><g class="overlines-below"/><g class="xaxislayer-below"/><g class="yaxislayer-below"/><g class="overaxes-below"/><g class="plot" transform="translate(59,60)" clip-path="url(#clip151f8dxyplot)"><g class="barlayer mlayer"><g class="trace bars" style="opacity: 1;"><g class="points"><g class="point"><path d="M0,390V384.99H18.02V390Z" style="vector-effect: none; opacity: 1; stroke-width: 0.6px; fill: rgb(31, 119, 180); fill-opacity: 1; stroke: rgb(255, 255, 255); stroke-opacity: 1;"/></g><g class="point"><path d="M18.02,390V384.99H36.05V390Z" style="vector-effect: none; opacity: 1; stroke-width: 0.6px; fill: rgb(31, 119, 180); fill-opacity: 1; stroke: rgb(255, 255, 255); stroke-opacity: 1;"/></g><g class="point"><path d="M0,0Z" style="vector-effect: none; opacity: 1; stroke-width: 0px; fill: rgb(31, 119, 180); fill-opacity: 1; stroke: rgb(255, 255, 255); stroke-opacity: 1;"/></g><g class="point"><path d="M54.08,390V369.97H72.1V390Z" style="vector-effect: none; opacity: 1; stroke-width: 0.6px; fill: rgb(31, 119, 180); fill-opacity: 1; stroke: rgb(255, 255, 255); stroke-opacity: 1;"/></g><g class="point"><path d="M0,0Z" style="vector-effect: none; opacity: 1; stroke-width: 0px; fill: rgb(31, 119, 180); fill-opacity: 1; stroke: rgb(255, 255, 255); stroke-opacity: 1;"/></g><g class="point"><path d="M90.13,390V359.96H108.15V390Z" style="vector-effect: none; opacity: 1; stroke-width: 0.6px; fill: rgb(31, 119, 180); fill-opacity: 1; stroke: rgb(255, 255, 255); stroke-opacity: 1;"/></g><g class="point"><path d="M108.15,390V379.99H126.17V390Z" style="vector-effect: none; opacity: 1; stroke-width: 0.6px; fill: rgb(31, 119, 180); fill-opacity: 1; stroke: rgb(255, 255, 255); stroke-opacity: 1;"/></g><g class="point"><path d="M126.17,390V329.92H144.2V390Z" style="vector-effect: none; opacity: 1; stroke-width: 0.6px; fill: rgb(31, 119, 180); fill-opacity: 1; stroke: rgb(255, 255, 255); stroke-opacity: 1;"/></g><g class="point"><path d="M144.2,390V329.92H162.23V390Z" style="vector-effect: none; opacity: 1; stroke-width: 0.6px; fill: rgb(31, 119, 180); fill-opacity: 1; stroke: rgb(255, 255, 255); stroke-opacity: 1;"/></g><g class="point"><path d="M162.23,390V279.85H180.25V390Z" style="vector-effect: none; opacity: 1; stroke-width: 0.6px; fill: rgb(31, 119, 180); fill-opacity: 1; stroke: rgb(255, 255, 255); stroke-opacity: 1;"/></g><g class="point"><path d="M180.25,390V279.85H198.27V390Z" style="vector-effect: none; opacity: 1; stroke-width: 0.6px; fill: rgb(31, 119, 180); fill-opacity: 1; stroke: rgb(255, 255, 255); stroke-opacity: 1;"/></g><g class="point"><path d="M198.27,390V299.88H216.3V390Z" style="vector-effect: none; opacity: 1; stroke-width: 0.6px; fill: rgb(31, 119, 180); fill-opacity: 1; stroke: rgb(255, 255, 255); stroke-opacity: 1;"/></g><g class="point"><path d="M216.3,390V254.82H234.33V390Z" style="vector-effect: none; opacity: 1; stroke-width: 0.6px; fill: rgb(31, 119, 180); fill-opacity: 1; stroke: rgb(255, 255, 255); stroke-opacity: 1;"/></g><g class="point"><path d="M234.33,390V224.78H252.35V390Z" style="vector-effect: none; opacity: 1; stroke-width: 0.6px; fill: rgb(31, 119, 180); fill-opacity: 1; stroke: rgb(255, 255, 255); stroke-opacity: 1;"/></g><g class="point"><path d="M252.35,390V239.8H270.38V390Z" style="vector-effect: none; opacity: 1; stroke-width: 0.6px; fill: rgb(31, 119, 180); fill-opacity: 1; stroke: rgb(255, 255, 255); stroke-opacity: 1;"/></g><g class="point"><path d="M270.38,390V194.74H288.4V390Z" style="vector-effect: none; opacity: 1; stroke-width: 0.6px; fill: rgb(31, 119, 180); fill-opacity: 1; stroke: rgb(255, 255, 255); stroke-opacity: 1;"/></g><g class="point"><path d="M288.4,390V129.65H306.42V390Z" style="vector-effect: none; opacity: 1; stroke-width: 0.6px; fill: rgb(31, 119, 180); fill-opacity: 1; stroke: rgb(255, 255, 255); stroke-opacity: 1;"/></g><g class="point"><path d="M306.42,390V19.5H324.45V390Z" style="vector-effect: none; opacity: 1; stroke-width: 0.6px; fill: rgb(31, 119, 180); fill-opacity: 1; stroke: rgb(255, 255, 255); stroke-opacity: 1;"/></g><g class="point"><path d="M324.45,390V104.61H342.48V390Z" style="vector-effect: none; opacity: 1; stroke-width: 0.6px; fill: rgb(31, 119, 180); fill-opacity: 1; stroke: rgb(255, 255, 255); stroke-opacity: 1;"/></g><g class="point"><path d="M342.48,390V69.57H360.5V390Z" style="vector-effect: none; opacity: 1; stroke-width: 0.6px; fill: rgb(31, 119, 180); fill-opacity: 1; stroke: rgb(255, 255, 255); stroke-opacity: 1;"/></g><g class="point"><path d="M360.5,390V24.51H378.53V390Z" style="vector-effect: none; opacity: 1; stroke-width: 0.6px; fill: rgb(31, 119, 180); fill-opacity: 1; stroke: rgb(255, 255, 255); stroke-opacity: 1;"/></g><g class="point"><path d="M378.53,390V54.55H396.55V390Z" style="vector-effect: none; opacity: 1; stroke-width: 0.6px; fill: rgb(31, 119, 180); fill-opacity: 1; stroke: rgb(255, 255, 255); stroke-opacity: 1;"/></g><g class="point"><path d="M396.55,390V74.57H414.58V390Z" style="vector-effect: none; opacity: 1; stroke-width: 0.6px; fill: rgb(31, 119, 180); fill-opacity: 1; stroke: rgb(255, 255, 255); stroke-opacity: 1;"/></g><g class="point"><path d="M414.58,390V114.63H432.6V390Z" style="vector-effect: none; opacity: 1; stroke-width: 0.6px; fill: rgb(31, 119, 180); fill-opacity: 1; stroke: rgb(255, 255, 255); stroke-opacity: 1;"/></g><g class="point"><path d="M432.6,390V149.68H450.62V390Z" style="vector-effect: none; opacity: 1; stroke-width: 0.6px; fill: rgb(31, 119, 180); fill-opacity: 1; stroke: rgb(255, 255, 255); stroke-opacity: 1;"/></g><g class="point"><path d="M450.62,390V174.71H468.65V390Z" style="vector-effect: none; opacity: 1; stroke-width: 0.6px; fill: rgb(31, 119, 180); fill-opacity: 1; stroke: rgb(255, 255, 255); stroke-opacity: 1;"/></g><g class="point"><path d="M468.65,390V154.68H486.67V390Z" style="vector-effect: none; opacity: 1; stroke-width: 0.6px; fill: rgb(31, 119, 180); fill-opacity: 1; stroke: rgb(255, 255, 255); stroke-opacity: 1;"/></g><g class="point"><path d="M486.67,390V259.82H504.7V390Z" style="vector-effect: none; opacity: 1; stroke-width: 0.6px; fill: rgb(31, 119, 180); fill-opacity: 1; stroke: rgb(255, 255, 255); stroke-opacity: 1;"/></g><g class="point"><path d="M504.7,390V249.81H522.72V390Z" style="vector-effect: none; opacity: 1; stroke-width: 0.6px; fill: rgb(31, 119, 180); fill-opacity: 1; stroke: rgb(255, 255, 255); stroke-opacity: 1;"/></g><g class="point"><path d="M522.72,390V299.88H540.75V390Z" style="vector-effect: none; opacity: 1; stroke-width: 0.6px; fill: rgb(31, 119, 180); fill-opacity: 1; stroke: rgb(255, 255, 255); stroke-opacity: 1;"/></g><g class="point"><path d="M540.75,390V294.87H558.78V390Z" style="vector-effect: none; opacity: 1; stroke-width: 0.6px; fill: rgb(31, 119, 180); fill-opacity: 1; stroke: rgb(255, 255, 255); stroke-opacity: 1;"/></g><g class="point"><path d="M558.78,390V369.97H576.8V390Z" style="vector-effect: none; opacity: 1; stroke-width: 0.6px; fill: rgb(31, 119, 180); fill-opacity: 1; stroke: rgb(255, 255, 255); stroke-opacity: 1;"/></g><g class="point"><path d="M576.8,390V349.95H594.82V390Z" style="vector-effect: none; opacity: 1; stroke-width: 0.6px; fill: rgb(31, 119, 180); fill-opacity: 1; stroke: rgb(255, 255, 255); stroke-opacity: 1;"/></g><g class="point"><path d="M594.82,390V339.93H612.85V390Z" style="vector-effect: none; opacity: 1; stroke-width: 0.6px; fill: rgb(31, 119, 180); fill-opacity: 1; stroke: rgb(255, 255, 255); stroke-opacity: 1;"/></g><g class="point"><path d="M612.85,390V369.97H630.88V390Z" style="vector-effect: none; opacity: 1; stroke-width: 0.6px; fill: rgb(31, 119, 180); fill-opacity: 1; stroke: rgb(255, 255, 255); stroke-opacity: 1;"/></g><g class="point"><path d="M630.88,390V364.97H648.9V390Z" style="vector-effect: none; opacity: 1; stroke-width: 0.6px; fill: rgb(31, 119, 180); fill-opacity: 1; stroke: rgb(255, 255, 255); stroke-opacity: 1;"/></g><g class="point"><path d="M648.9,390V379.99H666.93V390Z" style="vector-effect: none; opacity: 1; stroke-width: 0.6px; fill: rgb(31, 119, 180); fill-opacity: 1; stroke: rgb(255, 255, 255); stroke-opacity: 1;"/></g><g class="point"><path d="M666.93,390V379.99H684.95V390Z" style="vector-effect: none; opacity: 1; stroke-width: 0.6px; fill: rgb(31, 119, 180); fill-opacity: 1; stroke: rgb(255, 255, 255); stroke-opacity: 1;"/></g><g class="point"><path d="M684.95,390V384.99H702.97V390Z" style="vector-effect: none; opacity: 1; stroke-width: 0.6px; fill: rgb(31, 119, 180); fill-opacity: 1; stroke: rgb(255, 255, 255); stroke-opacity: 1;"/></g><g class="point"><path d="M702.97,390V384.99H721V390Z" style="vector-effect: none; opacity: 1; stroke-width: 0.6px; fill: rgb(31, 119, 180); fill-opacity: 1; stroke: rgb(255, 255, 255); stroke-opacity: 1;"/></g></g></g></g><g class="scatterlayer mlayer"><g class="trace scatter trace408794" style="stroke-miterlimit: 2; opacity: 1;"><g class="fills"/><g class="errorbars"/><g class="lines"><path class="js-line" d="M104.59,368.48L120.35,360.42L125.6,357.26L141.36,346.18L146.61,341.92L162.37,327.33L167.62,321.84L183.38,303.47L188.64,296.73L204.39,274.7L209.65,266.8L230.66,232.92L235.91,224L288.44,134.63L293.7,126.61L309.45,104.82L314.71,98.45L325.21,87.29L330.47,82.57L340.97,75.01L346.23,72.22L356.73,68.69L361.98,67.98L372.49,68.69L377.74,70.11L388.25,75.01L393.5,78.47L404.01,87.29L409.26,92.59L419.77,104.82L425.02,111.66L440.78,134.63L446.03,142.95L467.04,178.34L472.3,187.49L503.82,241.68L509.07,250.27L524.83,274.7L530.08,282.33L545.84,303.47L551.09,309.91L566.85,327.33L572.1,332.5L587.86,346.18L593.12,350.15L608.88,360.42L614.13,363.34L624.63,368.48" style="vector-effect: none; fill: none; stroke: rgb(255, 127, 14); stroke-opacity: 1; stroke-width: 2px; opacity: 1;"/></g><g class="points"/><g class="text"/></g></g></g><g class="overplot"/><path class="xlines-above crisp" d="M58,450.5H781M58,59.5H781" style="fill: none; stroke-width: 1px; stroke: rgb(36, 36, 36); stroke-opacity: 1;"/><path class="ylines-above crisp" d="M58.5,60V450M780.5,60V450" style="fill: none; stroke-width: 1px; stroke: rgb(36, 36, 36); stroke-opacity: 1;"/><g class="overlines-above"/><g class="xaxislayer-above"><path class="xtick ticks crisp" d="M0,451v5" transform="translate(59,0)" style="stroke: rgb(68, 68, 68); stroke-opacity: 1; stroke-width: 1px;"/><path class="xtick ticks crisp" d="M0,451v5" transform="translate(239.25,0)" style="stroke: rgb(68, 68, 68); stroke-opacity: 1; stroke-width: 1px;"/><path class="xtick ticks crisp" d="M0,451v5" transform="translate(419.5,0)" style="stroke: rgb(68, 68, 68); stroke-opacity: 1; stroke-width: 1px;"/><path class="xtick ticks crisp" d="M0,451v5" transform="translate(599.75,0)" style="stroke: rgb(68, 68, 68); stroke-opacity: 1; stroke-width: 1px;"/><path class="xtick ticks crisp" d="M0,451v5" transform="translate(780,0)" style="stroke: rgb(68, 68, 68); stroke-opacity: 1; stroke-width: 1px;"/><g class="xtick"><text text-anchor="middle" x="0" y="470.4" transform="translate(59,0)" style="font-family: arial; font-size: 12px; fill: rgb(0, 0, 0); fill-opacity: 1; white-space: pre; opacity: 1;">0</text></g><g class="xtick"><text text-anchor="middle" x="0" y="470.4" style="font-family: arial; font-size: 12px; fill: rgb(0, 0, 0); fill-opacity: 1; white-space: pre; opacity: 1;" transform="translate(239.25,0)">5</text></g><g class="xtick"><text text-anchor="middle" x="0" y="470.4" style="font-family: arial; font-size: 12px; fill: rgb(0, 0, 0); fill-opacity: 1; white-space: pre; opacity: 1;" transform="translate(419.5,0)">10</text></g><g class="xtick"><text text-anchor="middle" x="0" y="470.4" style="font-family: arial; font-size: 12px; fill: rgb(0, 0, 0); fill-opacity: 1; white-space: pre; opacity: 1;" transform="translate(599.75,0)">15</text></g><g class="xtick"><text text-anchor="middle" x="0" y="470.4" style="font-family: arial; font-size: 12px; fill: rgb(0, 0, 0); fill-opacity: 1; white-space: pre; opacity: 1;" transform="translate(780,0)">20</text></g></g><g class="yaxislayer-above"><path class="ytick ticks crisp" d="M58,0h-5" transform="translate(0,450)" style="stroke: rgb(68, 68, 68); stroke-opacity: 1; stroke-width: 1px;"/><path class="ytick ticks crisp" d="M58,0h-5" transform="translate(0,399.93)" style="stroke: rgb(68, 68, 68); stroke-opacity: 1; stroke-width: 1px;"/><path class="ytick ticks crisp" d="M58,0h-5" transform="translate(0,349.86)" style="stroke: rgb(68, 68, 68); stroke-opacity: 1; stroke-width: 1px;"/><path class="ytick ticks crisp" d="M58,0h-5" transform="translate(0,299.8)" style="stroke: rgb(68, 68, 68); stroke-opacity: 1; stroke-width: 1px;"/><path class="ytick ticks crisp" d="M58,0h-5" transform="translate(0,249.73)" style="stroke: rgb(68, 68, 68); stroke-opacity: 1; stroke-width: 1px;"/><path class="ytick ticks crisp" d="M58,0h-5" transform="translate(0,199.66)" style="stroke: rgb(68, 68, 68); stroke-opacity: 1; stroke-width: 1px;"/><path class="ytick ticks crisp" d="M58,0h-5" transform="translate(0,149.59)" style="stroke: rgb(68, 68, 68); stroke-opacity: 1; stroke-width: 1px;"/><path class="ytick ticks crisp" d="M58,0h-5" transform="translate(0,99.53)" style="stroke: rgb(68, 68, 68); stroke-opacity: 1; stroke-width: 1px;"/><g class="ytick"><text text-anchor="end" x="50.6" y="4.199999999999999" transform="translate(0,450)" style="font-family: arial; font-size: 12px; fill: rgb(0, 0, 0); fill-opacity: 1; white-space: pre; opacity: 1;">0</text></g><g class="ytick"><text text-anchor="end" x="50.6" y="4.199999999999999" style="font-family: arial; font-size: 12px; fill: rgb(0, 0, 0); fill-opacity: 1; white-space: pre; opacity: 1;" transform="translate(0,399.93)">0.02</text></g><g class="ytick"><text text-anchor="end" x="50.6" y="4.199999999999999" style="font-family: arial; font-size: 12px; fill: rgb(0, 0, 0); fill-opacity: 1; white-space: pre; opacity: 1;" transform="translate(0,349.86)">0.04</text></g><g class="ytick"><text text-anchor="end" x="50.6" y="4.199999999999999" style="font-family: arial; font-size: 12px; fill: rgb(0, 0, 0); fill-opacity: 1; white-space: pre; opacity: 1;" transform="translate(0,299.8)">0.06</text></g><g class="ytick"><text text-anchor="end" x="50.6" y="4.199999999999999" style="font-family: arial; font-size: 12px; fill: rgb(0, 0, 0); fill-opacity: 1; white-space: pre; opacity: 1;" transform="translate(0,249.73)">0.08</text></g><g class="ytick"><text text-anchor="end" x="50.6" y="4.199999999999999" style="font-family: arial; font-size: 12px; fill: rgb(0, 0, 0); fill-opacity: 1; white-space: pre; opacity: 1;" transform="translate(0,199.66)">0.1</text></g><g class="ytick"><text text-anchor="end" x="50.6" y="4.199999999999999" style="font-family: arial; font-size: 12px; fill: rgb(0, 0, 0); fill-opacity: 1; white-space: pre; opacity: 1;" transform="translate(0,149.59)">0.12</text></g><g class="ytick"><text text-anchor="end" x="50.6" y="4.199999999999999" style="font-family: arial; font-size: 12px; fill: rgb(0, 0, 0); fill-opacity: 1; white-space: pre; opacity: 1;" transform="translate(0,99.53)">0.14</text></g></g><g class="overaxes-above"/></g></g><g class="polarlayer"/><g class="smithlayer"/><g class="ternarylayer"/><g class="geolayer"/><g class="funnelarealayer"/><g class="pielayer"/><g class="iciclelayer"/><g class="treemaplayer"/><g class="sunburstlayer"/><g class="glimages"/><defs id="topdefs-151f8d"><g class="clips"/></defs><g class="layer-above"><g class="imagelayer"/><g class="shapelayer"/></g><g class="infolayer"><g class="g-gtitle"/><g class="g-xtitle"><text class="xtitle" x="419.5" y="487.70625" text-anchor="middle" style="font-family: arial; font-size: 14px; fill: rgb(0, 0, 0); opacity: 1; font-weight: normal; white-space: pre;">x</text></g><g class="g-ytitle" transform="translate(0.0654296875,0)"><text class="ytitle" transform="rotate(-90,12.934375000000003,255)" x="12.934375000000003" y="255" text-anchor="middle" style="font-family: arial; font-size: 14px; fill: rgb(0, 0, 0); opacity: 1; font-weight: normal; white-space: pre;">probability density</text></g></g></svg>