<svg class="main-svg" xmlns="http://www.w3.org/2000/svg" xmlns:xlink="http://www.w3.org/1999/xlink" width="450" height="350" style="" viewBox="0 0 450 350"><rect x="0" y="0" width="450" height="350" style="fill: rgb(255, 255, 255); fill-opacity: 1;"/><defs id="defs-a06a26"><g class="clips"><clipPath id="clipa06a26xyplot" class="plotclip"><rect width="321" height="302"/></clipPath><clipPath class="axesclip" id="clipa06a26x"><rect x="40" y="0" width="321" height="350"/></clipPath><clipPath class="axesclip" id="clipa06a26y"><rect x="0" y="10" width="450" height="302"/></clipPath><clipPath class="axesclip" id="clipa06a26xy"><rect x="40" y="10" width="321" height="302"/></clipPath><clipPath class="contourlineclip" id="clipline43e4b9"><path d="M0,0L321,0L321,302L0,302ZM271.84419436192,47.80682923684553L267.7617362317219,56.93554960802459L286.94631263677786,65.51509052226905L291.028770766976,56.38637015108999ZM244.0913171475114,7.732613716271578L234.5105981349352,10.597892621031265L242.4438391024886,37.12450838710163L252.0245581150648,34.25922948234194ZM295.36746084573997,79.59373203542206L293.5263704905419,89.42279029672038L314.18275074280166,93.29195674631622L316.0238410979997,83.4628984850179ZM218.6977938931488,11.372059863648007L209.24768260061717,14.64244157818325L218.30255197273664,40.807437219380155L227.75266326526827,37.53705550484491ZM25.371951540407558,235.07496556954376L21.04128307925935,244.08858363775678L39.98396480073827,253.18975407563855L44.31463326188648,244.17613600742553ZM292.20739364094925,106.27067333427162L290.0319739015516,116.0311830011609L310.54429499837363,120.60296354723879L312.71971473777126,110.84245388034951ZM76.3712447272784,261.4774643918968L67.28731891147524,265.65864745091073L78.86396950612004,290.8097670534157L87.9478953219232,286.62858399440177ZM185.84644245911932,16.11764448713129L176.5634611526778,19.836012148384963L186.85869161477393,45.53826664059494L196.14167292121545,41.819898979341275ZM12.309918578684826,202.5450481581669L9.346108974417866,212.095746176095L29.4174977777198,218.32437729756228L32.38130738198676,208.7736792796342ZM287.5026412680626,142.3075394363957L284.99939941504783,151.9891601801201L305.3459305092812,157.2498793868465L307.8491723622959,147.56825864312208ZM110.43517207970392,254.5853204833333L101.81274649616854,259.6502762636333L115.83634281287421,283.52361709804694L124.45876839640958,278.45866131774693ZM138.6542166497486,21.958993796976515L129.48994923483468,25.961018627977282L140.57055548566808,51.334584033020235L149.734822900582,47.33255920201947ZM11.674546349010487,151.12813596244857L9.432083718980504,160.87346106492302L19.84739992225009,163.27009300076756L22.089862552280074,153.5247678982931ZM300.0984635304088,206.0062928990772L298.5896094040975,215.89180549203428L309.1547509878203,217.50439333952954L310.66360511413166,207.61888074657247Z"/></clipPath></g><g class="gradients"/><g class="patterns"/></defs><g class="bglayer"/><g class="layer-below"><g class="imagelayer"/><g class="shapelayer"/></g><g class="cartesianlayer"><g class="subplot xy"><g class="layer-subplot"><g class="shapelayer"/><g class="imagelayer"/></g><g class="minor-gridlayer"><g class="x"/><g class="y"/></g><g class="gridlayer"><g class="x"><path class="xgrid crisp" transform="translate(69.18,0)" d="M0,10v302" style="stroke: rgb(232, 232, 232); stroke-opacity: 1; stroke-width: 1px;"/><path class="xgrid crisp" transform="translate(98.36,0)" d="M0,10v302" style="stroke: rgb(232, 232, 232); stroke-opacity: 1; stroke-width: 1px;"/><path class="xgrid crisp" transform="translate(127.55,0)" d="M0,10v302" style="stroke: rgb(232, 232, 232); stroke-opacity: 1; stroke-width: 1px;"/><path class="xgrid crisp" transform="translate(156.73000000000002,0)" d="M0,10v302" style="stroke: rgb(232, 232, 232); stroke-opacity: 1; stroke-width: 1px;"/><path class="xgrid crisp" transform="translate(185.91,0)" d="M0,10v302" style="stroke: rgb(232, 232, 232); stroke-opacity: 1; stroke-width: 1px;"/><path class="xgrid crisp" transform="translate(215.09,0)" d="M0,10v302" style="stroke: rgb(232, 232, 232); stroke-opacity: 1; stroke-width: 1px;"/><path class="xgrid crisp" transform="translate(244.27,0)" d="M0,10v302" style="stroke: rgb(232, 232, 232); stroke-opacity: 1; stroke-width: 1px;"/><path class="xgrid crisp" transform="translate(273.45,0)" d="M0,10v302" style="stroke: rgb(232, 232, 232); stroke-opacity: 1; stroke-width: 1px;"/><path class="xgrid crisp" transform="translate(302.64,0)" d="M0,10v302" style="stroke: rgb(232, 232, 232); stroke-opacity: 1; stroke-width: 1px;"/><path class="xgrid crisp" transform="translate(331.82,0)" d="M0,10v302" style="stroke: rgb(232, 232, 232); stroke-opacity: 1; stroke-width: 1px;"/></g><g class="y"><path class="ygrid crisp" transform="translate(0,278.44)" d="M40,0h321" style="stroke: rgb(232, 232, 232); stroke-opacity: 1; stroke-width: 1px;"/><path class="ygrid crisp" transform="translate(0,244.89)" d="M40,0h321" style="stroke: rgb(232, 232, 232); stroke-opacity: 1; stroke-width: 1px;"/><path class="ygrid crisp" transform="translate(0,211.33)" d="M40,0h321" style="stroke: rgb(232, 232, 232); stroke-opacity: 1; stroke-width: 1px;"/><path class="ygrid crisp" transform="translate(0,177.78)" d="M40,0h321" style="stroke: rgb(232, 232, 232); stroke-opacity: 1; stroke-width: 1px;"/><path class="ygrid crisp" transform="translate(0,144.22)" d="M40,0h321" style="stroke: rgb(232, 232, 232); stroke-opacity: 1; stroke-width: 1px;"/><path class="ygrid crisp" transform="translate(0,110.67)" d="M40,0h321" style="stroke: rgb(232, 232, 232); stroke-opacity: 1; stroke-width: 1px;"/><path class="ygrid crisp" transform="translate(0,77.11)" d="M40,0h321" style="stroke: rgb(232, 232, 232); stroke-opacity: 1; stroke-width: 1px;"/><path class="ygrid crisp" transform="translate(0,43.56)" d="M40,0h321" style="stroke: rgb(232, 232, 232); stroke-opacity: 1; stroke-width: 1px;"/></g></g><g class="zerolinelayer"/><path class="xlines-below"/><path class="ylines-below"/><g class="overlines-below"/><g class="xaxislayer-below"/><g class="yaxislayer-below"/><g class="overaxes-below"/><g class="plot" transform="translate(40,10)" clip-path="url(#clipa06a26xyplot)"><g class="contourlayer mlayer"><g class="contour" style="opacity: 1;"><g class="heatmapcoloring"/><g class="contourbg"><path d="M0,0L321,0L321,302L0,302Z" style="stroke: none; fill: rgb(68, 1, 84);"/></g><g class="contourfill"><path d="M0,0L321,0L321,302L0,302Z" style="stroke: none; fill: rgb(70, 18, 99);"/><path d="M0,0L321,0L321,302L0,302Z" style="stroke: none; fill: rgb(71, 34, 115);"/><path d="M0,0L321,0L321,302L0,302Z" style="stroke: none; fill: rgb(69, 49, 125);"/><path d="M316.85,0L321,3.9L321,302L0,302L0,0Z" style="stroke: none; fill: rgb(65, 64, 132);"/><path d="M311.32,0Q311.08,4.65 311.8,6.16C312.35,7.32 313.25,8.14 314.45,8.66Q316.06,9.36 321,9.1L321,302L0,302L0,0Z" style="stroke: none; fill: rgb(60, 77, 138);"/><path d="M305.45,0Q305.68,4.11 305.91,6.16C306.14,8.22 306.23,11.2 306.83,12.33C307.12,12.88 307.33,13.06 307.9,13.33C309.11,13.9 312.26,13.98 314.45,14.2Q316.63,14.42 321,14.63L321,302L0,302L0,0Z" style="stroke: none; fill: rgb(55, 91, 140);"/><path d="M299.19,0Q299.42,4.11 299.64,6.16C299.87,8.22 300.21,10.55 300.54,12.33C300.79,13.7 300.76,14.92 301.35,15.95C301.94,16.98 302.98,17.94 304.05,18.49C305.15,19.06 306.44,19.01 307.9,19.25C309.79,19.56 312.26,19.89 314.45,20.1Q316.63,20.31 321,20.52L321,302L0,302L0,0Z" style="stroke: none; fill: rgb(49, 104, 142);"/><path d="M1.65,302L0,300.45L0,0L292.49,0Q292.71,4.11 292.93,6.16C293.15,8.22 293.49,10.45 293.83,12.33C294.12,13.93 294.56,15.6 294.8,16.74C294.95,17.46 294.78,17.81 295.16,18.49C295.99,19.97 299.8,23.53 301.35,24.31C302.08,24.68 302.44,24.51 303.2,24.65C304.41,24.88 306.2,25.3 307.9,25.57C309.9,25.89 312.26,26.19 314.45,26.4Q316.63,26.61 321,26.82L321,302Z" style="stroke: none; fill: rgb(44, 115, 142);"/><path d="M6.59,302L0,295.8L0,0L285.32,0Q285.53,4.11 285.75,6.16C285.97,8.22 286.25,10.24 286.63,12.33C287.03,14.51 287.57,16.85 288.105,18.965C288.6,20.94 288.68,22.96 289.7,24.65C290.82,26.49 292.88,28.4 294.8,29.45C296.62,30.44 298.75,30.48 300.845,30.95C303.1,31.45 305.59,31.97 307.9,32.34C310.12,32.7 312.26,32.96 314.45,33.17Q316.63,33.37 321,33.57L321,302Z" style="stroke: none; fill: rgb(40, 126, 142);"/><path d="M12.09,302Q12.32,297.61 11.44,295.84C10.53,294 8.47,292.11 6.55,291.24Q4.65,290.38 0,290.63L0,0L277.6,0Q277.81,4.11 278.02,6.16C278.24,8.22 278.53,10.28 278.89,12.33C279.26,14.39 279.72,16.54 280.21,18.49C280.66,20.28 281.38,22.53 281.69,23.59C281.83,24.08 281.83,24.15 281.99,24.65C282.37,25.86 283.05,29.11 284.16,30.82C285.19,32.4 286.59,33.7 288.24,34.66C290.07,35.73 293.51,36.34 294.8,36.7C295.33,36.85 295.41,36.85 295.93,36.98C297.06,37.27 299.45,37.96 301.35,38.38C303.42,38.84 305.71,39.28 307.9,39.62C310.08,39.96 312.26,40.23 314.45,40.43Q316.63,40.63 321,40.83L321,302Z" style="stroke: none; fill: rgb(36, 138, 141);"/><path d="M18.06,302Q17.74,297.89 17.43,295.84C17.11,293.78 17.04,291.24 16.16,289.67C15.44,288.39 14.44,287.47 13.1,286.8C11.42,285.95 8.74,285.9 6.55,285.6Q4.37,285.3 0,285.01L0,0L269.28,0Q269.48,4.11 269.69,6.16C269.9,8.22 270.18,10.28 270.54,12.33C270.9,14.39 271.33,16.45 271.84,18.49C272.35,20.55 273.01,22.81 273.61,24.65C274.11,26.19 274.73,27.68 275.14,28.82C275.42,29.61 275.51,29.98 275.84,30.82C276.42,32.32 277.38,35.38 278.5,36.98C279.41,38.27 280.33,39.13 281.69,39.98C283.41,41.05 286.65,41.93 288.24,42.48C289.13,42.79 289.53,42.87 290.36,43.14C291.57,43.52 293.17,44.11 294.8,44.58C296.76,45.15 299.16,45.77 301.35,46.25C303.53,46.73 305.71,47.13 307.9,47.47C310.08,47.81 312.26,48.07 314.45,48.27Q316.63,48.47 321,48.66L321,302Z" style="stroke: none; fill: rgb(33, 150, 138);"/><path d="M24.57,302Q24.27,297.89 23.97,295.84C23.66,293.78 23.26,291.71 22.74,289.67C22.22,287.6 21.59,284.69 20.85,283.51C20.48,282.91 20.27,282.74 19.65,282.39C18.38,281.68 15.29,281.09 13.1,280.6C10.93,280.11 8.74,279.74 6.55,279.45Q4.37,279.16 0,278.88L0,0L260.18,0Q260.39,4.11 260.61,6.16C260.83,8.22 261.2,10.73 261.49,12.33C261.68,13.36 261.85,13.94 262.04,14.86C262.27,15.96 262.46,17.13 262.79,18.49C263.23,20.28 263.87,22.61 264.53,24.65C265.19,26.72 266.02,28.98 266.76,30.82C267.37,32.34 268.09,33.78 268.59,34.92C268.94,35.72 269.07,36.12 269.48,36.98C270.2,38.49 271.52,41.64 272.65,43.14C273.44,44.2 274.03,44.75 275.14,45.49C276.74,46.57 280.08,47.8 281.69,48.47C282.61,48.85 283.03,48.98 283.89,49.31C285.1,49.78 286.63,50.46 288.24,51.03C290.19,51.73 292.6,52.51 294.8,53.13C296.97,53.75 299.45,54.35 301.35,54.76C302.8,55.07 304.03,55.25 305.2,55.47C306.18,55.65 306.8,55.81 307.9,55.99C309.6,56.26 312.26,56.61 314.45,56.82Q316.63,57.02 321,57.22L321,302Z" style="stroke: none; fill: rgb(34, 162, 135);"/><path d="M31.73,302Q31.44,297.89 31.15,295.84C30.86,293.78 30.47,291.71 29.97,289.67C29.47,287.6 28.8,285.41 28.13,283.51C27.53,281.82 26.94,279.89 26.2,278.82C25.72,278.12 25.37,277.8 24.64,277.35C23.49,276.64 21.44,276.09 19.65,275.53C17.63,274.9 15.29,274.28 13.1,273.81C10.93,273.34 8.74,272.97 6.55,272.69Q4.37,272.41 0,272.14L0,0L250.26,0Q250.46,4.11 250.67,6.16C250.88,8.22 251.16,10.28 251.52,12.33C251.88,14.39 252.32,16.45 252.83,18.49C253.35,20.55 254.1,23.09 254.62,24.65C254.94,25.62 255.17,26.11 255.49,26.99C255.9,28.11 256.29,29.4 256.85,30.82C257.57,32.64 258.64,35.08 259.56,36.98C260.37,38.66 261.45,40.53 262.04,41.65C262.37,42.28 262.44,42.48 262.81,43.14C263.57,44.5 265.37,47.88 266.52,49.31C267.24,50.21 267.65,50.57 268.59,51.25C270.11,52.34 273.69,54.04 275.14,54.75C275.84,55.1 276.05,55.16 276.73,55.47C277.93,56.02 279.91,57.04 281.69,57.8C283.71,58.67 286.3,59.67 288.24,60.35C289.75,60.88 291.13,61.25 292.32,61.63C293.25,61.93 293.77,62.15 294.8,62.45C296.46,62.94 299.16,63.65 301.35,64.14C303.53,64.62 305.71,65.03 307.9,65.37C310.08,65.71 312.26,65.97 314.45,66.17Q316.63,66.37 321,66.55L321,302Z" style="stroke: none; fill: rgb(44, 172, 128);"/><path d="M39.68,302Q39.42,299.35 39.31,298.24C39.23,297.35 39.23,296.82 39.09,295.84C38.87,294.26 38.43,291.71 37.95,289.67C37.46,287.6 36.88,285.55 36.18,283.51C35.47,281.44 34.37,278.8 33.71,277.35C33.34,276.53 33.28,276.17 32.76,275.47C31.86,274.26 29.46,272.03 28.19,271.18C27.44,270.68 27.06,270.63 26.2,270.28C24.66,269.66 21.85,268.63 19.65,267.96C17.48,267.3 15.29,266.76 13.1,266.3C10.93,265.85 8.23,265.44 6.55,265.23C5.5,265.1 4.94,265.1 3.99,265.02Q2.81,264.92 0,264.67L0,0L239.29,0Q239.49,4.11 239.7,6.16C239.91,8.22 240.2,10.28 240.57,12.33C240.94,14.39 241.55,17.1 241.91,18.49C242.09,19.21 242.19,19.43 242.39,20.11C242.72,21.24 243.15,23.03 243.67,24.65C244.28,26.56 245.06,28.76 245.9,30.82C246.77,32.95 247.8,35.14 248.81,37.215C249.8,39.24 250.78,41.18 251.89,43.14C253.03,45.15 254.28,47.12 255.60000000000002,49.125C256.98,51.23 258.74,54.01 260,55.47C260.76,56.35 261.11,56.68 262.04,57.39C263.6,58.58 266.55,60.23 268.78499999999997,61.525000000000006C270.92,62.77 273.01,63.94 275.14,65.02C277.23,66.07 279.29,66.99 281.44,67.92C283.65,68.87 285.98,69.83 288.24,70.65C290.43,71.44 292.77,72.18 294.8,72.76C296.52,73.25 298.42,73.65 299.62,73.96C300.34,74.14 300.58,74.24 301.35,74.41C302.83,74.74 305.71,75.32 307.9,75.67C310.08,76.01 312.26,76.28 314.45,76.48Q316.63,76.68 321,76.87L321,302Z" style="stroke: none; fill: rgb(53, 183, 121);"/><path d="M48.66,302Q48.37,297.89 48.08,295.84C47.78,293.78 47.32,291.43 46.89,289.67C46.56,288.34 46.17,287.28 45.86,286.19C45.59,285.24 45.46,284.58 45.11,283.51C44.57,281.87 43.67,279.4 42.76,277.35C41.8,275.2 40.97,272.91 39.47,270.92C37.82,268.72 35.36,266.41 33.04,264.865C30.91,263.44 28.48,262.68 26.2,261.78C24.01,260.92 21.39,260.07 19.65,259.56C18.52,259.23 17.82,259.12 16.81,258.86C15.65,258.57 14.52,258.2 13.1,257.89C11.23,257.49 8.74,257.05 6.55,256.77Q4.37,256.49 0,256.22L0,0L227.11,0Q227.31,4.11 227.52,6.16C227.73,8.22 228.06,10.49 228.39,12.33C228.66,13.84 229.05,15.3 229.29,16.43C229.46,17.23 229.5,17.62 229.71,18.49C230.08,20 230.8,22.61 231.46,24.65C232.13,26.72 232.95,28.92 233.73,30.82C234.42,32.49 235.34,34.32 235.84,35.45C236.13,36.1 236.19,36.31 236.51,36.98C237.17,38.35 238.7,41.3 239.76,43.14C240.65,44.69 241.69,46.19 242.39,47.33C242.87,48.11 243.04,48.48 243.59,49.31C244.58,50.81 247.03,54.23 247.98,55.47C248.4,56.02 248.51,56.11 248.94,56.64C249.82,57.72 251.71,60.3 252.94,61.63C253.85,62.61 254.45,63.18 255.49,64.03C256.91,65.19 259.65,66.98 260.8,67.8C261.36,68.2 261.46,68.3 262.04,68.69C263.36,69.58 267,71.89 268.59,72.82C269.47,73.34 269.86,73.51 270.69,73.96C271.9,74.62 273.5,75.59 275.14,76.43C277.1,77.43 280.23,78.87 281.69,79.49C282.41,79.8 282.63,79.85 283.32,80.12C284.52,80.59 286.47,81.47 288.24,82.11C290.26,82.84 292.6,83.61 294.8,84.24C296.97,84.86 299.75,85.53 301.35,85.88C302.27,86.08 302.69,86.13 303.54,86.29C304.75,86.52 306.29,86.88 307.9,87.13C309.86,87.44 312.26,87.75 314.45,87.95Q316.63,88.15 321,88.34L321,302Z" style="stroke: none; fill: rgb(77, 193, 107);"/><path d="M58.74,302Q58.47,297.89 58.19,295.84C57.91,293.78 57.53,291.71 57.06,289.67C56.58,287.6 56.01,285.55 55.32,283.51C54.62,281.44 53.41,278.51 52.89,277.35C52.68,276.88 52.63,276.84 52.41,276.39C51.9,275.35 50.89,272.97 49.9,271.18C48.78,269.15 47.6,266.85 45.975,264.865C44.19,262.69 41.77,260.42 39.47,258.75C37.34,257.2 34.91,256.11 32.76,255.06C30.85,254.13 28.33,253.17 27.22,252.69C26.74,252.48 26.69,252.43 26.2,252.24C24.97,251.75 21.85,250.61 19.65,249.95C17.48,249.3 15.29,248.76 13.1,248.31C10.93,247.86 8.74,247.52 6.55,247.26Q4.37,247 0,246.74L0,0L213.39,0Q213.59,4.11 213.8,6.16C214.01,8.22 214.29,10.26 214.66,12.33C215.04,14.47 215.56,16.71 216.09,18.81C216.59,20.81 217.1,22.69 217.74,24.65C218.4,26.69 219.17,28.79 220,30.82C220.84,32.87 221.78,34.87 222.76999999999998,36.89C223.79,38.97 224.93,41.18 226.06,43.14C227.11,44.95 228.62,47.16 229.29,48.23C229.6,48.72 229.62,48.81 229.95,49.31C230.76,50.53 233.27,54.05 234.37,55.47C234.97,56.25 235.25,56.52 235.84,57.24C236.77,58.37 238.25,60.3 239.41,61.63C240.43,62.8 241.42,63.77 242.39,64.82C243.32,65.83 244.11,66.78 245.12,67.8C246.27,68.96 247.71,70.31 248.94,71.39C250.03,72.34 251.03,73.08 252.1,73.96C253.21,74.87 254.25,75.81 255.49,76.76C256.91,77.85 258.95,79.24 260.16,80.12C260.93,80.68 261.21,80.93 262.04,81.5C263.55,82.53 267.3,84.89 268.59,85.66C269.12,85.97 269.21,86 269.73,86.29C270.87,86.92 273.22,88.34 275.14,89.32C277.22,90.39 279.57,91.45 281.78499999999997,92.41499999999999C283.94,93.35 286.07,94.23 288.24,95.02C290.4,95.81 292.63,96.52 294.8,97.14C296.89,97.74 298.88,98.22 301.01,98.7C303.24,99.2 305.63,99.69 307.9,100.05C310.1,100.4 312.26,100.66 314.45,100.86Q316.63,101.06 321,101.24L321,302Z" style="stroke: none; fill: rgb(102, 203, 93);"/><path d="M70.49,302Q70.21,297.89 69.93,295.84C69.65,293.78 69.27,291.71 68.79,289.67C68.31,287.6 67.64,285.31 67.03,283.51C66.54,282.06 65.94,280.78 65.51,279.66C65.18,278.79 65.05,278.29 64.64,277.35C63.96,275.78 62.67,273.03 61.65,271.18C60.77,269.58 59.65,267.98 58.96,266.84C58.51,266.11 58.39,265.79 57.88,265.02C56.91,263.56 54.31,260.06 53.35,258.86C52.93,258.34 52.87,258.26 52.41,257.79C51.36,256.71 48.14,253.67 46.99,252.69C46.49,252.26 46.4,252.2 45.86,251.81C44.59,250.9 40.86,248.46 39.31,247.55C38.49,247.07 38.16,246.95 37.38,246.53C36.17,245.88 34.46,244.83 32.76,244C30.79,243.04 27.87,241.81 26.2,241.18C25.19,240.8 24.66,240.68 23.74,240.37C22.55,239.97 21.18,239.4 19.65,238.94C17.73,238.36 15.29,237.74 13.1,237.28C10.93,236.83 8.74,236.48 6.55,236.21Q4.37,235.94 0,235.68L0,0L197.78,0Q197.97,4.11 198.17,6.16C198.37,8.22 198.65,10.28 199,12.33C199.36,14.39 199.79,16.45 200.3,18.49C200.81,20.55 201.54,23.03 202.08,24.65C202.44,25.73 202.73,26.38 203.08,27.33C203.48,28.42 203.8,29.5 204.33,30.82C205.04,32.6 206.14,35.08 207.08,36.98C207.91,38.67 209.03,40.56 209.63,41.68C209.96,42.3 210.03,42.49 210.4,43.14C211.18,44.5 213.16,47.7 214.25,49.31C214.98,50.39 215.49,51 216.18,51.94C216.97,53.03 217.75,54.22 218.72,55.47C219.88,56.97 221.8,59.16 222.73,60.27C223.22,60.86 223.33,61.03 223.86,61.63C225.01,62.93 227.51,65.61 229.49,67.58C231.56,69.65 233.86,71.71 236.04000000000002,73.76499999999999C238.22,75.82 240.41,77.88 242.595,79.93C244.78,81.99 246.97,84.15 249.17000000000002,86.1C251.27,87.96 254.11,90.31 255.49,91.39C256.13,91.89 256.31,91.99 256.94,92.45C258.12,93.32 260.45,95.14 262.04,96.23C263.37,97.14 264.63,97.87 265.79,98.61C266.79,99.25 267.45,99.74 268.59,100.43C270.3,101.46 273.7,103.32 275.14,104.05C275.83,104.4 276.03,104.46 276.69,104.78C277.88,105.35 279.9,106.4 281.69,107.18C283.71,108.06 286.36,109.09 288.24,109.76C289.64,110.26 290.8,110.57 291.95,110.94C292.96,111.27 293.65,111.54 294.8,111.88C296.53,112.39 299.16,113.08 301.35,113.56C303.53,114.04 305.71,114.45 307.9,114.78C310.08,115.11 312.26,115.37 314.45,115.56Q316.63,115.75 321,115.93L321,302Z" style="stroke: none; fill: rgb(130, 211, 75);"/><path d="M84.33,302Q84.06,297.89 83.78,295.84C83.5,293.78 83.12,291.71 82.65,289.67C82.17,287.6 81.59,285.53 80.91,283.51C80.23,281.48 79.43,279.53 78.55,277.515C77.64,275.42 76.64,273.22 75.52,271.18C74.41,269.15 73.21,267.28 71.89,265.30499999999995C70.47,263.18 68.43,260.36 67.23,258.86C66.54,258 66.19,257.69 65.51,256.92C64.51,255.78 63.02,253.93 61.84,252.69C60.85,251.65 59.98,250.9 58.96,249.93C57.83,248.85 56.49,247.6 55.35,246.53C54.32,245.57 53.52,244.75 52.41,243.82C51.09,242.71 49.13,241.31 47.92,240.37C47.1,239.73 46.77,239.39 45.86,238.75C44.26,237.61 41.26,235.7 39.005,234.365C36.9,233.12 34.91,231.99 32.76,230.95C30.58,229.9 28.25,228.96 26.025,228.1C23.88,227.28 21.8,226.52 19.65,225.88C17.5,225.24 15.29,224.69 13.1,224.24C10.93,223.79 8.74,223.44 6.55,223.18Q4.37,222.92 0,222.66L0,0L179.63,0Q179.82,4.11 180.02,6.16C180.22,8.22 180.49,10.28 180.84,12.33C181.19,14.39 181.66,16.6 182.13,18.49C182.53,20.12 183.11,21.88 183.43,23.01C183.62,23.69 183.66,23.93 183.88,24.65C184.32,26.05 185.26,28.78 186.07,30.82C186.9,32.89 188.06,35.46 188.81,36.98C189.26,37.9 189.54,38.32 189.98,39.16C190.58,40.29 191.23,41.69 192.06,43.14C193.12,44.99 195.19,48.22 195.93,49.31C196.21,49.72 196.24,49.74 196.53,50.13C197.26,51.13 199.16,53.93 200.36,55.47C201.32,56.7 202.2,57.65 203.08,58.7C203.91,59.7 204.57,60.58 205.51,61.63C206.68,62.95 208.54,64.8 209.63,65.94C210.34,66.69 210.65,67.06 211.4,67.8C212.59,68.97 214.95,71.06 216.18,72.2C216.96,72.92 217.29,73.28 218.08,73.96C219.28,75 221.36,76.64 222.73,77.76C223.81,78.64 224.59,79.32 225.62,80.12C226.76,81 228.09,81.8 229.29,82.79C230.56,83.84 231.89,85.09 233.01,86.29C234.06,87.41 234.91,88.66 235.84,89.73C236.69,90.7 237.41,91.44 238.35,92.45C239.54,93.74 241.29,95.71 242.39,96.83C243.12,97.57 243.49,97.88 244.25,98.61C245.46,99.77 247.69,101.99 248.94,103.11C249.73,103.82 250.12,104.11 250.92,104.78C252.13,105.8 254.1,107.55 255.49,108.65C256.61,109.53 257.54,110.15 258.6,110.94C259.72,111.77 260.73,112.6 262.04,113.5C263.68,114.63 266.64,116.42 267.71,117.1C268.13,117.37 268.15,117.41 268.59,117.67C269.76,118.37 273.18,120.31 275.14,121.31C276.69,122.1 278.17,122.71 279.37,123.27C280.26,123.69 280.71,123.95 281.69,124.37C283.31,125.07 286.04,126.17 288.24,126.95C290.41,127.72 293.31,128.58 294.8,129C295.56,129.21 295.82,129.25 296.55,129.43C297.76,129.73 299.62,130.27 301.35,130.65C303.36,131.09 305.71,131.53 307.9,131.86C310.08,132.19 312.26,132.45 314.45,132.64Q316.63,132.83 321,133L321,302Z" style="stroke: none; fill: rgb(161, 217, 56);"/><path d="M101.37,302Q101.09,297.89 100.8,295.84C100.51,293.78 100.09,291.58 99.63,289.67C99.23,287.99 98.59,286.1 98.27,284.98C98.09,284.35 98.07,284.16 97.86,283.51C97.42,282.16 96.44,279.38 95.56,277.35C94.66,275.27 93.2,272.44 92.49,271.18C92.16,270.6 92.05,270.49 91.71,269.94C91.04,268.85 89.85,266.62 88.77,265.02C87.67,263.38 85.98,261.32 85.16,260.21C84.73,259.62 84.66,259.46 84.18,258.86C83.11,257.53 80.61,254.69 78.64500000000001,252.66C76.6,250.55 74.35,248.42 72.13499999999999,246.47C69.97,244.57 66.62,242.08 65.51,241.1C65.12,240.76 65.11,240.74 64.74,240.37C63.71,239.32 61.04,236.16 59.025000000000006,234.13C56.95,232.04 54.68,229.92 52.44499999999999,228.01C50.29,226.16 47.27,223.82 45.86,222.81C45.22,222.35 45.05,222.29 44.42,221.88C43.24,221.1 41.05,219.52 39.31,218.48C37.6,217.46 35.24,216.34 34.08,215.71C33.49,215.39 33.38,215.29 32.76,214.99C31.41,214.33 28.41,212.95 26.2,212.1C24.04,211.27 21.09,210.34 19.65,209.93C18.96,209.73 18.76,209.72 18.09,209.55C16.9,209.25 14.88,208.65 13.1,208.27C11.07,207.84 8.74,207.44 6.55,207.17Q4.37,206.9 0,206.63L0,0L158.06,0Q158.25,4.11 158.44,6.16C158.64,8.22 158.9,10.28 159.23,12.33C159.57,14.39 159.97,16.45 160.45,18.49C160.93,20.55 161.54,22.75 162.13,24.65C162.65,26.32 163.39,28.17 163.78,29.3C164,29.94 164.04,30.15 164.29,30.82C164.81,32.19 165.92,34.93 166.89,36.98C167.89,39.1 169.06,41.26 170.215,43.325C171.36,45.37 172.61,47.5 173.8,49.31C174.83,50.88 176.07,52.46 176.88,53.6C177.41,54.35 177.59,54.68 178.2,55.47C179.34,56.96 181.56,59.66 183.37,61.695C185.21,63.77 188.08,66.75 189.15,67.8C189.54,68.18 189.58,68.18 189.98,68.55C191.09,69.56 194.03,72.36 196.20999999999998,74.215C198.48,76.15 201.01,78.16 203.34,79.91499999999999C205.48,81.53 207.96,83.22 209.63,84.39C210.72,85.16 211.36,85.63 212.35,86.29C213.51,87.06 214.74,87.78 216.18,88.68C218.03,89.83 220.76,90.97 222.53,92.64C224.28,94.29 225.51,96.87 226.74,98.61C227.7,99.96 228.48,101.13 229.29,102.22C229.99,103.16 230.48,103.75 231.3,104.78C232.55,106.35 234.35,108.69 236.06,110.695C237.93,112.89 240.07,115.27 242.115,117.4C244.09,119.45 247.05,122.23 248.13,123.27C248.52,123.65 248.53,123.68 248.94,124.04C250.06,125.04 253.22,127.75 255.425,129.485C257.59,131.19 260.46,133.28 262.04,134.35C262.88,134.92 263.23,135.09 264.03,135.59C265.24,136.35 266.92,137.51 268.59,138.48C270.51,139.6 272.78,140.79 274.945,141.865C277.14,142.96 279.44,144.04 281.69,144.98C283.87,145.89 286.78,146.94 288.24,147.43C288.96,147.67 289.17,147.71 289.86,147.92C291.06,148.29 293.03,148.97 294.8,149.46C296.82,150.02 299.16,150.59 301.35,151.05C303.53,151.5 305.71,151.88 307.9,152.2C310.08,152.51 312.26,152.76 314.45,152.94Q316.63,153.12 321,153.3L321,302Z" style="stroke: none; fill: rgb(191, 223, 42);"/><path d="M123.49,302Q123.2,297.89 122.92,295.84C122.64,293.78 122.26,291.72 121.79,289.67C121.31,287.6 120.74,285.52 120.07,283.51C119.41,281.52 118.65,279.67 117.795,277.685C116.88,275.56 115.85,273.25 114.72,271.18C113.62,269.16 112.46,267.36 111.14,265.4C109.7,263.26 107.54,260.31 106.36,258.86C105.73,258.09 105.45,257.86 104.82,257.16C103.8,256.02 102.05,253.92 100.84,252.69C99.91,251.75 99.22,251.2 98.27,250.31C97.07,249.2 95.42,247.56 94.21,246.53C93.29,245.75 92.7,245.35 91.71,244.58C90.25,243.44 87.44,241.2 86.3,240.37C85.79,240 85.7,239.97 85.16,239.61C83.87,238.76 80.06,236.23 78.61,235.27C77.89,234.79 77.65,234.72 76.99,234.2C75.76,233.23 73.1,230.73 72.06,229.57C71.51,228.95 71.43,228.72 70.92,228.04C69.9,226.67 67.21,223.09 66.31,221.88C65.93,221.38 65.9,221.29 65.51,220.81C64.64,219.73 62.25,217.08 61.04,215.71C60.22,214.78 59.79,214.23 58.96,213.37C57.86,212.23 56.12,210.68 54.94,209.55C54,208.65 53.41,208 52.41,207.13C51.1,205.99 48.86,204.35 47.66,203.39C46.92,202.8 46.68,202.53 45.86,201.94C44.32,200.82 41.18,198.79 38.905,197.435C36.82,196.19 34.9,195.1 32.76,194.07C30.55,193.01 28.1,192.03 25.845,191.175C23.74,190.37 21.76,189.66 19.65,189.04C17.51,188.41 15.29,187.86 13.1,187.41C10.93,186.97 8.74,186.63 6.55,186.36Q4.37,186.1 0,185.82L0,0L131.19,0Q131.39,4.11 131.58,6.16C131.77,8.22 132.01,10.28 132.33,12.33C132.65,14.39 133.03,16.44 133.48,18.49C133.93,20.55 134.45,22.61 135.04,24.65C135.64,26.72 136.61,29.55 137.07,30.82C137.28,31.4 137.35,31.51 137.57,32.06C138,33.16 138.74,35.26 139.49,36.98C140.34,38.93 141.58,41.48 142.45,43.14C143.06,44.31 143.55,45.06 144.12,46.06C144.72,47.11 145.17,48.06 145.95,49.31C147.08,51.13 148.87,53.75 150.385,55.835C151.85,57.85 153.62,60.11 154.9,61.63C155.78,62.67 156.38,63.26 157.22,64.18C158.22,65.28 159.41,66.67 160.53,67.8C161.6,68.88 162.69,69.83 163.78,70.85C164.88,71.88 165.99,72.99 167.11,73.96C168.18,74.89 169.17,75.64 170.33,76.57C171.69,77.66 173.56,79.21 174.78,80.12C175.6,80.73 175.98,80.97 176.88,81.59C178.48,82.7 181.36,84.74 183.59,86.18C185.73,87.56 188.08,88.92 189.98,90.05C191.5,90.95 192.89,91.79 194.09,92.45C195,92.95 195.52,93.2 196.53,93.72C198.18,94.58 201.32,96.2 203.08,97.1C204.27,97.71 205.02,98.11 206.07,98.61C207.2,99.15 208.42,99.43 209.63,100.24C211.2,101.3 213.33,103.28 214.46,104.78C215.31,105.91 215.6,107.07 216.18,108.13C216.72,109.11 217.15,109.82 217.8,110.94C218.76,112.6 220.47,115.54 221.38,117.1C221.94,118.05 222.2,118.54 222.73,119.4C223.44,120.53 224.33,121.84 225.29,123.27C226.49,125.06 227.95,127.27 229.405,129.275C230.93,131.38 233.1,134.08 234.28,135.59C234.94,136.44 235.19,136.8 235.84,137.57C236.81,138.72 238.45,140.48 239.61,141.76C240.6,142.85 241.41,143.78 242.39,144.78C243.43,145.83 244.59,146.88 245.69,147.92C246.78,148.95 247.79,149.97 248.94,150.97C250.15,152.02 251.61,153.13 252.78,154.08C253.76,154.87 254.38,155.44 255.49,156.27C257.11,157.48 259.52,159.13 261.655,160.51C263.88,161.94 266.66,163.63 268.59,164.69C269.92,165.42 270.93,165.85 272.05,166.41C273.11,166.94 273.91,167.41 275.14,167.98C276.91,168.8 279.62,169.96 281.69,170.76C283.52,171.46 285.75,172.16 286.92,172.57C287.51,172.78 287.63,172.84 288.24,173.04C289.59,173.48 292.61,174.38 294.8,174.95C296.98,175.51 299.16,175.99 301.35,176.42C303.53,176.84 305.71,177.2 307.9,177.5C310.08,177.8 312.26,178.03 314.45,178.21Q316.63,178.39 321,178.57L321,302Z" style="stroke: none; fill: rgb(222, 227, 40);"/><path d="M156.25,302Q155.92,297.89 155.64,295.84C155.35,293.78 155,291.72 154.54,289.67C154.08,287.61 153.53,285.54 152.88,283.51C152.23,281.47 151.46,279.5 150.625,277.485C149.76,275.39 148.86,273.23 147.78,271.18C146.68,269.1 145.42,267.1 144.085,265.08C142.7,262.99 140.85,260.39 139.61,258.86C138.83,257.9 138.34,257.47 137.57,256.62C136.55,255.49 135.21,253.85 134.05,252.69C133.03,251.67 132.09,250.92 131.02,249.96C129.82,248.88 128.41,247.5 127.22,246.53C126.25,245.74 125.55,245.29 124.47,244.49C122.93,243.35 119.92,241.1 118.83,240.37C118.41,240.08 118.36,240.08 117.92,239.81C116.73,239.08 113.06,236.81 111.37,235.78C110.3,235.13 109.73,234.74 108.76,234.2C107.59,233.55 106.3,232.93 104.82,232.18C102.91,231.22 99.75,229.65 98.27,228.91C97.51,228.53 97.27,228.38 96.54,228.04C95.34,227.48 93.44,226.69 91.71,225.95C89.69,225.09 86.5,224.07 85.16,223.2C84.46,222.75 84.24,222.55 83.76,221.88C82.85,220.63 81.74,217.61 80.83,215.71C80.04,214.08 79.2,212.31 78.61,211.18C78.25,210.49 78.1,210.27 77.69,209.55C76.9,208.16 75.24,205.18 74.21,203.39C73.41,201.99 72.75,200.78 72.06,199.68C71.49,198.76 71.08,198.22 70.39,197.22C69.3,195.63 66.89,192.18 66.11,191.06C65.82,190.64 65.81,190.6 65.51,190.2C64.73,189.18 62.34,186.35 61.13,184.9C60.28,183.88 59.8,183.22 58.96,182.31C57.92,181.19 56.46,179.86 55.31,178.73C54.29,177.73 53.49,176.84 52.41,175.88C51.17,174.79 49.43,173.53 48.24,172.57C47.33,171.85 46.88,171.38 45.86,170.65C44.23,169.48 41.46,167.74 39.245000000000005,166.44C37.1,165.18 34.97,164 32.76,162.97C30.57,161.95 28.28,161.1 26.055,160.29000000000002C23.91,159.51 21.81,158.78 19.65,158.17C17.49,157.56 15.29,157.04 13.1,156.61C10.92,156.18 8.74,155.84 6.55,155.57Q4.37,155.3 0,154.99L0,0L94.22,0Q94.47,4.11 94.67,6.16C94.87,8.22 95.12,10.28 95.42,12.33C95.72,14.39 96.07,16.44 96.48,18.49C96.89,20.55 97.57,23.36 97.9,24.65C98.05,25.24 98.11,25.37 98.27,25.94C98.58,27.04 99.07,29.11 99.59,30.82C100.18,32.76 100.9,34.94 101.66,36.98C102.43,39.05 103.63,41.86 104.2,43.14C104.46,43.73 104.55,43.85 104.82,44.42C105.35,45.52 106.23,47.6 107.12,49.31C108.14,51.26 109.91,54.26 110.65,55.47C110.97,55.99 111.04,56.06 111.37,56.56C112.08,57.63 113.58,60.06 114.72,61.63C115.77,63.08 117.02,64.55 117.92,65.68C118.57,66.5 118.87,66.96 119.6,67.8C120.78,69.17 123.47,71.92 124.47,72.97C124.91,73.43 124.96,73.52 125.42,73.96C126.5,75 129.79,77.87 131.02,78.95C131.62,79.48 131.76,79.63 132.37,80.12C133.53,81.05 136.04,82.87 137.57,83.99C138.77,84.86 139.7,85.56 140.8,86.29C141.89,87.01 142.81,87.56 144.12,88.34C145.98,89.46 148.69,91.08 150.93,92.30000000000001C153.05,93.46 155.09,94.46 157.22,95.5C159.39,96.56 161.63,97.61 163.82999999999998,98.58500000000001C166,99.54 168.15,100.42 170.33,101.3C172.5,102.18 175.24,103.22 176.88,103.86C177.86,104.24 178.34,104.45 179.24,104.78C180.43,105.22 181.88,105.7 183.43,106.23C185.37,106.89 187.79,107.72 189.98,108.45C192.16,109.17 195.27,110.16 196.53,110.58C197.04,110.75 197.15,110.67 197.6,110.94C198.77,111.64 202.34,114.99 203.08,116.1C203.36,116.52 203.28,116.62 203.46,117.1C203.9,118.28 204.96,121.22 205.73,123.27C206.5,125.33 207.38,127.61 208.09,129.43C208.66,130.89 209.16,132.25 209.63,133.37C209.98,134.22 210.2,134.66 210.61,135.59C211.29,137.13 212.4,139.71 213.33,141.76C214.26,143.81 215.19,145.84 216.21,147.87C217.25,149.94 218.37,152.04 219.49,154.08C220.6,156.09 221.66,158.01 222.89,160C224.19,162.11 225.92,164.66 227.11,166.41C227.95,167.64 228.53,168.51 229.29,169.53C230.06,170.56 230.8,171.44 231.72,172.57C232.91,174.01 234.85,176.37 235.84,177.46C236.36,178.03 236.52,178.17 237.08,178.73C238.23,179.89 241.29,182.98 242.39,184C242.86,184.44 242.95,184.49 243.44,184.9C244.55,185.84 247.49,188.37 248.94,189.48C249.84,190.17 250.32,190.45 251.19,191.06C252.39,191.9 253.95,193.09 255.49,194.07C257.17,195.14 259.75,196.55 260.89,197.22C261.42,197.53 261.49,197.6 262.04,197.9C263.32,198.6 266.52,200.26 268.59,201.22C270.41,202.06 272.62,202.89 273.79,203.39C274.39,203.64 274.52,203.72 275.14,203.97C276.5,204.51 279.5,205.64 281.69,206.36C283.86,207.08 286.18,207.75 288.24,208.3C290.06,208.79 292.26,209.26 293.43,209.55C294.03,209.7 294.17,209.76 294.8,209.9C296.17,210.21 299.16,210.84 301.35,211.23C303.53,211.62 305.71,211.94 307.9,212.23C310.08,212.51 312.26,212.75 314.45,212.94Q316.63,213.13 321,213.35L321,302Z" style="stroke: none; fill: rgb(253, 231, 37);"/></g><g class="contourlines" clip-path="url(#clipline43e4b9)"><g class="contourlevel"/><g class="contourlevel"/><g class="contourlevel"/><g class="contourlevel"><path class="openline" d="M316.85,0L321,3.9" style="stroke-miterlimit: 1; vector-effect: none; fill: none; stroke: rgb(0, 0, 0); stroke-opacity: 1; stroke-width: 0.5px;"/></g><g class="contourlevel"><path class="openline" d="M311.32,0Q311.08,4.65 311.8,6.16C312.35,7.32 313.25,8.14 314.45,8.66Q316.06,9.36 321,9.1" style="stroke-miterlimit: 1; vector-effect: none; fill: none; stroke: rgb(0, 0, 0); stroke-opacity: 1; stroke-width: 0.5px;"/></g><g class="contourlevel"><path class="openline" d="M305.45,0Q305.68,4.11 305.91,6.16C306.14,8.22 306.23,11.2 306.83,12.33C307.12,12.88 307.33,13.06 307.9,13.33C309.11,13.9 312.26,13.98 314.45,14.2Q316.63,14.42 321,14.63" style="stroke-miterlimit: 1; vector-effect: none; fill: none; stroke: rgb(0, 0, 0); stroke-opacity: 1; stroke-width: 0.5px;"/></g><g class="contourlevel"><path class="openline" d="M299.19,0Q299.42,4.11 299.64,6.16C299.87,8.22 300.21,10.55 300.54,12.33C300.79,13.7 300.76,14.92 301.35,15.95C301.94,16.98 302.98,17.94 304.05,18.49C305.15,19.06 306.44,19.01 307.9,19.25C309.79,19.56 312.26,19.89 314.45,20.1Q316.63,20.31 321,20.52" style="stroke-miterlimit: 1; vector-effect: none; fill: none; stroke: rgb(0, 0, 0); stroke-opacity: 1; stroke-width: 0.5px;"/></g><g class="contourlevel"><path class="openline" d="M1.65,302L0,300.45" style="stroke-miterlimit: 1; vector-effect: none; fill: none; stroke: rgb(0, 0, 0); stroke-opacity: 1; stroke-width: 0.5px;"/><path class="openline" d="M292.49,0Q292.71,4.11 292.93,6.16C293.15,8.22 293.49,10.45 293.83,12.33C294.12,13.93 294.56,15.6 294.8,16.74C294.95,17.46 294.78,17.81 295.16,18.49C295.99,19.97 299.8,23.53 301.35,24.31C302.08,24.68 302.44,24.51 303.2,24.65C304.41,24.88 306.2,25.3 307.9,25.57C309.9,25.89 312.26,26.19 314.45,26.4Q316.63,26.61 321,26.82" style="stroke-miterlimit: 1; vector-effect: none; fill: none; stroke: rgb(0, 0, 0); stroke-opacity: 1; stroke-width: 0.5px;"/></g><g class="contourlevel"><path class="openline" d="M6.59,302L0,295.8" style="stroke-miterlimit: 1; vector-effect: none; fill: none; stroke: rgb(0, 0, 0); stroke-opacity: 1; stroke-width: 0.5px;"/><path class="openline" d="M285.32,0Q285.53,4.11 285.75,6.16C285.97,8.22 286.25,10.24 286.63,12.33C287.03,14.51 287.57,16.85 288.105,18.965C288.6,20.94 288.68,22.96 289.7,24.65C290.82,26.49 292.88,28.4 294.8,29.45C296.62,30.44 298.75,30.48 300.845,30.95C303.1,31.45 305.59,31.97 307.9,32.34C310.12,32.7 312.26,32.96 314.45,33.17Q316.63,33.37 321,33.57" style="stroke-miterlimit: 1; vector-effect: none; fill: none; stroke: rgb(0, 0, 0); stroke-opacity: 1; stroke-width: 0.5px;"/></g><g class="contourlevel"><path class="openline" d="M12.09,302Q12.32,297.61 11.44,295.84C10.53,294 8.47,292.11 6.55,291.24Q4.65,290.38 0,290.63" style="stroke-miterlimit: 1; vector-effect: none; fill: none; stroke: rgb(0, 0, 0); stroke-opacity: 1; stroke-width: 0.5px;"/><path class="openline" d="M277.6,0Q277.81,4.11 278.02,6.16C278.24,8.22 278.53,10.28 278.89,12.33C279.26,14.39 279.72,16.54 280.21,18.49C280.66,20.28 281.38,22.53 281.69,23.59C281.83,24.08 281.83,24.15 281.99,24.65C282.37,25.86 283.05,29.11 284.16,30.82C285.19,32.4 286.59,33.7 288.24,34.66C290.07,35.73 293.51,36.34 294.8,36.7C295.33,36.85 295.41,36.85 295.93,36.98C297.06,37.27 299.45,37.96 301.35,38.38C303.42,38.84 305.71,39.28 307.9,39.62C310.08,39.96 312.26,40.23 314.45,40.43Q316.63,40.63 321,40.83" style="stroke-miterlimit: 1; vector-effect: none; fill: none; stroke: rgb(0, 0, 0); stroke-opacity: 1; stroke-width: 0.5px;"/></g><g class="contourlevel"><path class="openline" d="M18.06,302Q17.74,297.89 17.43,295.84C17.11,293.78 17.04,291.24 16.16,289.67C15.44,288.39 14.44,287.47 13.1,286.8C11.42,285.95 8.74,285.9 6.55,285.6Q4.37,285.3 0,285.01" style="stroke-miterlimit: 1; vector-effect: none; fill: none; stroke: rgb(0, 0, 0); stroke-opacity: 1; stroke-width: 0.5px;"/><path class="openline" d="M269.28,0Q269.48,4.11 269.69,6.16C269.9,8.22 270.18,10.28 270.54,12.33C270.9,14.39 271.33,16.45 271.84,18.49C272.35,20.55 273.01,22.81 273.61,24.65C274.11,26.19 274.73,27.68 275.14,28.82C275.42,29.61 275.51,29.98 275.84,30.82C276.42,32.32 277.38,35.38 278.5,36.98C279.41,38.27 280.33,39.13 281.69,39.98C283.41,41.05 286.65,41.93 288.24,42.48C289.13,42.79 289.53,42.87 290.36,43.14C291.57,43.52 293.17,44.11 294.8,44.58C296.76,45.15 299.16,45.77 301.35,46.25C303.53,46.73 305.71,47.13 307.9,47.47C310.08,47.81 312.26,48.07 314.45,48.27Q316.63,48.47 321,48.66" style="stroke-miterlimit: 1; vector-effect: none; fill: none; stroke: rgb(0, 0, 0); stroke-opacity: 1; stroke-width: 0.5px;"/></g><g class="contourlevel"><path class="openline" d="M24.57,302Q24.27,297.89 23.97,295.84C23.66,293.78 23.26,291.71 22.74,289.67C22.22,287.6 21.59,284.69 20.85,283.51C20.48,282.91 20.27,282.74 19.65,282.39C18.38,281.68 15.29,281.09 13.1,280.6C10.93,280.11 8.74,279.74 6.55,279.45Q4.37,279.16 0,278.88" style="stroke-miterlimit: 1; vector-effect: none; fill: none; stroke: rgb(0, 0, 0); stroke-opacity: 1; stroke-width: 0.5px;"/><path class="openline" d="M260.18,0Q260.39,4.11 260.61,6.16C260.83,8.22 261.2,10.73 261.49,12.33C261.68,13.36 261.85,13.94 262.04,14.86C262.27,15.96 262.46,17.13 262.79,18.49C263.23,20.28 263.87,22.61 264.53,24.65C265.19,26.72 266.02,28.98 266.76,30.82C267.37,32.34 268.09,33.78 268.59,34.92C268.94,35.72 269.07,36.12 269.48,36.98C270.2,38.49 271.52,41.64 272.65,43.14C273.44,44.2 274.03,44.75 275.14,45.49C276.74,46.57 280.08,47.8 281.69,48.47C282.61,48.85 283.03,48.98 283.89,49.31C285.1,49.78 286.63,50.46 288.24,51.03C290.19,51.73 292.6,52.51 294.8,53.13C296.97,53.75 299.45,54.35 301.35,54.76C302.8,55.07 304.03,55.25 305.2,55.47C306.18,55.65 306.8,55.81 307.9,55.99C309.6,56.26 312.26,56.61 314.45,56.82Q316.63,57.02 321,57.22" style="stroke-miterlimit: 1; vector-effect: none; fill: none; stroke: rgb(0, 0, 0); stroke-opacity: 1; stroke-width: 0.5px;"/></g><g class="contourlevel"><path class="openline" d="M31.73,302Q31.44,297.89 31.15,295.84C30.86,293.78 30.47,291.71 29.97,289.67C29.47,287.6 28.8,285.41 28.13,283.51C27.53,281.82 26.94,279.89 26.2,278.82C25.72,278.12 25.37,277.8 24.64,277.35C23.49,276.64 21.44,276.09 19.65,275.53C17.63,274.9 15.29,274.28 13.1,273.81C10.93,273.34 8.74,272.97 6.55,272.69Q4.37,272.41 0,272.14" style="stroke-miterlimit: 1; vector-effect: none; fill: none; stroke: rgb(0, 0, 0); stroke-opacity: 1; stroke-width: 0.5px;"/><path class="openline" d="M250.26,0Q250.46,4.11 250.67,6.16C250.88,8.22 251.16,10.28 251.52,12.33C251.88,14.39 252.32,16.45 252.83,18.49C253.35,20.55 254.1,23.09 254.62,24.65C254.94,25.62 255.17,26.11 255.49,26.99C255.9,28.11 256.29,29.4 256.85,30.82C257.57,32.64 258.64,35.08 259.56,36.98C260.37,38.66 261.45,40.53 262.04,41.65C262.37,42.28 262.44,42.48 262.81,43.14C263.57,44.5 265.37,47.88 266.52,49.31C267.24,50.21 267.65,50.57 268.59,51.25C270.11,52.34 273.69,54.04 275.14,54.75C275.84,55.1 276.05,55.16 276.73,55.47C277.93,56.02 279.91,57.04 281.69,57.8C283.71,58.67 286.3,59.67 288.24,60.35C289.75,60.88 291.13,61.25 292.32,61.63C293.25,61.93 293.77,62.15 294.8,62.45C296.46,62.94 299.16,63.65 301.35,64.14C303.53,64.62 305.71,65.03 307.9,65.37C310.08,65.71 312.26,65.97 314.45,66.17Q316.63,66.37 321,66.55" style="stroke-miterlimit: 1; vector-effect: none; fill: none; stroke: rgb(0, 0, 0); stroke-opacity: 1; stroke-width: 0.5px;"/></g><g class="contourlevel"><path class="openline" d="M39.68,302Q39.42,299.35 39.31,298.24C39.23,297.35 39.23,296.82 39.09,295.84C38.87,294.26 38.43,291.71 37.95,289.67C37.46,287.6 36.88,285.55 36.18,283.51C35.47,281.44 34.37,278.8 33.71,277.35C33.34,276.53 33.28,276.17 32.76,275.47C31.86,274.26 29.46,272.03 28.19,271.18C27.44,270.68 27.06,270.63 26.2,270.28C24.66,269.66 21.85,268.63 19.65,267.96C17.48,267.3 15.29,266.76 13.1,266.3C10.93,265.85 8.23,265.44 6.55,265.23C5.5,265.1 4.94,265.1 3.99,265.02Q2.81,264.92 0,264.67" style="stroke-miterlimit: 1; vector-effect: none; fill: none; stroke: rgb(0, 0, 0); stroke-opacity: 1; stroke-width: 0.5px;"/><path class="openline" d="M239.29,0Q239.49,4.11 239.7,6.16C239.91,8.22 240.2,10.28 240.57,12.33C240.94,14.39 241.55,17.1 241.91,18.49C242.09,19.21 242.19,19.43 242.39,20.11C242.72,21.24 243.15,23.03 243.67,24.65C244.28,26.56 245.06,28.76 245.9,30.82C246.77,32.95 247.8,35.14 248.81,37.215C249.8,39.24 250.78,41.18 251.89,43.14C253.03,45.15 254.28,47.12 255.60000000000002,49.125C256.98,51.23 258.74,54.01 260,55.47C260.76,56.35 261.11,56.68 262.04,57.39C263.6,58.58 266.55,60.23 268.78499999999997,61.525000000000006C270.92,62.77 273.01,63.94 275.14,65.02C277.23,66.07 279.29,66.99 281.44,67.92C283.65,68.87 285.98,69.83 288.24,70.65C290.43,71.44 292.77,72.18 294.8,72.76C296.52,73.25 298.42,73.65 299.62,73.96C300.34,74.14 300.58,74.24 301.35,74.41C302.83,74.74 305.71,75.32 307.9,75.67C310.08,76.01 312.26,76.28 314.45,76.48Q316.63,76.68 321,76.87" style="stroke-miterlimit: 1; vector-effect: none; fill: none; stroke: rgb(0, 0, 0); stroke-opacity: 1; stroke-width: 0.5px;"/></g><g class="contourlevel"><path class="openline" d="M48.66,302Q48.37,297.89 48.08,295.84C47.78,293.78 47.32,291.43 46.89,289.67C46.56,288.34 46.17,287.28 45.86,286.19C45.59,285.24 45.46,284.58 45.11,283.51C44.57,281.87 43.67,279.4 42.76,277.35C41.8,275.2 40.97,272.91 39.47,270.92C37.82,268.72 35.36,266.41 33.04,264.865C30.91,263.44 28.48,262.68 26.2,261.78C24.01,260.92 21.39,260.07 19.65,259.56C18.52,259.23 17.82,259.12 16.81,258.86C15.65,258.57 14.52,258.2 13.1,257.89C11.23,257.49 8.74,257.05 6.55,256.77Q4.37,256.49 0,256.22" style="stroke-miterlimit: 1; vector-effect: none; fill: none; stroke: rgb(0, 0, 0); stroke-opacity: 1; stroke-width: 0.5px;"/><path class="openline" d="M227.11,0Q227.31,4.11 227.52,6.16C227.73,8.22 228.06,10.49 228.39,12.33C228.66,13.84 229.05,15.3 229.29,16.43C229.46,17.23 229.5,17.62 229.71,18.49C230.08,20 230.8,22.61 231.46,24.65C232.13,26.72 232.95,28.92 233.73,30.82C234.42,32.49 235.34,34.32 235.84,35.45C236.13,36.1 236.19,36.31 236.51,36.98C237.17,38.35 238.7,41.3 239.76,43.14C240.65,44.69 241.69,46.19 242.39,47.33C242.87,48.11 243.04,48.48 243.59,49.31C244.58,50.81 247.03,54.23 247.98,55.47C248.4,56.02 248.51,56.11 248.94,56.64C249.82,57.72 251.71,60.3 252.94,61.63C253.85,62.61 254.45,63.18 255.49,64.03C256.91,65.19 259.65,66.98 260.8,67.8C261.36,68.2 261.46,68.3 262.04,68.69C263.36,69.58 267,71.89 268.59,72.82C269.47,73.34 269.86,73.51 270.69,73.96C271.9,74.62 273.5,75.59 275.14,76.43C277.1,77.43 280.23,78.87 281.69,79.49C282.41,79.8 282.63,79.85 283.32,80.12C284.52,80.59 286.47,81.47 288.24,82.11C290.26,82.84 292.6,83.61 294.8,84.24C296.97,84.86 299.75,85.53 301.35,85.88C302.27,86.08 302.69,86.13 303.54,86.29C304.75,86.52 306.29,86.88 307.9,87.13C309.86,87.44 312.26,87.75 314.45,87.95Q316.63,88.15 321,88.34" style="stroke-miterlimit: 1; vector-effect: none; fill: none; stroke: rgb(0, 0, 0); stroke-opacity: 1; stroke-width: 0.5px;"/></g><g class="contourlevel"><path class="openline" d="M58.74,302Q58.47,297.89 58.19,295.84C57.91,293.78 57.53,291.71 57.06,289.67C56.58,287.6 56.01,285.55 55.32,283.51C54.62,281.44 53.41,278.51 52.89,277.35C52.68,276.88 52.63,276.84 52.41,276.39C51.9,275.35 50.89,272.97 49.9,271.18C48.78,269.15 47.6,266.85 45.975,264.865C44.19,262.69 41.77,260.42 39.47,258.75C37.34,257.2 34.91,256.11 32.76,255.06C30.85,254.13 28.33,253.17 27.22,252.69C26.74,252.48 26.69,252.43 26.2,252.24C24.97,251.75 21.85,250.61 19.65,249.95C17.48,249.3 15.29,248.76 13.1,248.31C10.93,247.86 8.74,247.52 6.55,247.26Q4.37,247 0,246.74" style="stroke-miterlimit: 1; vector-effect: none; fill: none; stroke: rgb(0, 0, 0); stroke-opacity: 1; stroke-width: 0.5px;"/><path class="openline" d="M213.39,0Q213.59,4.11 213.8,6.16C214.01,8.22 214.29,10.26 214.66,12.33C215.04,14.47 215.56,16.71 216.09,18.81C216.59,20.81 217.1,22.69 217.74,24.65C218.4,26.69 219.17,28.79 220,30.82C220.84,32.87 221.78,34.87 222.76999999999998,36.89C223.79,38.97 224.93,41.18 226.06,43.14C227.11,44.95 228.62,47.16 229.29,48.23C229.6,48.72 229.62,48.81 229.95,49.31C230.76,50.53 233.27,54.05 234.37,55.47C234.97,56.25 235.25,56.52 235.84,57.24C236.77,58.37 238.25,60.3 239.41,61.63C240.43,62.8 241.42,63.77 242.39,64.82C243.32,65.83 244.11,66.78 245.12,67.8C246.27,68.96 247.71,70.31 248.94,71.39C250.03,72.34 251.03,73.08 252.1,73.96C253.21,74.87 254.25,75.81 255.49,76.76C256.91,77.85 258.95,79.24 260.16,80.12C260.93,80.68 261.21,80.93 262.04,81.5C263.55,82.53 267.3,84.89 268.59,85.66C269.12,85.97 269.21,86 269.73,86.29C270.87,86.92 273.22,88.34 275.14,89.32C277.22,90.39 279.57,91.45 281.78499999999997,92.41499999999999C283.94,93.35 286.07,94.23 288.24,95.02C290.4,95.81 292.63,96.52 294.8,97.14C296.89,97.74 298.88,98.22 301.01,98.7C303.24,99.2 305.63,99.69 307.9,100.05C310.1,100.4 312.26,100.66 314.45,100.86Q316.63,101.06 321,101.24" style="stroke-miterlimit: 1; vector-effect: none; fill: none; stroke: rgb(0, 0, 0); stroke-opacity: 1; stroke-width: 0.5px;"/></g><g class="contourlevel"><path class="openline" d="M70.49,302Q70.21,297.89 69.93,295.84C69.65,293.78 69.27,291.71 68.79,289.67C68.31,287.6 67.64,285.31 67.03,283.51C66.54,282.06 65.94,280.78 65.51,279.66C65.18,278.79 65.05,278.29 64.64,277.35C63.96,275.78 62.67,273.03 61.65,271.18C60.77,269.58 59.65,267.98 58.96,266.84C58.51,266.11 58.39,265.79 57.88,265.02C56.91,263.56 54.31,260.06 53.35,258.86C52.93,258.34 52.87,258.26 52.41,257.79C51.36,256.71 48.14,253.67 46.99,252.69C46.49,252.26 46.4,252.2 45.86,251.81C44.59,250.9 40.86,248.46 39.31,247.55C38.49,247.07 38.16,246.95 37.38,246.53C36.17,245.88 34.46,244.83 32.76,244C30.79,243.04 27.87,241.81 26.2,241.18C25.19,240.8 24.66,240.68 23.74,240.37C22.55,239.97 21.18,239.4 19.65,238.94C17.73,238.36 15.29,237.74 13.1,237.28C10.93,236.83 8.74,236.48 6.55,236.21Q4.37,235.94 0,235.68" style="stroke-miterlimit: 1; vector-effect: none; fill: none; stroke: rgb(0, 0, 0); stroke-opacity: 1; stroke-width: 0.5px;"/><path class="openline" d="M197.78,0Q197.97,4.11 198.17,6.16C198.37,8.22 198.65,10.28 199,12.33C199.36,14.39 199.79,16.45 200.3,18.49C200.81,20.55 201.54,23.03 202.08,24.65C202.44,25.73 202.73,26.38 203.08,27.33C203.48,28.42 203.8,29.5 204.33,30.82C205.04,32.6 206.14,35.08 207.08,36.98C207.91,38.67 209.03,40.56 209.63,41.68C209.96,42.3 210.03,42.49 210.4,43.14C211.18,44.5 213.16,47.7 214.25,49.31C214.98,50.39 215.49,51 216.18,51.94C216.97,53.03 217.75,54.22 218.72,55.47C219.88,56.97 221.8,59.16 222.73,60.27C223.22,60.86 223.33,61.03 223.86,61.63C225.01,62.93 227.51,65.61 229.49,67.58C231.56,69.65 233.86,71.71 236.04000000000002,73.76499999999999C238.22,75.82 240.41,77.88 242.595,79.93C244.78,81.99 246.97,84.15 249.17000000000002,86.1C251.27,87.96 254.11,90.31 255.49,91.39C256.13,91.89 256.31,91.99 256.94,92.45C258.12,93.32 260.45,95.14 262.04,96.23C263.37,97.14 264.63,97.87 265.79,98.61C266.79,99.25 267.45,99.74 268.59,100.43C270.3,101.46 273.7,103.32 275.14,104.05C275.83,104.4 276.03,104.46 276.69,104.78C277.88,105.35 279.9,106.4 281.69,107.18C283.71,108.06 286.36,109.09 288.24,109.76C289.64,110.26 290.8,110.57 291.95,110.94C292.96,111.27 293.65,111.54 294.8,111.88C296.53,112.39 299.16,113.08 301.35,113.56C303.53,114.04 305.71,114.45 307.9,114.78C310.08,115.11 312.26,115.37 314.45,115.56Q316.63,115.75 321,115.93" style="stroke-miterlimit: 1; vector-effect: none; fill: none; stroke: rgb(0, 0, 0); stroke-opacity: 1; stroke-width: 0.5px;"/></g><g class="contourlevel"><path class="openline" d="M84.33,302Q84.06,297.89 83.78,295.84C83.5,293.78 83.12,291.71 82.65,289.67C82.17,287.6 81.59,285.53 80.91,283.51C80.23,281.48 79.43,279.53 78.55,277.515C77.64,275.42 76.64,273.22 75.52,271.18C74.41,269.15 73.21,267.28 71.89,265.30499999999995C70.47,263.18 68.43,260.36 67.23,258.86C66.54,258 66.19,257.69 65.51,256.92C64.51,255.78 63.02,253.93 61.84,252.69C60.85,251.65 59.98,250.9 58.96,249.93C57.83,248.85 56.49,247.6 55.35,246.53C54.32,245.57 53.52,244.75 52.41,243.82C51.09,242.71 49.13,241.31 47.92,240.37C47.1,239.73 46.77,239.39 45.86,238.75C44.26,237.61 41.26,235.7 39.005,234.365C36.9,233.12 34.91,231.99 32.76,230.95C30.58,229.9 28.25,228.96 26.025,228.1C23.88,227.28 21.8,226.52 19.65,225.88C17.5,225.24 15.29,224.69 13.1,224.24C10.93,223.79 8.74,223.44 6.55,223.18Q4.37,222.92 0,222.66" style="stroke-miterlimit: 1; vector-effect: none; fill: none; stroke: rgb(0, 0, 0); stroke-opacity: 1; stroke-width: 0.5px;"/><path class="openline" d="M179.63,0Q179.82,4.11 180.02,6.16C180.22,8.22 180.49,10.28 180.84,12.33C181.19,14.39 181.66,16.6 182.13,18.49C182.53,20.12 183.11,21.88 183.43,23.01C183.62,23.69 183.66,23.93 183.88,24.65C184.32,26.05 185.26,28.78 186.07,30.82C186.9,32.89 188.06,35.46 188.81,36.98C189.26,37.9 189.54,38.32 189.98,39.16C190.58,40.29 191.23,41.69 192.06,43.14C193.12,44.99 195.19,48.22 195.93,49.31C196.21,49.72 196.24,49.74 196.53,50.13C197.26,51.13 199.16,53.93 200.36,55.47C201.32,56.7 202.2,57.65 203.08,58.7C203.91,59.7 204.57,60.58 205.51,61.63C206.68,62.95 208.54,64.8 209.63,65.94C210.34,66.69 210.65,67.06 211.4,67.8C212.59,68.97 214.95,71.06 216.18,72.2C216.96,72.92 217.29,73.28 218.08,73.96C219.28,75 221.36,76.64 222.73,77.76C223.81,78.64 224.59,79.32 225.62,80.12C226.76,81 228.09,81.8 229.29,82.79C230.56,83.84 231.89,85.09 233.01,86.29C234.06,87.41 234.91,88.66 235.84,89.73C236.69,90.7 237.41,91.44 238.35,92.45C239.54,93.74 241.29,95.71 242.39,96.83C243.12,97.57 243.49,97.88 244.25,98.61C245.46,99.77 247.69,101.99 248.94,103.11C249.73,103.82 250.12,104.11 250.92,104.78C252.13,105.8 254.1,107.55 255.49,108.65C256.61,109.53 257.54,110.15 258.6,110.94C259.72,111.77 260.73,112.6 262.04,113.5C263.68,114.63 266.64,116.42 267.71,117.1C268.13,117.37 268.15,117.41 268.59,117.67C269.76,118.37 273.18,120.31 275.14,121.31C276.69,122.1 278.17,122.71 279.37,123.27C280.26,123.69 280.71,123.95 281.69,124.37C283.31,125.07 286.04,126.17 288.24,126.95C290.41,127.72 293.31,128.58 294.8,129C295.56,129.21 295.82,129.25 296.55,129.43C297.76,129.73 299.62,130.27 301.35,130.65C303.36,131.09 305.71,131.53 307.9,131.86C310.08,132.19 312.26,132.45 314.45,132.64Q316.63,132.83 321,133" style="stroke-miterlimit: 1; vector-effect: none; fill: none; stroke: rgb(0, 0, 0); stroke-opacity: 1; stroke-width: 0.5px;"/></g><g class="contourlevel"><path class="openline" d="M101.37,302Q101.09,297.89 100.8,295.84C100.51,293.78 100.09,291.58 99.63,289.67C99.23,287.99 98.59,286.1 98.27,284.98C98.09,284.35 98.07,284.16 97.86,283.51C97.42,282.16 96.44,279.38 95.56,277.35C94.66,275.27 93.2,272.44 92.49,271.18C92.16,270.6 92.05,270.49 91.71,269.94C91.04,268.85 89.85,266.62 88.77,265.02C87.67,263.38 85.98,261.32 85.16,260.21C84.73,259.62 84.66,259.46 84.18,258.86C83.11,257.53 80.61,254.69 78.64500000000001,252.66C76.6,250.55 74.35,248.42 72.13499999999999,246.47C69.97,244.57 66.62,242.08 65.51,241.1C65.12,240.76 65.11,240.74 64.74,240.37C63.71,239.32 61.04,236.16 59.025000000000006,234.13C56.95,232.04 54.68,229.92 52.44499999999999,228.01C50.29,226.16 47.27,223.82 45.86,222.81C45.22,222.35 45.05,222.29 44.42,221.88C43.24,221.1 41.05,219.52 39.31,218.48C37.6,217.46 35.24,216.34 34.08,215.71C33.49,215.39 33.38,215.29 32.76,214.99C31.41,214.33 28.41,212.95 26.2,212.1C24.04,211.27 21.09,210.34 19.65,209.93C18.96,209.73 18.76,209.72 18.09,209.55C16.9,209.25 14.88,208.65 13.1,208.27C11.07,207.84 8.74,207.44 6.55,207.17Q4.37,206.9 0,206.63" style="stroke-miterlimit: 1; vector-effect: none; fill: none; stroke: rgb(0, 0, 0); stroke-opacity: 1; stroke-width: 0.5px;"/><path class="openline" d="M158.06,0Q158.25,4.11 158.44,6.16C158.64,8.22 158.9,10.28 159.23,12.33C159.57,14.39 159.97,16.45 160.45,18.49C160.93,20.55 161.54,22.75 162.13,24.65C162.65,26.32 163.39,28.17 163.78,29.3C164,29.94 164.04,30.15 164.29,30.82C164.81,32.19 165.92,34.93 166.89,36.98C167.89,39.1 169.06,41.26 170.215,43.325C171.36,45.37 172.61,47.5 173.8,49.31C174.83,50.88 176.07,52.46 176.88,53.6C177.41,54.35 177.59,54.68 178.2,55.47C179.34,56.96 181.56,59.66 183.37,61.695C185.21,63.77 188.08,66.75 189.15,67.8C189.54,68.18 189.58,68.18 189.98,68.55C191.09,69.56 194.03,72.36 196.20999999999998,74.215C198.48,76.15 201.01,78.16 203.34,79.91499999999999C205.48,81.53 207.96,83.22 209.63,84.39C210.72,85.16 211.36,85.63 212.35,86.29C213.51,87.06 214.74,87.78 216.18,88.68C218.03,89.83 220.76,90.97 222.53,92.64C224.28,94.29 225.51,96.87 226.74,98.61C227.7,99.96 228.48,101.13 229.29,102.22C229.99,103.16 230.48,103.75 231.3,104.78C232.55,106.35 234.35,108.69 236.06,110.695C237.93,112.89 240.07,115.27 242.115,117.4C244.09,119.45 247.05,122.23 248.13,123.27C248.52,123.65 248.53,123.68 248.94,124.04C250.06,125.04 253.22,127.75 255.425,129.485C257.59,131.19 260.46,133.28 262.04,134.35C262.88,134.92 263.23,135.09 264.03,135.59C265.24,136.35 266.92,137.51 268.59,138.48C270.51,139.6 272.78,140.79 274.945,141.865C277.14,142.96 279.44,144.04 281.69,144.98C283.87,145.89 286.78,146.94 288.24,147.43C288.96,147.67 289.17,147.71 289.86,147.92C291.06,148.29 293.03,148.97 294.8,149.46C296.82,150.02 299.16,150.59 301.35,151.05C303.53,151.5 305.71,151.88 307.9,152.2C310.08,152.51 312.26,152.76 314.45,152.94Q316.63,153.12 321,153.3" style="stroke-miterlimit: 1; vector-effect: none; fill: none; stroke: rgb(0, 0, 0); stroke-opacity: 1; stroke-width: 0.5px;"/></g><g class="contourlevel"><path class="openline" d="M123.49,302Q123.2,297.89 122.92,295.84C122.64,293.78 122.26,291.72 121.79,289.67C121.31,287.6 120.74,285.52 120.07,283.51C119.41,281.52 118.65,279.67 117.795,277.685C116.88,275.56 115.85,273.25 114.72,271.18C113.62,269.16 112.46,267.36 111.14,265.4C109.7,263.26 107.54,260.31 106.36,258.86C105.73,258.09 105.45,257.86 104.82,257.16C103.8,256.02 102.05,253.92 100.84,252.69C99.91,251.75 99.22,251.2 98.27,250.31C97.07,249.2 95.42,247.56 94.21,246.53C93.29,245.75 92.7,245.35 91.71,244.58C90.25,243.44 87.44,241.2 86.3,240.37C85.79,240 85.7,239.97 85.16,239.61C83.87,238.76 80.06,236.23 78.61,235.27C77.89,234.79 77.65,234.72 76.99,234.2C75.76,233.23 73.1,230.73 72.06,229.57C71.51,228.95 71.43,228.72 70.92,228.04C69.9,226.67 67.21,223.09 66.31,221.88C65.93,221.38 65.9,221.29 65.51,220.81C64.64,219.73 62.25,217.08 61.04,215.71C60.22,214.78 59.79,214.23 58.96,213.37C57.86,212.23 56.12,210.68 54.94,209.55C54,208.65 53.41,208 52.41,207.13C51.1,205.99 48.86,204.35 47.66,203.39C46.92,202.8 46.68,202.53 45.86,201.94C44.32,200.82 41.18,198.79 38.905,197.435C36.82,196.19 34.9,195.1 32.76,194.07C30.55,193.01 28.1,192.03 25.845,191.175C23.74,190.37 21.76,189.66 19.65,189.04C17.51,188.41 15.29,187.86 13.1,187.41C10.93,186.97 8.74,186.63 6.55,186.36Q4.37,186.1 0,185.82" style="stroke-miterlimit: 1; vector-effect: none; fill: none; stroke: rgb(0, 0, 0); stroke-opacity: 1; stroke-width: 0.5px;"/><path class="openline" d="M131.19,0Q131.39,4.11 131.58,6.16C131.77,8.22 132.01,10.28 132.33,12.33C132.65,14.39 133.03,16.44 133.48,18.49C133.93,20.55 134.45,22.61 135.04,24.65C135.64,26.72 136.61,29.55 137.07,30.82C137.28,31.4 137.35,31.51 137.57,32.06C138,33.16 138.74,35.26 139.49,36.98C140.34,38.93 141.58,41.48 142.45,43.14C143.06,44.31 143.55,45.06 144.12,46.06C144.72,47.11 145.17,48.06 145.95,49.31C147.08,51.13 148.87,53.75 150.385,55.835C151.85,57.85 153.62,60.11 154.9,61.63C155.78,62.67 156.38,63.26 157.22,64.18C158.22,65.28 159.41,66.67 160.53,67.8C161.6,68.88 162.69,69.83 163.78,70.85C164.88,71.88 165.99,72.99 167.11,73.96C168.18,74.89 169.17,75.64 170.33,76.57C171.69,77.66 173.56,79.21 174.78,80.12C175.6,80.73 175.98,80.97 176.88,81.59C178.48,82.7 181.36,84.74 183.59,86.18C185.73,87.56 188.08,88.92 189.98,90.05C191.5,90.95 192.89,91.79 194.09,92.45C195,92.95 195.52,93.2 196.53,93.72C198.18,94.58 201.32,96.2 203.08,97.1C204.27,97.71 205.02,98.11 206.07,98.61C207.2,99.15 208.42,99.43 209.63,100.24C211.2,101.3 213.33,103.28 214.46,104.78C215.31,105.91 215.6,107.07 216.18,108.13C216.72,109.11 217.15,109.82 217.8,110.94C218.76,112.6 220.47,115.54 221.38,117.1C221.94,118.05 222.2,118.54 222.73,119.4C223.44,120.53 224.33,121.84 225.29,123.27C226.49,125.06 227.95,127.27 229.405,129.275C230.93,131.38 233.1,134.08 234.28,135.59C234.94,136.44 235.19,136.8 235.84,137.57C236.81,138.72 238.45,140.48 239.61,141.76C240.6,142.85 241.41,143.78 242.39,144.78C243.43,145.83 244.59,146.88 245.69,147.92C246.78,148.95 247.79,149.97 248.94,150.97C250.15,152.02 251.61,153.13 252.78,154.08C253.76,154.87 254.38,155.44 255.49,156.27C257.11,157.48 259.52,159.13 261.655,160.51C263.88,161.94 266.66,163.63 268.59,164.69C269.92,165.42 270.93,165.85 272.05,166.41C273.11,166.94 273.91,167.41 275.14,167.98C276.91,168.8 279.62,169.96 281.69,170.76C283.52,171.46 285.75,172.16 286.92,172.57C287.51,172.78 287.63,172.84 288.24,173.04C289.59,173.48 292.61,174.38 294.8,174.95C296.98,175.51 299.16,175.99 301.35,176.42C303.53,176.84 305.71,177.2 307.9,177.5C310.08,177.8 312.26,178.03 314.45,178.21Q316.63,178.39 321,178.57" style="stroke-miterlimit: 1; vector-effect: none; fill: none; stroke: rgb(0, 0, 0); stroke-opacity: 1; stroke-width: 0.5px;"/></g><g class="contourlevel"><path class="openline" d="M156.25,302Q155.92,297.89 155.64,295.84C155.35,293.78 155,291.72 154.54,289.67C154.08,287.61 153.53,285.54 152.88,283.51C152.23,281.47 151.46,279.5 150.625,277.485C149.76,275.39 148.86,273.23 147.78,271.18C146.68,269.1 145.42,267.1 144.085,265.08C142.7,262.99 140.85,260.39 139.61,258.86C138.83,257.9 138.34,257.47 137.57,256.62C136.55,255.49 135.21,253.85 134.05,252.69C133.03,251.67 132.09,250.92 131.02,249.96C129.82,248.88 128.41,247.5 127.22,246.53C126.25,245.74 125.55,245.29 124.47,244.49C122.93,243.35 119.92,241.1 118.83,240.37C118.41,240.08 118.36,240.08 117.92,239.81C116.73,239.08 113.06,236.81 111.37,235.78C110.3,235.13 109.73,234.74 108.76,234.2C107.59,233.55 106.3,232.93 104.82,232.18C102.91,231.22 99.75,229.65 98.27,228.91C97.51,228.53 97.27,228.38 96.54,228.04C95.34,227.48 93.44,226.69 91.71,225.95C89.69,225.09 86.5,224.07 85.16,223.2C84.46,222.75 84.24,222.55 83.76,221.88C82.85,220.63 81.74,217.61 80.83,215.71C80.04,214.08 79.2,212.31 78.61,211.18C78.25,210.49 78.1,210.27 77.69,209.55C76.9,208.16 75.24,205.18 74.21,203.39C73.41,201.99 72.75,200.78 72.06,199.68C71.49,198.76 71.08,198.22 70.39,197.22C69.3,195.63 66.89,192.18 66.11,191.06C65.82,190.64 65.81,190.6 65.51,190.2C64.73,189.18 62.34,186.35 61.13,184.9C60.28,183.88 59.8,183.22 58.96,182.31C57.92,181.19 56.46,179.86 55.31,178.73C54.29,177.73 53.49,176.84 52.41,175.88C51.17,174.79 49.43,173.53 48.24,172.57C47.33,171.85 46.88,171.38 45.86,170.65C44.23,169.48 41.46,167.74 39.245000000000005,166.44C37.1,165.18 34.97,164 32.76,162.97C30.57,161.95 28.28,161.1 26.055,160.29000000000002C23.91,159.51 21.81,158.78 19.65,158.17C17.49,157.56 15.29,157.04 13.1,156.61C10.92,156.18 8.74,155.84 6.55,155.57Q4.37,155.3 0,154.99" style="stroke-miterlimit: 1; vector-effect: none; fill: none; stroke: rgb(0, 0, 0); stroke-opacity: 1; stroke-width: 0.5px;"/><path class="openline" d="M94.22,0Q94.47,4.11 94.67,6.16C94.87,8.22 95.12,10.28 95.42,12.33C95.72,14.39 96.07,16.44 96.48,18.49C96.89,20.55 97.57,23.36 97.9,24.65C98.05,25.24 98.11,25.37 98.27,25.94C98.58,27.04 99.07,29.11 99.59,30.82C100.18,32.76 100.9,34.94 101.66,36.98C102.43,39.05 103.63,41.86 104.2,43.14C104.46,43.73 104.55,43.85 104.82,44.42C105.35,45.52 106.23,47.6 107.12,49.31C108.14,51.26 109.91,54.26 110.65,55.47C110.97,55.99 111.04,56.06 111.37,56.56C112.08,57.63 113.58,60.06 114.72,61.63C115.77,63.08 117.02,64.55 117.92,65.68C118.57,66.5 118.87,66.96 119.6,67.8C120.78,69.17 123.47,71.92 124.47,72.97C124.91,73.43 124.96,73.52 125.42,73.96C126.5,75 129.79,77.87 131.02,78.95C131.62,79.48 131.76,79.63 132.37,80.12C133.53,81.05 136.04,82.87 137.57,83.99C138.77,84.86 139.7,85.56 140.8,86.29C141.89,87.01 142.81,87.56 144.12,88.34C145.98,89.46 148.69,91.08 150.93,92.30000000000001C153.05,93.46 155.09,94.46 157.22,95.5C159.39,96.56 161.63,97.61 163.82999999999998,98.58500000000001C166,99.54 168.15,100.42 170.33,101.3C172.5,102.18 175.24,103.22 176.88,103.86C177.86,104.24 178.34,104.45 179.24,104.78C180.43,105.22 181.88,105.7 183.43,106.23C185.37,106.89 187.79,107.72 189.98,108.45C192.16,109.17 195.27,110.16 196.53,110.58C197.04,110.75 197.15,110.67 197.6,110.94C198.77,111.64 202.34,114.99 203.08,116.1C203.36,116.52 203.28,116.62 203.46,117.1C203.9,118.28 204.96,121.22 205.73,123.27C206.5,125.33 207.38,127.61 208.09,129.43C208.66,130.89 209.16,132.25 209.63,133.37C209.98,134.22 210.2,134.66 210.61,135.59C211.29,137.13 212.4,139.71 213.33,141.76C214.26,143.81 215.19,145.84 216.21,147.87C217.25,149.94 218.37,152.04 219.49,154.08C220.6,156.09 221.66,158.01 222.89,160C224.19,162.11 225.92,164.66 227.11,166.41C227.95,167.64 228.53,168.51 229.29,169.53C230.06,170.56 230.8,171.44 231.72,172.57C232.91,174.01 234.85,176.37 235.84,177.46C236.36,178.03 236.52,178.17 237.08,178.73C238.23,179.89 241.29,182.98 242.39,184C242.86,184.44 242.95,184.49 243.44,184.9C244.55,185.84 247.49,188.37 248.94,189.48C249.84,190.17 250.32,190.45 251.19,191.06C252.39,191.9 253.95,193.09 255.49,194.07C257.17,195.14 259.75,196.55 260.89,197.22C261.42,197.53 261.49,197.6 262.04,197.9C263.32,198.6 266.52,200.26 268.59,201.22C270.41,202.06 272.62,202.89 273.79,203.39C274.39,203.64 274.52,203.72 275.14,203.97C276.5,204.51 279.5,205.64 281.69,206.36C283.86,207.08 286.18,207.75 288.24,208.3C290.06,208.79 292.26,209.26 293.43,209.55C294.03,209.7 294.17,209.76 294.8,209.9C296.17,210.21 299.16,210.84 301.35,211.23C303.53,211.62 305.71,211.94 307.9,212.23C310.08,212.51 312.26,212.75 314.45,212.94Q316.63,213.13 321,213.35" style="stroke-miterlimit: 1; vector-effect: none; fill: none; stroke: rgb(0, 0, 0); stroke-opacity: 1; stroke-width: 0.5px;"/></g></g><g class="contourlabels"><text data-notex="1" text-anchor="middle" x="277.76227024726967" y="60.31244802802891" transform="rotate(24.094687056960748 277.76227024726967 60.31244802802891)" style="white-space: pre; font-family: arial; font-size: 12px; fill: rgb(0, 0, 0); fill-opacity: 1;">0.6</text><text data-notex="1" text-anchor="middle" x="239.43529051996953" y="23.57467261359048" transform="rotate(73.34980039203387 239.43529051996953 23.57467261359048)" style="white-space: pre; font-family: arial; font-size: 12px; fill: rgb(0, 0, 0); fill-opacity: 1;">0.65</text><text data-notex="1" text-anchor="middle" x="304.03866965219163" y="90.37446769538847" transform="rotate(10.60919166793625 304.03866965219163 90.37446769538847)" style="white-space: pre; font-family: arial; font-size: 12px; fill: rgb(0, 0, 0); fill-opacity: 1;">0.7</text><text data-notex="1" text-anchor="middle" x="214.72012841593008" y="27.397901227328177" transform="rotate(70.91089719192085 214.72012841593008 27.397901227328177)" style="white-space: pre; font-family: arial; font-size: 12px; fill: rgb(0, 0, 0); fill-opacity: 1;">0.75</text><text data-notex="1" text-anchor="middle" x="30.94569078611363" y="247.73780704987635" transform="rotate(25.662347944128435 30.94569078611363 247.73780704987635)" style="white-space: pre; font-family: arial; font-size: 12px; fill: rgb(0, 0, 0); fill-opacity: 1;">0.8</text><text data-notex="1" text-anchor="middle" x="300.5056764239024" y="117.34102230751091" transform="rotate(12.564702196622346 300.5056764239024 117.34102230751091)" style="white-space: pre; font-family: arial; font-size: 12px; fill: rgb(0, 0, 0); fill-opacity: 1;">0.8</text><text data-notex="1" text-anchor="middle" x="73.98403679037796" y="277.8160889462618" transform="rotate(65.28415484295178 73.98403679037796 277.8160889462618)" style="white-space: pre; font-family: arial; font-size: 12px; fill: rgb(0, 0, 0); fill-opacity: 1;">0.85</text><text data-notex="1" text-anchor="middle" x="182.63937451437002" y="32.315302628364584" transform="rotate(68.17105991554955 182.63937451437002 32.315302628364584)" style="white-space: pre; font-family: arial; font-size: 12px; fill: rgb(0, 0, 0); fill-opacity: 1;">0.85</text><text data-notex="1" text-anchor="middle" x="19.678184336495526" y="214.2549919350358" transform="rotate(17.240364289661986 19.678184336495526 214.2549919350358)" style="white-space: pre; font-family: arial; font-size: 12px; fill: rgb(0, 0, 0); fill-opacity: 1;">0.9</text><text data-notex="1" text-anchor="middle" x="295.42298914746596" y="153.65135770911087" transform="rotate(14.496696624576913 295.42298914746596 153.65135770911087)" style="white-space: pre; font-family: arial; font-size: 12px; fill: rgb(0, 0, 0); fill-opacity: 1;">0.9</text><text data-notex="1" text-anchor="middle" x="109.6867872128749" y="271.0804511028101" transform="rotate(59.56931741791485 109.6867872128749 271.0804511028101)" style="white-space: pre; font-family: arial; font-size: 12px; fill: rgb(0, 0, 0); fill-opacity: 1;">0.95</text><text data-notex="1" text-anchor="middle" x="135.94667910174277" y="38.247598847398685" transform="rotate(66.4091627167008 135.94667910174277 38.247598847398685)" style="white-space: pre; font-family: arial; font-size: 12px; fill: rgb(0, 0, 0); fill-opacity: 1;">0.95</text><text data-notex="1" text-anchor="middle" x="14.863988083618295" y="161.09724452259786" transform="rotate(12.958559685819106 14.863988083618295 161.09724452259786)" style="white-space: pre; font-family: arial; font-size: 12px; fill: rgb(0, 0, 0); fill-opacity: 1;">1</text><text data-notex="1" text-anchor="middle" x="304.02306560859" y="215.70954815648622" transform="rotate(8.678240990821564 304.02306560859 215.70954815648622)" style="white-space: pre; font-family: arial; font-size: 12px; fill: rgb(0, 0, 0); fill-opacity: 1;">1</text></g></g></g></g><g class="overplot"/><path class="xlines-above crisp" d="M39,312.5H362M39,9.5H362" style="fill: none; stroke-width: 1px; stroke: rgb(36, 36, 36); stroke-opacity: 1;"/><path class="ylines-above crisp" d="M39.5,10V312M361.5,10V312" style="fill: none; stroke-width: 1px; stroke: rgb(36, 36, 36); stroke-opacity: 1;"/><g class="overlines-above"/><g class="xaxislayer-above"><path class="xtick ticks crisp" d="M0,313v5" transform="translate(40,0)" style="stroke: rgb(68, 68, 68); stroke-opacity: 1; stroke-width: 1px;"/><path class="xtick ticks crisp" d="M0,313v5" transform="translate(69.18,0)" style="stroke: rgb(68, 68, 68); stroke-opacity: 1; stroke-width: 1px;"/><path class="xtick ticks crisp" d="M0,313v5" transform="translate(98.36,0)" style="stroke: rgb(68, 68, 68); stroke-opacity: 1; stroke-width: 1px;"/><path class="xtick ticks crisp" d="M0,313v5" transform="translate(127.55,0)" style="stroke: rgb(68, 68, 68); stroke-opacity: 1; stroke-width: 1px;"/><path class="xtick ticks crisp" d="M0,313v5" transform="translate(156.73000000000002,0)" style="stroke: rgb(68, 68, 68); stroke-opacity: 1; stroke-width: 1px;"/><path class="xtick ticks crisp" d="M0,313v5" transform="translate(185.91,0)" style="stroke: rgb(68, 68, 68); stroke-opacity: 1; stroke-width: 1px;"/><path class="xtick ticks crisp" d="M0,313v5" transform="translate(215.09,0)" style="stroke: rgb(68, 68, 68); stroke-opacity: 1; stroke-width: 1px;"/><path class="xtick ticks crisp" d="M0,313v5" transform="translate(244.27,0)" style="stroke: rgb(68, 68, 68); stroke-opacity: 1; stroke-width: 1px;"/><path class="xtick ticks crisp" d="M0,313v5" transform="translate(273.45,0)" style="stroke: rgb(68, 68, 68); stroke-opacity: 1; stroke-width: 1px;"/><path class="xtick ticks crisp" d="M0,313v5" transform="translate(302.64,0)" style="stroke: rgb(68, 68, 68); stroke-opacity: 1; stroke-width: 1px;"/><path class="xtick ticks crisp" d="M0,313v5" transform="translate(331.82,0)" style="stroke: rgb(68, 68, 68); stroke-opacity: 1; stroke-width: 1px;"/><path class="xtick ticks crisp" d="M0,313v5" transform="translate(361,0)" style="stroke: rgb(68, 68, 68); stroke-opacity: 1; stroke-width: 1px;"/><g class="xtick"><text text-anchor="middle" x="0" y="332.4" transform="translate(40,0)" style="font-family: arial; font-size: 12px; fill: rgb(0, 0, 0); fill-opacity: 1; white-space: pre; opacity: 1;">0</text></g><g class="xtick"><text text-anchor="middle" x="0" y="332.4" style="font-family: arial; font-size: 12px; fill: rgb(0, 0, 0); fill-opacity: 1; white-space: pre; opacity: 1;" transform="translate(69.18,0)">0.5</text></g><g class="xtick"><text text-anchor="middle" x="0" y="332.4" style="font-family: arial; font-size: 12px; fill: rgb(0, 0, 0); fill-opacity: 1; white-space: pre; opacity: 1;" transform="translate(98.36,0)">1</text></g><g class="xtick"><text text-anchor="middle" x="0" y="332.4" style="font-family: arial; font-size: 12px; fill: rgb(0, 0, 0); fill-opacity: 1; white-space: pre; opacity: 1;" transform="translate(127.55,0)">1.5</text></g><g class="xtick"><text text-anchor="middle" x="0" y="332.4" style="font-family: arial; font-size: 12px; fill: rgb(0, 0, 0); fill-opacity: 1; white-space: pre; opacity: 1;" transform="translate(156.73000000000002,0)">2</text></g><g class="xtick"><text text-anchor="middle" x="0" y="332.4" style="font-family: arial; font-size: 12px; fill: rgb(0, 0, 0); fill-opacity: 1; white-space: pre; opacity: 1;" transform="translate(185.91,0)">2.5</text></g><g class="xtick"><text text-anchor="middle" x="0" y="332.4" style="font-family: arial; font-size: 12px; fill: rgb(0, 0, 0); fill-opacity: 1; white-space: pre; opacity: 1;" transform="translate(215.09,0)">3</text></g><g class="xtick"><text text-anchor="middle" x="0" y="332.4" style="font-family: arial; font-size: 12px; fill: rgb(0, 0, 0); fill-opacity: 1; white-space: pre; opacity: 1;" transform="translate(244.27,0)">3.5</text></g><g class="xtick"><text text-anchor="middle" x="0" y="332.4" style="font-family: arial; font-size: 12px; fill: rgb(0, 0, 0); fill-opacity: 1; white-space: pre; opacity: 1;" transform="translate(273.45,0)">4</text></g><g class="xtick"><text text-anchor="middle" x="0" y="332.4" style="font-family: arial; font-size: 12px; fill: rgb(0, 0, 0); fill-opacity: 1; white-space: pre; opacity: 1;" transform="translate(302.64,0)">4.5</text></g><g class="xtick"><text text-anchor="middle" x="0" y="332.4" style="font-family: arial; font-size: 12px; fill: rgb(0, 0, 0); fill-opacity: 1; white-space: pre; opacity: 1;" transform="translate(331.82,0)">5</text></g><g class="xtick"><text text-anchor="middle" x="0" y="332.4" style="font-family: arial; font-size: 12px; fill: rgb(0, 0, 0); fill-opacity: 1; white-space: pre; opacity: 1;" transform="translate(361,0)">5.5</text></g></g><g class="yaxislayer-above"><path class="ytick ticks crisp" d="M39,0h-5" transform="translate(0,312)" style="stroke: rgb(68, 68, 68); stroke-opacity: 1; stroke-width: 1px;"/><path class="ytick ticks crisp" d="M39,0h-5" transform="translate(0,278.44)" style="stroke: rgb(68, 68, 68); stroke-opacity: 1; stroke-width: 1px;"/><path class="ytick ticks crisp" d="M39,0h-5" transform="translate(0,244.89)" style="stroke: rgb(68, 68, 68); stroke-opacity: 1; stroke-width: 1px;"/><path class="ytick ticks crisp" d="M39,0h-5" transform="translate(0,211.33)" style="stroke: rgb(68, 68, 68); stroke-opacity: 1; stroke-width: 1px;"/><path class="ytick ticks crisp" d="M39,0h-5" transform="translate(0,177.78)" style="stroke: rgb(68, 68, 68); stroke-opacity: 1; stroke-width: 1px;"/><path class="ytick ticks crisp" d="M39,0h-5" transform="translate(0,144.22)" style="stroke: rgb(68, 68, 68); stroke-opacity: 1; stroke-width: 1px;"/><path class="ytick ticks crisp" d="M39,0h-5" transform="translate(0,110.67)" style="stroke: rgb(68, 68, 68); stroke-opacity: 1; stroke-width: 1px;"/><path class="ytick ticks crisp" d="M39,0h-5" transform="translate(0,77.11)" style="stroke: rgb(68, 68, 68); stroke-opacity: 1; stroke-width: 1px;"/><path class="ytick ticks crisp" d="M39,0h-5" transform="translate(0,43.56)" style="stroke: rgb(68, 68, 68); stroke-opacity: 1; stroke-width: 1px;"/><path class="ytick ticks crisp" d="M39,0h-5" transform="translate(0,10)" style="stroke: rgb(68, 68, 68); stroke-opacity: 1; stroke-width: 1px;"/><g class="ytick"><text text-anchor="end" x="31.6" y="4.199999999999999" transform="translate(0,312)" style="font-family: arial; font-size: 12px; fill: rgb(0, 0, 0); fill-opacity: 1; white-space: pre; opacity: 1;">0</text></g><g class="ytick"><text text-anchor="end" x="31.6" y="4.199999999999999" style="font-family: arial; font-size: 12px; fill: rgb(0, 0, 0); fill-opacity: 1; white-space: pre; opacity: 1;" transform="translate(0,278.44)">5</text></g><g class="ytick"><text text-anchor="end" x="31.6" y="4.199999999999999" style="font-family: arial; font-size: 12px; fill: rgb(0, 0, 0); fill-opacity: 1; white-space: pre; opacity: 1;" transform="translate(0,244.89)">10</text></g><g class="ytick"><text text-anchor="end" x="31.6" y="4.199999999999999" style="font-family: arial; font-size: 12px; fill: rgb(0, 0, 0); fill-opacity: 1; white-space: pre; opacity: 1;" transform="translate(0,211.33)">15</text></g><g class="ytick"><text text-anchor="end" x="31.6" y="4.199999999999999" style="font-family: arial; font-size: 12px; fill: rgb(0, 0, 0); fill-opacity: 1; white-space: pre; opacity: 1;" transform="translate(0,177.78)">20</text></g><g class="ytick"><text text-anchor="end" x="31.6" y="4.199999999999999" style="font-family: arial; font-size: 12px; fill: rgb(0, 0, 0); fill-opacity: 1; white-space: pre; opacity: 1;" transform="translate(0,144.22)">25</text></g><g class="ytick"><text text-anchor="end" x="31.6" y="4.199999999999999" style="font-family: arial; font-size: 12px; fill: rgb(0, 0, 0); fill-opacity: 1; white-space: pre; opacity: 1;" transform="translate(0,110.67)">30</text></g><g class="ytick"><text text-anchor="end" x="31.6" y="4.199999999999999" style="font-family: arial; font-size: 12px; fill: rgb(0, 0, 0); fill-opacity: 1; white-space: pre; opacity: 1;" transform="translate(0,77.11)">35</text></g><g class="ytick"><text text-anchor="end" x="31.6" y="4.199999999999999" style="font-family: arial; font-size: 12px; fill: rgb(0, 0, 0); fill-opacity: 1; white-space: pre; opacity: 1;" transform="translate(0,43.56)">40</text></g><g class="ytick"><text text-anchor="end" x="31.6" y="4.199999999999999" style="font-family: arial; font-size: 12px; fill: rgb(0, 0, 0); fill-opacity: 1; white-space: pre; opacity: 1;" transform="translate(0,10)">45</text></g></g><g class="overaxes-above"/></g></g><g class="polarlayer"/><g class="smithlayer"/><g class="ternarylayer"/><g class="geolayer"/><g class="funnelarealayer"/><g class="pielayer"/><g class="iciclelayer"/><g class="treemaplayer"/><g class="sunburstlayer"/><g class="glimages"/><defs id="topdefs-a06a26"><g class="clips"/></defs><g class="layer-above"><g class="imagelayer"/><g class="shapelayer"/></g><g class="infolayer"><g class="cb43e4b9 colorbar" transform="translate(40,10)"><rect class="cbbg" x="326.5" y="0" width="82.09375" height="303" style="fill: rgb(0, 0, 0); fill-opacity: 0; stroke: rgb(68, 68, 68); stroke-opacity: 1; stroke-width: 0;"/><g class="cbfills" transform="translate(0,33)"><rect class="cbfill" style="" x="337" y="1" width="30" height="258" fill="#440154"/><rect class="cbfill" style="" x="337" y="1" width="30" height="252" fill="#461263"/><rect class="cbfill" style="" x="337" y="1" width="30" height="240" fill="#472273"/><rect class="cbfill" style="" x="337" y="1" width="30" height="227" fill="#45317d"/><rect class="cbfill" style="" x="337" y="1" width="30" height="215" fill="#414084"/><rect class="cbfill" style="" x="337" y="1" width="30" height="203" fill="#3c4d8a"/><rect class="cbfill" style="" x="337" y="1" width="30" height="190" fill="#375b8c"/><rect class="cbfill" style="" x="337" y="1" width="30" height="178" fill="#31688e"/><rect class="cbfill" style="" x="337" y="1" width="30" height="166" fill="#2c738e"/><rect class="cbfill" style="" x="337" y="1" width="30" height="153" fill="#287e8e"/><rect class="cbfill" style="" x="337" y="1" width="30" height="141" fill="#248a8d"/><rect class="cbfill" style="" x="337" y="1" width="30" height="129" fill="#21968a"/><rect class="cbfill" style="" x="337" y="1" width="30" height="116" fill="#22a287"/><rect class="cbfill" style="" x="337" y="1" width="30" height="104" fill="#2cac80"/><rect class="cbfill" style="" x="337" y="1" width="30" height="92" fill="#35b779"/><rect class="cbfill" style="" x="337" y="1" width="30" height="79" fill="#4dc16b"/><rect class="cbfill" style="" x="337" y="1" width="30" height="67" fill="#66cb5d"/><rect class="cbfill" style="" x="337" y="1" width="30" height="55" fill="#82d34b"/><rect class="cbfill" style="" x="337" y="1" width="30" height="42" fill="#a1d938"/><rect class="cbfill" style="" x="337" y="1" width="30" height="30" fill="#bfdf2a"/><rect class="cbfill" style="" x="337" y="1" width="30" height="18" fill="#dee328"/><rect class="cbfill" style="" x="337" y="0" width="30" height="6" fill="#fde725"/></g><g class="cblines" transform="translate(0,33)"><path class="cbline" d="M337,253.25h30" style="fill: none; stroke: rgb(0, 0, 0); stroke-opacity: 1; stroke-width: 0.5px;"/><path class="cbline" d="M337,241.25h30" style="fill: none; stroke: rgb(0, 0, 0); stroke-opacity: 1; stroke-width: 0.5px;"/><path class="cbline" d="M337,228.25h30" style="fill: none; stroke: rgb(0, 0, 0); stroke-opacity: 1; stroke-width: 0.5px;"/><path class="cbline" d="M337,216.25h30" style="fill: none; stroke: rgb(0, 0, 0); stroke-opacity: 1; stroke-width: 0.5px;"/><path class="cbline" d="M337,204.25h30" style="fill: none; stroke: rgb(0, 0, 0); stroke-opacity: 1; stroke-width: 0.5px;"/><path class="cbline" d="M337,191.25h30" style="fill: none; stroke: rgb(0, 0, 0); stroke-opacity: 1; stroke-width: 0.5px;"/><path class="cbline" d="M337,179.25h30" style="fill: none; stroke: rgb(0, 0, 0); stroke-opacity: 1; stroke-width: 0.5px;"/><path class="cbline" d="M337,167.25h30" style="fill: none; stroke: rgb(0, 0, 0); stroke-opacity: 1; stroke-width: 0.5px;"/><path class="cbline" d="M337,154.25h30" style="fill: none; stroke: rgb(0, 0, 0); stroke-opacity: 1; stroke-width: 0.5px;"/><path class="cbline" d="M337,142.25h30" style="fill: none; stroke: rgb(0, 0, 0); stroke-opacity: 1; stroke-width: 0.5px;"/><path class="cbline" d="M337,130.25h30" style="fill: none; stroke: rgb(0, 0, 0); stroke-opacity: 1; stroke-width: 0.5px;"/><path class="cbline" d="M337,117.25h30" style="fill: none; stroke: rgb(0, 0, 0); stroke-opacity: 1; stroke-width: 0.5px;"/><path class="cbline" d="M337,105.25h30" style="fill: none; stroke: rgb(0, 0, 0); stroke-opacity: 1; stroke-width: 0.5px;"/><path class="cbline" d="M337,93.25h30" style="fill: none; stroke: rgb(0, 0, 0); stroke-opacity: 1; stroke-width: 0.5px;"/><path class="cbline" d="M337,80.25h30" style="fill: none; stroke: rgb(0, 0, 0); stroke-opacity: 1; stroke-width: 0.5px;"/><path class="cbline" d="M337,68.25h30" style="fill: none; stroke: rgb(0, 0, 0); stroke-opacity: 1; stroke-width: 0.5px;"/><path class="cbline" d="M337,56.25h30" style="fill: none; stroke: rgb(0, 0, 0); stroke-opacity: 1; stroke-width: 0.5px;"/><path class="cbline" d="M337,43.25h30" style="fill: none; stroke: rgb(0, 0, 0); stroke-opacity: 1; stroke-width: 0.5px;"/><path class="cbline" d="M337,31.25h30" style="fill: none; stroke: rgb(0, 0, 0); stroke-opacity: 1; stroke-width: 0.5px;"/><path class="cbline" d="M337,19.25h30" style="fill: none; stroke: rgb(0, 0, 0); stroke-opacity: 1; stroke-width: 0.5px;"/><path class="cbline" d="M337,6.25h30" style="fill: none; stroke: rgb(0, 0, 0); stroke-opacity: 1; stroke-width: 0.5px;"/></g><g class="cbaxis crisp" transform="translate(0,-10)"><path class="ycb43e4b9tick ticks crisp" d="M367,0h5" transform="translate(0,295.833125)" style="stroke: rgb(36, 36, 36); stroke-opacity: 1; stroke-width: 1px;"/><path class="ycb43e4b9tick ticks crisp" d="M367,0h5" transform="translate(0,234.153125)" style="stroke: rgb(36, 36, 36); stroke-opacity: 1; stroke-width: 1px;"/><path class="ycb43e4b9tick ticks crisp" d="M367,0h5" transform="translate(0,172.473125)" style="stroke: rgb(36, 36, 36); stroke-opacity: 1; stroke-width: 1px;"/><path class="ycb43e4b9tick ticks crisp" d="M367,0h5" transform="translate(0,110.803125)" style="stroke: rgb(36, 36, 36); stroke-opacity: 1; stroke-width: 1px;"/><path class="ycb43e4b9tick ticks crisp" d="M367,0h5" transform="translate(0,49.123125)" style="stroke: rgb(36, 36, 36); stroke-opacity: 1; stroke-width: 1px;"/><g class="ycb43e4b9tick"><text text-anchor="start" x="374.4" y="4.199999999999999" transform="translate(0,295.833125)" style="font-family: arial; font-size: 12px; fill: rgb(0, 0, 0); fill-opacity: 1; white-space: pre; opacity: 1;">0</text></g><g class="ycb43e4b9tick"><text text-anchor="start" x="374.4" y="4.199999999999999" style="font-family: arial; font-size: 12px; fill: rgb(0, 0, 0); fill-opacity: 1; white-space: pre; opacity: 1;" transform="translate(0,234.153125)">0.25</text></g><g class="ycb43e4b9tick"><text text-anchor="start" x="374.4" y="4.199999999999999" style="font-family: arial; font-size: 12px; fill: rgb(0, 0, 0); fill-opacity: 1; white-space: pre; opacity: 1;" transform="translate(0,172.473125)">0.5</text></g><g class="ycb43e4b9tick"><text text-anchor="start" x="374.4" y="4.199999999999999" style="font-family: arial; font-size: 12px; fill: rgb(0, 0, 0); fill-opacity: 1; white-space: pre; opacity: 1;" transform="translate(0,110.803125)">0.75</text></g><g class="ycb43e4b9tick"><text text-anchor="start" x="374.4" y="4.199999999999999" style="font-family: arial; font-size: 12px; fill: rgb(0, 0, 0); fill-opacity: 1; white-space: pre; opacity: 1;" transform="translate(0,49.123125)">1</text></g></g><g class="cbtitleunshift" transform="translate(-40,-10)"><g class="cbtitle" transform="translate(-0.5,-0.5)"><text class="ycb43e4b9title" x="377.42" y="33.5" text-anchor="start" style="font-family: arial; font-size: 14px; fill: rgb(0, 0, 0); opacity: 1; font-weight: normal; white-space: pre;">K<tspan style="font-size:70%" dy="0.3em">0,oc</tspan><tspan dy="-0.21em"></tspan></text></g></g><rect class="cboutline" x="337" y="32.953125" width="30" height="259.046875" style="stroke: rgb(68, 68, 68); stroke-opacity: 1; fill: none; stroke-width: 1;"/></g><g class="g-gtitle"/><g class="g-xtitle" transform="translate(0,-2.7062500000000114)"><text class="xtitle" x="200.5" y="349.70625" text-anchor="middle" style="font-family: arial; font-size: 14px; fill: rgb(0, 0, 0); opacity: 1; font-weight: normal; white-space: pre;">OCR, unitless</text></g><g class="g-ytitle" transform="translate(9.0498046875,0)"><text class="ytitle" transform="rotate(-90,3.950000000000003,161)" x="3.950000000000003" y="161" text-anchor="middle" style="font-family: arial; font-size: 14px; fill: rgb(0, 0, 0); opacity: 1; font-weight: normal; white-space: pre;">Effective Friction Angle, deg</text></g></g></svg>