<svg class="main-svg" xmlns="http://www.w3.org/2000/svg" xmlns:xlink="http://www.w3.org/1999/xlink" width="450" height="350" style="" viewBox="0 0 450 350"><rect x="0" y="0" width="450" height="350" style="fill: rgb(255, 255, 255); fill-opacity: 1;"/><defs id="defs-f3fd8d"><g class="clips"><clipPath id="clipf3fd8dxyplot" class="plotclip"><rect width="321" height="302"/></clipPath><clipPath class="axesclip" id="clipf3fd8dx"><rect x="40" y="0" width="321" height="350"/></clipPath><clipPath class="axesclip" id="clipf3fd8dy"><rect x="0" y="10" width="450" height="302"/></clipPath><clipPath class="axesclip" id="clipf3fd8dxy"><rect x="40" y="10" width="321" height="302"/></clipPath><clipPath class="contourlineclip" id="cliplinea75034"><path d="M0,0L321,0L321,302L0,302ZM130.73716522632935,142.98027911356664L125.65127595012224,151.59037378611012L143.7459280353894,162.2786879681391L148.83181731159652,153.66859329559563ZM255.69482484415295,124.0672095553502L253.07858540557942,133.7189084317166L279.8017266695189,140.962621377267L282.41796610809246,131.31092250090057Z"/></clipPath></g><g class="gradients"/><g class="patterns"/></defs><g class="bglayer"/><g class="layer-below"><g class="imagelayer"/><g class="shapelayer"/></g><g class="cartesianlayer"><g class="subplot xy"><g class="layer-subplot"><g class="shapelayer"/><g class="imagelayer"/></g><g class="minor-gridlayer"><g class="x"/><g class="y"/></g><g class="gridlayer"><g class="x"><path class="xgrid crisp" transform="translate(69.18,0)" d="M0,10v302" style="stroke: rgb(232, 232, 232); stroke-opacity: 1; stroke-width: 1px;"/><path class="xgrid crisp" transform="translate(98.36,0)" d="M0,10v302" style="stroke: rgb(232, 232, 232); stroke-opacity: 1; stroke-width: 1px;"/><path class="xgrid crisp" transform="translate(127.55,0)" d="M0,10v302" style="stroke: rgb(232, 232, 232); stroke-opacity: 1; stroke-width: 1px;"/><path class="xgrid crisp" transform="translate(156.73000000000002,0)" d="M0,10v302" style="stroke: rgb(232, 232, 232); stroke-opacity: 1; stroke-width: 1px;"/><path class="xgrid crisp" transform="translate(185.91,0)" d="M0,10v302" style="stroke: rgb(232, 232, 232); stroke-opacity: 1; stroke-width: 1px;"/><path class="xgrid crisp" transform="translate(215.09,0)" d="M0,10v302" style="stroke: rgb(232, 232, 232); stroke-opacity: 1; stroke-width: 1px;"/><path class="xgrid crisp" transform="translate(244.27,0)" d="M0,10v302" style="stroke: rgb(232, 232, 232); stroke-opacity: 1; stroke-width: 1px;"/><path class="xgrid crisp" transform="translate(273.45,0)" d="M0,10v302" style="stroke: rgb(232, 232, 232); stroke-opacity: 1; stroke-width: 1px;"/><path class="xgrid crisp" transform="translate(302.64,0)" d="M0,10v302" style="stroke: rgb(232, 232, 232); stroke-opacity: 1; stroke-width: 1px;"/><path class="xgrid crisp" transform="translate(331.82,0)" d="M0,10v302" style="stroke: rgb(232, 232, 232); stroke-opacity: 1; stroke-width: 1px;"/></g><g class="y"><path class="ygrid crisp" transform="translate(0,278.44)" d="M40,0h321" style="stroke: rgb(232, 232, 232); stroke-opacity: 1; stroke-width: 1px;"/><path class="ygrid crisp" transform="translate(0,244.89)" d="M40,0h321" style="stroke: rgb(232, 232, 232); stroke-opacity: 1; stroke-width: 1px;"/><path class="ygrid crisp" transform="translate(0,211.33)" d="M40,0h321" style="stroke: rgb(232, 232, 232); stroke-opacity: 1; stroke-width: 1px;"/><path class="ygrid crisp" transform="translate(0,177.78)" d="M40,0h321" style="stroke: rgb(232, 232, 232); stroke-opacity: 1; stroke-width: 1px;"/><path class="ygrid crisp" transform="translate(0,144.22)" d="M40,0h321" style="stroke: rgb(232, 232, 232); stroke-opacity: 1; stroke-width: 1px;"/><path class="ygrid crisp" transform="translate(0,110.67)" d="M40,0h321" style="stroke: rgb(232, 232, 232); stroke-opacity: 1; stroke-width: 1px;"/><path class="ygrid crisp" transform="translate(0,77.11)" d="M40,0h321" style="stroke: rgb(232, 232, 232); stroke-opacity: 1; stroke-width: 1px;"/><path class="ygrid crisp" transform="translate(0,43.56)" d="M40,0h321" style="stroke: rgb(232, 232, 232); stroke-opacity: 1; stroke-width: 1px;"/></g></g><g class="zerolinelayer"/><path class="xlines-below"/><path class="ylines-below"/><g class="overlines-below"/><g class="xaxislayer-below"/><g class="yaxislayer-below"/><g class="overaxes-below"/><g class="plot" transform="translate(40,10)" clip-path="url(#clipf3fd8dxyplot)"><g class="contourlayer mlayer"><g class="contour" style="opacity: 1;"><g class="heatmapcoloring"/><g class="contourbg"><path d="M0,0L321,0L321,302L0,302Z" style="stroke: none; fill: rgb(68, 1, 84);"/></g><g class="contourfill"><path d="M0,0L321,0L321,302L0,302Z" style="stroke: none; fill: rgb(70, 18, 99);"/><path d="M0,0L321,0L321,302L0,302Z" style="stroke: none; fill: rgb(71, 34, 115);"/><path d="M0,0L321,0L321,302L0,302Z" style="stroke: none; fill: rgb(69, 49, 125);"/><path d="M0,0L321,0L321,302L0,302Z" style="stroke: none; fill: rgb(65, 64, 132);"/><path d="M0,0L321,0L321,302L0,302Z" style="stroke: none; fill: rgb(60, 77, 138);"/><path d="M0,0L321,0L321,302L0,302Z" style="stroke: none; fill: rgb(55, 91, 140);"/><path d="M0,0L321,0L321,302L0,302Z" style="stroke: none; fill: rgb(49, 104, 142);"/><path d="M0,0L321,0L321,302L0,302Z" style="stroke: none; fill: rgb(44, 115, 142);"/><path d="M0,0L321,0L321,302L0,302Z" style="stroke: none; fill: rgb(40, 126, 142);"/><path d="M0,0L321,0L321,302L0,302Z" style="stroke: none; fill: rgb(36, 138, 141);"/><path d="M0,0L321,0L321,302L0,302Z" style="stroke: none; fill: rgb(33, 150, 138);"/><path d="M0,0L321,0L321,302L0,302Z" style="stroke: none; fill: rgb(34, 162, 135);"/><path d="M0,0L321,0L321,302L0,302Z" style="stroke: none; fill: rgb(44, 172, 128);"/><path d="M0,0L321,0L321,302L0,302Z" style="stroke: none; fill: rgb(53, 183, 121);"/><path d="M0,0L321,0L321,302L0,302Z" style="stroke: none; fill: rgb(77, 193, 107);"/><path d="M0,0L321,0L321,302L0,302Z" style="stroke: none; fill: rgb(102, 203, 93);"/><path d="M0,0L321,0L321,302L0,302Z" style="stroke: none; fill: rgb(130, 211, 75);"/><path d="M0,0L321,0L321,302L0,302Z" style="stroke: none; fill: rgb(161, 217, 56);"/><path d="M224.23,302Q224.17,297.89 224.01,295.84C223.85,293.78 223.52,291.28 223.26,289.67C223.09,288.62 222.92,288.01 222.73,287.08C222.51,285.99 222.35,284.85 222.04,283.51C221.63,281.73 221,279.39 220.37,277.35C219.74,275.28 218.98,273.12 218.25,271.18C217.58,269.41 216.62,267.24 216.18,266.16C215.97,265.65 215.95,265.55 215.73,265.02C215.2,263.78 213.91,260.91 212.91,258.86C211.89,256.77 210.78,254.66 209.69,252.59C208.61,250.55 207.52,248.53 206.39,246.53C205.27,244.54 204.12,242.64 202.93,240.635C201.68,238.53 200.23,236.08 199.06,234.2C198.14,232.72 197.23,231.39 196.53,230.26C196.01,229.42 195.76,228.96 195.19,228.04C194.23,226.49 192.2,223.33 191.24,221.88C190.71,221.08 190.47,220.77 189.98,220.02C189.23,218.88 188.24,217.26 187.23,215.71C186.04,213.88 184.62,211.79 183.29500000000002,209.77C181.92,207.68 180.29,205.16 179.11,203.39C178.26,202.12 177.58,201.19 176.88,200.13C176.22,199.14 175.77,198.37 175.02,197.22C173.92,195.54 171.65,192.16 170.9,191.06C170.63,190.66 170.6,190.64 170.33,190.24C169.65,189.24 167.95,186.6 166.82,184.9C165.78,183.34 164.53,181.58 163.78,180.44C163.32,179.74 163.18,179.47 162.69,178.73C161.76,177.31 159.58,174.03 158.57,172.57C158,171.75 157.74,171.44 157.22,170.67C156.45,169.54 155.44,167.91 154.43,166.41C153.28,164.7 151.48,161.91 150.67,160.96C150.35,160.58 150.31,160.54 149.91,160.24C148.9,159.47 145.94,157.79 144.12,156.71C142.52,155.76 140.79,154.81 139.59,154.08C138.78,153.59 138.44,153.35 137.57,152.82C136.01,151.87 132.53,149.81 131.02,148.94C130.23,148.48 129.95,148.35 129.21,147.92C128,147.21 126.13,146.03 124.47,145.05C122.67,143.98 119.85,142.4 118.79,141.76C118.37,141.51 118.35,141.47 117.92,141.21C116.76,140.5 113.15,138.37 111.37,137.34C110.15,136.64 109.33,136.21 108.27,135.59C107.15,134.93 106.17,134.29 104.82,133.49C102.94,132.37 100.26,130.85 98.035,129.555C95.89,128.3 93.65,126.97 91.71,125.85C90.06,124.9 88.34,123.97 87.13,123.27C86.33,122.8 86.01,122.58 85.16,122.08C83.62,121.18 80.25,119.26 78.61,118.36C77.63,117.82 77.15,117.59 76.25,117.1C75.05,116.44 73.63,115.59 72.06,114.72C70.07,113.62 67.46,112.25 65.225,111.08C63.09,109.96 61.07,108.89 58.96,107.83C56.84,106.77 54.69,105.74 52.519999999999996,104.72C50.32,103.69 48.08,102.65 45.86,101.69C43.68,100.75 40.63,99.53 39.31,99.03C38.75,98.82 38.64,98.8 38.09,98.61C36.94,98.2 34.64,97.29 32.76,96.66C30.7,95.97 28.39,95.27 26.2,94.67C24.02,94.08 21.54,93.49 19.65,93.1C18.22,92.81 17.02,92.66 15.86,92.45C14.87,92.27 14.22,92.11 13.1,91.95C11.38,91.7 8.74,91.4 6.55,91.25Q4.37,91.1 0,91.04L0,0L321,0L321,302ZM0,268.9Q5.39,270.22 6.55,270.69C7,270.87 7.01,270.95 7.44,271.18C8.51,271.75 11.49,273 13.1,274.12C14.5,275.09 15.53,276.29 16.66,277.35C17.71,278.34 18.61,279.28 19.65,280.28C20.75,281.34 21.96,282.48 23.08,283.51C24.14,284.49 25.14,285.34 26.2,286.33C27.33,287.39 28.59,288.35 29.63,289.67C30.81,291.17 32.15,293.99 32.76,295C33,295.4 33.09,295.41 33.28,295.84Q33.78,296.93 35.19,302L0,302Z" style="stroke: none; fill: rgb(191, 223, 42);"/><path d="M0,292.3Q4.84,294.19 6.5649999999999995,295.825Q8.26,297.44 10.31,302L0,302ZM321,139.98Q316.63,139.98 314.45,139.92C312.27,139.86 310.08,139.75 307.9,139.61C305.72,139.47 303.53,139.28 301.35,139.06C299.16,138.83 296.98,138.56 294.8,138.26C292.61,137.95 290.42,137.61 288.24,137.23C286.05,136.85 283.15,136.28 281.69,135.97C280.95,135.81 280.73,135.75 280.03,135.59C278.83,135.32 276.89,134.92 275.14,134.51C273.11,134.03 270.77,133.44 268.59,132.85C266.4,132.26 264.07,131.6 262.04,130.99C260.27,130.46 258.27,129.8 257.07,129.43C256.4,129.22 256.19,129.17 255.49,128.95C254.05,128.49 251.12,127.53 248.94,126.78C246.75,126.03 244.16,125.11 242.39,124.45C241.17,124 240.39,123.67 239.33,123.27C238.21,122.85 237.18,122.5 235.84,121.99C233.99,121.29 231.38,120.27 229.29,119.42C227.36,118.64 224.85,117.55 223.74,117.1C223.27,116.91 223.21,116.9 222.73,116.71C221.5,116.21 218.37,114.89 216.18,113.94C213.97,112.98 211.64,112.37 209.55,110.97999999999999C207.23,109.44 204.69,107.06 203.04000000000002,104.855C201.58,102.9 200.91,100.69 199.89,98.61C198.88,96.56 197.48,93.61 196.95,92.45C196.74,92 196.73,91.94 196.53,91.5C196.05,90.46 194.9,88.11 194.07,86.29C193.17,84.33 192.08,81.86 191.34,80.12C190.8,78.86 190.43,77.89 189.98,76.83C189.56,75.84 189.2,75.1 188.72,73.96C188.02,72.3 187.04,69.86 186.24,67.8C185.44,65.75 184.41,62.98 183.93,61.63C183.7,60.97 183.65,60.78 183.43,60.15C183.04,59.03 182.33,57.14 181.77,55.47C181.13,53.56 180.42,51.37 179.8,49.31C179.18,47.26 178.54,45.05 178.03,43.14C177.59,41.5 177.17,39.68 176.88,38.55C176.71,37.89 176.64,37.68 176.47,36.98C176.14,35.6 175.54,32.88 175.13,30.82C174.73,28.77 174.36,26.71 174.04,24.65C173.72,22.6 173.43,20.55 173.19,18.49C172.95,16.44 172.76,14.39 172.61,12.33C172.46,10.28 172.35,8.22 172.28,6.16Q172.21,4.11 172.21,0L321,0Z" style="stroke: none; fill: rgb(222, 227, 40);"/></g><g class="contourlines" clip-path="url(#cliplinea75034)"><g class="contourlevel"/><g class="contourlevel"/><g class="contourlevel"/><g class="contourlevel"/><g class="contourlevel"/><g class="contourlevel"/><g class="contourlevel"/><g class="contourlevel"/><g class="contourlevel"/><g class="contourlevel"/><g class="contourlevel"/><g class="contourlevel"/><g class="contourlevel"/><g class="contourlevel"/><g class="contourlevel"/><g class="contourlevel"/><g class="contourlevel"/><g class="contourlevel"/><g class="contourlevel"><path class="openline" d="M224.23,302Q224.17,297.89 224.01,295.84C223.85,293.78 223.52,291.28 223.26,289.67C223.09,288.62 222.92,288.01 222.73,287.08C222.51,285.99 222.35,284.85 222.04,283.51C221.63,281.73 221,279.39 220.37,277.35C219.74,275.28 218.98,273.12 218.25,271.18C217.58,269.41 216.62,267.24 216.18,266.16C215.97,265.65 215.95,265.55 215.73,265.02C215.2,263.78 213.91,260.91 212.91,258.86C211.89,256.77 210.78,254.66 209.69,252.59C208.61,250.55 207.52,248.53 206.39,246.53C205.27,244.54 204.12,242.64 202.93,240.635C201.68,238.53 200.23,236.08 199.06,234.2C198.14,232.72 197.23,231.39 196.53,230.26C196.01,229.42 195.76,228.96 195.19,228.04C194.23,226.49 192.2,223.33 191.24,221.88C190.71,221.08 190.47,220.77 189.98,220.02C189.23,218.88 188.24,217.26 187.23,215.71C186.04,213.88 184.62,211.79 183.29500000000002,209.77C181.92,207.68 180.29,205.16 179.11,203.39C178.26,202.12 177.58,201.19 176.88,200.13C176.22,199.14 175.77,198.37 175.02,197.22C173.92,195.54 171.65,192.16 170.9,191.06C170.63,190.66 170.6,190.64 170.33,190.24C169.65,189.24 167.95,186.6 166.82,184.9C165.78,183.34 164.53,181.58 163.78,180.44C163.32,179.74 163.18,179.47 162.69,178.73C161.76,177.31 159.58,174.03 158.57,172.57C158,171.75 157.74,171.44 157.22,170.67C156.45,169.54 155.44,167.91 154.43,166.41C153.28,164.7 151.48,161.91 150.67,160.96C150.35,160.58 150.31,160.54 149.91,160.24C148.9,159.47 145.94,157.79 144.12,156.71C142.52,155.76 140.79,154.81 139.59,154.08C138.78,153.59 138.44,153.35 137.57,152.82C136.01,151.87 132.53,149.81 131.02,148.94C130.23,148.48 129.95,148.35 129.21,147.92C128,147.21 126.13,146.03 124.47,145.05C122.67,143.98 119.85,142.4 118.79,141.76C118.37,141.51 118.35,141.47 117.92,141.21C116.76,140.5 113.15,138.37 111.37,137.34C110.15,136.64 109.33,136.21 108.27,135.59C107.15,134.93 106.17,134.29 104.82,133.49C102.94,132.37 100.26,130.85 98.035,129.555C95.89,128.3 93.65,126.97 91.71,125.85C90.06,124.9 88.34,123.97 87.13,123.27C86.33,122.8 86.01,122.58 85.16,122.08C83.62,121.18 80.25,119.26 78.61,118.36C77.63,117.82 77.15,117.59 76.25,117.1C75.05,116.44 73.63,115.59 72.06,114.72C70.07,113.62 67.46,112.25 65.225,111.08C63.09,109.96 61.07,108.89 58.96,107.83C56.84,106.77 54.69,105.74 52.519999999999996,104.72C50.32,103.69 48.08,102.65 45.86,101.69C43.68,100.75 40.63,99.53 39.31,99.03C38.75,98.82 38.64,98.8 38.09,98.61C36.94,98.2 34.64,97.29 32.76,96.66C30.7,95.97 28.39,95.27 26.2,94.67C24.02,94.08 21.54,93.49 19.65,93.1C18.22,92.81 17.02,92.66 15.86,92.45C14.87,92.27 14.22,92.11 13.1,91.95C11.38,91.7 8.74,91.4 6.55,91.25Q4.37,91.1 0,91.04" style="stroke-miterlimit: 1; vector-effect: none; fill: none; stroke: rgb(0, 0, 0); stroke-opacity: 1; stroke-width: 0.5px;"/><path class="openline" d="M0,268.9Q5.39,270.22 6.55,270.69C7,270.87 7.01,270.95 7.44,271.18C8.51,271.75 11.49,273 13.1,274.12C14.5,275.09 15.53,276.29 16.66,277.35C17.71,278.34 18.61,279.28 19.65,280.28C20.75,281.34 21.96,282.48 23.08,283.51C24.14,284.49 25.14,285.34 26.2,286.33C27.33,287.39 28.59,288.35 29.63,289.67C30.81,291.17 32.15,293.99 32.76,295C33,295.4 33.09,295.41 33.28,295.84Q33.78,296.93 35.19,302" style="stroke-miterlimit: 1; vector-effect: none; fill: none; stroke: rgb(0, 0, 0); stroke-opacity: 1; stroke-width: 0.5px;"/></g><g class="contourlevel"><path class="openline" d="M0,292.3Q4.84,294.19 6.5649999999999995,295.825Q8.26,297.44 10.31,302" style="stroke-miterlimit: 1; vector-effect: none; fill: none; stroke: rgb(0, 0, 0); stroke-opacity: 1; stroke-width: 0.5px;"/><path class="openline" d="M321,139.98Q316.63,139.98 314.45,139.92C312.27,139.86 310.08,139.75 307.9,139.61C305.72,139.47 303.53,139.28 301.35,139.06C299.16,138.83 296.98,138.56 294.8,138.26C292.61,137.95 290.42,137.61 288.24,137.23C286.05,136.85 283.15,136.28 281.69,135.97C280.95,135.81 280.73,135.75 280.03,135.59C278.83,135.32 276.89,134.92 275.14,134.51C273.11,134.03 270.77,133.44 268.59,132.85C266.4,132.26 264.07,131.6 262.04,130.99C260.27,130.46 258.27,129.8 257.07,129.43C256.4,129.22 256.19,129.17 255.49,128.95C254.05,128.49 251.12,127.53 248.94,126.78C246.75,126.03 244.16,125.11 242.39,124.45C241.17,124 240.39,123.67 239.33,123.27C238.21,122.85 237.18,122.5 235.84,121.99C233.99,121.29 231.38,120.27 229.29,119.42C227.36,118.64 224.85,117.55 223.74,117.1C223.27,116.91 223.21,116.9 222.73,116.71C221.5,116.21 218.37,114.89 216.18,113.94C213.97,112.98 211.64,112.37 209.55,110.97999999999999C207.23,109.44 204.69,107.06 203.04000000000002,104.855C201.58,102.9 200.91,100.69 199.89,98.61C198.88,96.56 197.48,93.61 196.95,92.45C196.74,92 196.73,91.94 196.53,91.5C196.05,90.46 194.9,88.11 194.07,86.29C193.17,84.33 192.08,81.86 191.34,80.12C190.8,78.86 190.43,77.89 189.98,76.83C189.56,75.84 189.2,75.1 188.72,73.96C188.02,72.3 187.04,69.86 186.24,67.8C185.44,65.75 184.41,62.98 183.93,61.63C183.7,60.97 183.65,60.78 183.43,60.15C183.04,59.03 182.33,57.14 181.77,55.47C181.13,53.56 180.42,51.37 179.8,49.31C179.18,47.26 178.54,45.05 178.03,43.14C177.59,41.5 177.17,39.68 176.88,38.55C176.71,37.89 176.64,37.68 176.47,36.98C176.14,35.6 175.54,32.88 175.13,30.82C174.73,28.77 174.36,26.71 174.04,24.65C173.72,22.6 173.43,20.55 173.19,18.49C172.95,16.44 172.76,14.39 172.61,12.33C172.46,10.28 172.35,8.22 172.28,6.16Q172.21,4.11 172.21,0" style="stroke-miterlimit: 1; vector-effect: none; fill: none; stroke: rgb(0, 0, 0); stroke-opacity: 1; stroke-width: 0.5px;"/></g><g class="contourlevel"/></g><g class="contourlabels"><text data-notex="1" text-anchor="middle" x="135.20719092037655" y="156.07352140987027" transform="rotate(30.56988455116904 135.20719092037655 156.07352140987027)" style="white-space: pre; font-family: arial; font-size: 12px; fill: rgb(0, 0, 0); fill-opacity: 1;">0.9</text><text data-notex="1" text-anchor="middle" x="266.70177998140656" y="136.37559501685516" transform="rotate(15.166443067981616 266.70177998140656 136.37559501685516)" style="white-space: pre; font-family: arial; font-size: 12px; fill: rgb(0, 0, 0); fill-opacity: 1;">0.95</text></g></g></g></g><g class="overplot"/><path class="xlines-above crisp" d="M39,312.5H362M39,9.5H362" style="fill: none; stroke-width: 1px; stroke: rgb(36, 36, 36); stroke-opacity: 1;"/><path class="ylines-above crisp" d="M39.5,10V312M361.5,10V312" style="fill: none; stroke-width: 1px; stroke: rgb(36, 36, 36); stroke-opacity: 1;"/><g class="overlines-above"/><g class="xaxislayer-above"><path class="xtick ticks crisp" d="M0,313v5" transform="translate(40,0)" style="stroke: rgb(68, 68, 68); stroke-opacity: 1; stroke-width: 1px;"/><path class="xtick ticks crisp" d="M0,313v5" transform="translate(69.18,0)" style="stroke: rgb(68, 68, 68); stroke-opacity: 1; stroke-width: 1px;"/><path class="xtick ticks crisp" d="M0,313v5" transform="translate(98.36,0)" style="stroke: rgb(68, 68, 68); stroke-opacity: 1; stroke-width: 1px;"/><path class="xtick ticks crisp" d="M0,313v5" transform="translate(127.55,0)" style="stroke: rgb(68, 68, 68); stroke-opacity: 1; stroke-width: 1px;"/><path class="xtick ticks crisp" d="M0,313v5" transform="translate(156.73000000000002,0)" style="stroke: rgb(68, 68, 68); stroke-opacity: 1; stroke-width: 1px;"/><path class="xtick ticks crisp" d="M0,313v5" transform="translate(185.91,0)" style="stroke: rgb(68, 68, 68); stroke-opacity: 1; stroke-width: 1px;"/><path class="xtick ticks crisp" d="M0,313v5" transform="translate(215.09,0)" style="stroke: rgb(68, 68, 68); stroke-opacity: 1; stroke-width: 1px;"/><path class="xtick ticks crisp" d="M0,313v5" transform="translate(244.27,0)" style="stroke: rgb(68, 68, 68); stroke-opacity: 1; stroke-width: 1px;"/><path class="xtick ticks crisp" d="M0,313v5" transform="translate(273.45,0)" style="stroke: rgb(68, 68, 68); stroke-opacity: 1; stroke-width: 1px;"/><path class="xtick ticks crisp" d="M0,313v5" transform="translate(302.64,0)" style="stroke: rgb(68, 68, 68); stroke-opacity: 1; stroke-width: 1px;"/><path class="xtick ticks crisp" d="M0,313v5" transform="translate(331.82,0)" style="stroke: rgb(68, 68, 68); stroke-opacity: 1; stroke-width: 1px;"/><path class="xtick ticks crisp" d="M0,313v5" transform="translate(361,0)" style="stroke: rgb(68, 68, 68); stroke-opacity: 1; stroke-width: 1px;"/><g class="xtick"><text text-anchor="middle" x="0" y="332.4" transform="translate(40,0)" style="font-family: arial; font-size: 12px; fill: rgb(0, 0, 0); fill-opacity: 1; white-space: pre; opacity: 1;">0</text></g><g class="xtick"><text text-anchor="middle" x="0" y="332.4" style="font-family: arial; font-size: 12px; fill: rgb(0, 0, 0); fill-opacity: 1; white-space: pre; opacity: 1;" transform="translate(69.18,0)">0.5</text></g><g class="xtick"><text text-anchor="middle" x="0" y="332.4" style="font-family: arial; font-size: 12px; fill: rgb(0, 0, 0); fill-opacity: 1; white-space: pre; opacity: 1;" transform="translate(98.36,0)">1</text></g><g class="xtick"><text text-anchor="middle" x="0" y="332.4" style="font-family: arial; font-size: 12px; fill: rgb(0, 0, 0); fill-opacity: 1; white-space: pre; opacity: 1;" transform="translate(127.55,0)">1.5</text></g><g class="xtick"><text text-anchor="middle" x="0" y="332.4" style="font-family: arial; font-size: 12px; fill: rgb(0, 0, 0); fill-opacity: 1; white-space: pre; opacity: 1;" transform="translate(156.73000000000002,0)">2</text></g><g class="xtick"><text text-anchor="middle" x="0" y="332.4" style="font-family: arial; font-size: 12px; fill: rgb(0, 0, 0); fill-opacity: 1; white-space: pre; opacity: 1;" transform="translate(185.91,0)">2.5</text></g><g class="xtick"><text text-anchor="middle" x="0" y="332.4" style="font-family: arial; font-size: 12px; fill: rgb(0, 0, 0); fill-opacity: 1; white-space: pre; opacity: 1;" transform="translate(215.09,0)">3</text></g><g class="xtick"><text text-anchor="middle" x="0" y="332.4" style="font-family: arial; font-size: 12px; fill: rgb(0, 0, 0); fill-opacity: 1; white-space: pre; opacity: 1;" transform="translate(244.27,0)">3.5</text></g><g class="xtick"><text text-anchor="middle" x="0" y="332.4" style="font-family: arial; font-size: 12px; fill: rgb(0, 0, 0); fill-opacity: 1; white-space: pre; opacity: 1;" transform="translate(273.45,0)">4</text></g><g class="xtick"><text text-anchor="middle" x="0" y="332.4" style="font-family: arial; font-size: 12px; fill: rgb(0, 0, 0); fill-opacity: 1; white-space: pre; opacity: 1;" transform="translate(302.64,0)">4.5</text></g><g class="xtick"><text text-anchor="middle" x="0" y="332.4" style="font-family: arial; font-size: 12px; fill: rgb(0, 0, 0); fill-opacity: 1; white-space: pre; opacity: 1;" transform="translate(331.82,0)">5</text></g><g class="xtick"><text text-anchor="middle" x="0" y="332.4" style="font-family: arial; font-size: 12px; fill: rgb(0, 0, 0); fill-opacity: 1; white-space: pre; opacity: 1;" transform="translate(361,0)">5.5</text></g></g><g class="yaxislayer-above"><path class="ytick ticks crisp" d="M39,0h-5" transform="translate(0,312)" style="stroke: rgb(68, 68, 68); stroke-opacity: 1; stroke-width: 1px;"/><path class="ytick ticks crisp" d="M39,0h-5" transform="translate(0,278.44)" style="stroke: rgb(68, 68, 68); stroke-opacity: 1; stroke-width: 1px;"/><path class="ytick ticks crisp" d="M39,0h-5" transform="translate(0,244.89)" style="stroke: rgb(68, 68, 68); stroke-opacity: 1; stroke-width: 1px;"/><path class="ytick ticks crisp" d="M39,0h-5" transform="translate(0,211.33)" style="stroke: rgb(68, 68, 68); stroke-opacity: 1; stroke-width: 1px;"/><path class="ytick ticks crisp" d="M39,0h-5" transform="translate(0,177.78)" style="stroke: rgb(68, 68, 68); stroke-opacity: 1; stroke-width: 1px;"/><path class="ytick ticks crisp" d="M39,0h-5" transform="translate(0,144.22)" style="stroke: rgb(68, 68, 68); stroke-opacity: 1; stroke-width: 1px;"/><path class="ytick ticks crisp" d="M39,0h-5" transform="translate(0,110.67)" style="stroke: rgb(68, 68, 68); stroke-opacity: 1; stroke-width: 1px;"/><path class="ytick ticks crisp" d="M39,0h-5" transform="translate(0,77.11)" style="stroke: rgb(68, 68, 68); stroke-opacity: 1; stroke-width: 1px;"/><path class="ytick ticks crisp" d="M39,0h-5" transform="translate(0,43.56)" style="stroke: rgb(68, 68, 68); stroke-opacity: 1; stroke-width: 1px;"/><path class="ytick ticks crisp" d="M39,0h-5" transform="translate(0,10)" style="stroke: rgb(68, 68, 68); stroke-opacity: 1; stroke-width: 1px;"/><g class="ytick"><text text-anchor="end" x="31.6" y="4.199999999999999" transform="translate(0,312)" style="font-family: arial; font-size: 12px; fill: rgb(0, 0, 0); fill-opacity: 1; white-space: pre; opacity: 1;">0</text></g><g class="ytick"><text text-anchor="end" x="31.6" y="4.199999999999999" style="font-family: arial; font-size: 12px; fill: rgb(0, 0, 0); fill-opacity: 1; white-space: pre; opacity: 1;" transform="translate(0,278.44)">5</text></g><g class="ytick"><text text-anchor="end" x="31.6" y="4.199999999999999" style="font-family: arial; font-size: 12px; fill: rgb(0, 0, 0); fill-opacity: 1; white-space: pre; opacity: 1;" transform="translate(0,244.89)">10</text></g><g class="ytick"><text text-anchor="end" x="31.6" y="4.199999999999999" style="font-family: arial; font-size: 12px; fill: rgb(0, 0, 0); fill-opacity: 1; white-space: pre; opacity: 1;" transform="translate(0,211.33)">15</text></g><g class="ytick"><text text-anchor="end" x="31.6" y="4.199999999999999" style="font-family: arial; font-size: 12px; fill: rgb(0, 0, 0); fill-opacity: 1; white-space: pre; opacity: 1;" transform="translate(0,177.78)">20</text></g><g class="ytick"><text text-anchor="end" x="31.6" y="4.199999999999999" style="font-family: arial; font-size: 12px; fill: rgb(0, 0, 0); fill-opacity: 1; white-space: pre; opacity: 1;" transform="translate(0,144.22)">25</text></g><g class="ytick"><text text-anchor="end" x="31.6" y="4.199999999999999" style="font-family: arial; font-size: 12px; fill: rgb(0, 0, 0); fill-opacity: 1; white-space: pre; opacity: 1;" transform="translate(0,110.67)">30</text></g><g class="ytick"><text text-anchor="end" x="31.6" y="4.199999999999999" style="font-family: arial; font-size: 12px; fill: rgb(0, 0, 0); fill-opacity: 1; white-space: pre; opacity: 1;" transform="translate(0,77.11)">35</text></g><g class="ytick"><text text-anchor="end" x="31.6" y="4.199999999999999" style="font-family: arial; font-size: 12px; fill: rgb(0, 0, 0); fill-opacity: 1; white-space: pre; opacity: 1;" transform="translate(0,43.56)">40</text></g><g class="ytick"><text text-anchor="end" x="31.6" y="4.199999999999999" style="font-family: arial; font-size: 12px; fill: rgb(0, 0, 0); fill-opacity: 1; white-space: pre; opacity: 1;" transform="translate(0,10)">45</text></g></g><g class="overaxes-above"/></g></g><g class="polarlayer"/><g class="smithlayer"/><g class="ternarylayer"/><g class="geolayer"/><g class="funnelarealayer"/><g class="pielayer"/><g class="iciclelayer"/><g class="treemaplayer"/><g class="sunburstlayer"/><g class="glimages"/><defs id="topdefs-f3fd8d"><g class="clips"/></defs><g class="layer-above"><g class="imagelayer"/><g class="shapelayer"/></g><g class="infolayer"><g class="cba75034 colorbar" transform="translate(40,10)"><rect class="cbbg" x="326.5" y="0" width="82.09375" height="303" style="fill: rgb(0, 0, 0); fill-opacity: 0; stroke: rgb(68, 68, 68); stroke-opacity: 1; stroke-width: 0;"/><g class="cbfills" transform="translate(0,33)"><rect class="cbfill" style="" x="337" y="1" width="30" height="258" fill="#440154"/><rect class="cbfill" style="" x="337" y="1" width="30" height="252" fill="#461263"/><rect class="cbfill" style="" x="337" y="1" width="30" height="240" fill="#472273"/><rect class="cbfill" style="" x="337" y="1" width="30" height="227" fill="#45317d"/><rect class="cbfill" style="" x="337" y="1" width="30" height="215" fill="#414084"/><rect class="cbfill" style="" x="337" y="1" width="30" height="203" fill="#3c4d8a"/><rect class="cbfill" style="" x="337" y="1" width="30" height="190" fill="#375b8c"/><rect class="cbfill" style="" x="337" y="1" width="30" height="178" fill="#31688e"/><rect class="cbfill" style="" x="337" y="1" width="30" height="166" fill="#2c738e"/><rect class="cbfill" style="" x="337" y="1" width="30" height="153" fill="#287e8e"/><rect class="cbfill" style="" x="337" y="1" width="30" height="141" fill="#248a8d"/><rect class="cbfill" style="" x="337" y="1" width="30" height="129" fill="#21968a"/><rect class="cbfill" style="" x="337" y="1" width="30" height="116" fill="#22a287"/><rect class="cbfill" style="" x="337" y="1" width="30" height="104" fill="#2cac80"/><rect class="cbfill" style="" x="337" y="1" width="30" height="92" fill="#35b779"/><rect class="cbfill" style="" x="337" y="1" width="30" height="79" fill="#4dc16b"/><rect class="cbfill" style="" x="337" y="1" width="30" height="67" fill="#66cb5d"/><rect class="cbfill" style="" x="337" y="1" width="30" height="55" fill="#82d34b"/><rect class="cbfill" style="" x="337" y="1" width="30" height="42" fill="#a1d938"/><rect class="cbfill" style="" x="337" y="1" width="30" height="30" fill="#bfdf2a"/><rect class="cbfill" style="" x="337" y="1" width="30" height="18" fill="#dee328"/><rect class="cbfill" style="" x="337" y="0" width="30" height="6" fill="#fde725"/></g><g class="cblines" transform="translate(0,33)"><path class="cbline" d="M337,253.25h30" style="fill: none; stroke: rgb(0, 0, 0); stroke-opacity: 1; stroke-width: 0.5px;"/><path class="cbline" d="M337,241.25h30" style="fill: none; stroke: rgb(0, 0, 0); stroke-opacity: 1; stroke-width: 0.5px;"/><path class="cbline" d="M337,228.25h30" style="fill: none; stroke: rgb(0, 0, 0); stroke-opacity: 1; stroke-width: 0.5px;"/><path class="cbline" d="M337,216.25h30" style="fill: none; stroke: rgb(0, 0, 0); stroke-opacity: 1; stroke-width: 0.5px;"/><path class="cbline" d="M337,204.25h30" style="fill: none; stroke: rgb(0, 0, 0); stroke-opacity: 1; stroke-width: 0.5px;"/><path class="cbline" d="M337,191.25h30" style="fill: none; stroke: rgb(0, 0, 0); stroke-opacity: 1; stroke-width: 0.5px;"/><path class="cbline" d="M337,179.25h30" style="fill: none; stroke: rgb(0, 0, 0); stroke-opacity: 1; stroke-width: 0.5px;"/><path class="cbline" d="M337,167.25h30" style="fill: none; stroke: rgb(0, 0, 0); stroke-opacity: 1; stroke-width: 0.5px;"/><path class="cbline" d="M337,154.25h30" style="fill: none; stroke: rgb(0, 0, 0); stroke-opacity: 1; stroke-width: 0.5px;"/><path class="cbline" d="M337,142.25h30" style="fill: none; stroke: rgb(0, 0, 0); stroke-opacity: 1; stroke-width: 0.5px;"/><path class="cbline" d="M337,130.25h30" style="fill: none; stroke: rgb(0, 0, 0); stroke-opacity: 1; stroke-width: 0.5px;"/><path class="cbline" d="M337,117.25h30" style="fill: none; stroke: rgb(0, 0, 0); stroke-opacity: 1; stroke-width: 0.5px;"/><path class="cbline" d="M337,105.25h30" style="fill: none; stroke: rgb(0, 0, 0); stroke-opacity: 1; stroke-width: 0.5px;"/><path class="cbline" d="M337,93.25h30" style="fill: none; stroke: rgb(0, 0, 0); stroke-opacity: 1; stroke-width: 0.5px;"/><path class="cbline" d="M337,80.25h30" style="fill: none; stroke: rgb(0, 0, 0); stroke-opacity: 1; stroke-width: 0.5px;"/><path class="cbline" d="M337,68.25h30" style="fill: none; stroke: rgb(0, 0, 0); stroke-opacity: 1; stroke-width: 0.5px;"/><path class="cbline" d="M337,56.25h30" style="fill: none; stroke: rgb(0, 0, 0); stroke-opacity: 1; stroke-width: 0.5px;"/><path class="cbline" d="M337,43.25h30" style="fill: none; stroke: rgb(0, 0, 0); stroke-opacity: 1; stroke-width: 0.5px;"/><path class="cbline" d="M337,31.25h30" style="fill: none; stroke: rgb(0, 0, 0); stroke-opacity: 1; stroke-width: 0.5px;"/><path class="cbline" d="M337,19.25h30" style="fill: none; stroke: rgb(0, 0, 0); stroke-opacity: 1; stroke-width: 0.5px;"/><path class="cbline" d="M337,6.25h30" style="fill: none; stroke: rgb(0, 0, 0); stroke-opacity: 1; stroke-width: 0.5px;"/></g><g class="cbaxis crisp" transform="translate(0,-10)"><path class="ycba75034tick ticks crisp" d="M367,0h5" transform="translate(0,295.833125)" style="stroke: rgb(36, 36, 36); stroke-opacity: 1; stroke-width: 1px;"/><path class="ycba75034tick ticks crisp" d="M367,0h5" transform="translate(0,234.153125)" style="stroke: rgb(36, 36, 36); stroke-opacity: 1; stroke-width: 1px;"/><path class="ycba75034tick ticks crisp" d="M367,0h5" transform="translate(0,172.473125)" style="stroke: rgb(36, 36, 36); stroke-opacity: 1; stroke-width: 1px;"/><path class="ycba75034tick ticks crisp" d="M367,0h5" transform="translate(0,110.803125)" style="stroke: rgb(36, 36, 36); stroke-opacity: 1; stroke-width: 1px;"/><path class="ycba75034tick ticks crisp" d="M367,0h5" transform="translate(0,49.123125)" style="stroke: rgb(36, 36, 36); stroke-opacity: 1; stroke-width: 1px;"/><g class="ycba75034tick"><text text-anchor="start" x="374.4" y="4.199999999999999" transform="translate(0,295.833125)" style="font-family: arial; font-size: 12px; fill: rgb(0, 0, 0); fill-opacity: 1; white-space: pre; opacity: 1;">0</text></g><g class="ycba75034tick"><text text-anchor="start" x="374.4" y="4.199999999999999" style="font-family: arial; font-size: 12px; fill: rgb(0, 0, 0); fill-opacity: 1; white-space: pre; opacity: 1;" transform="translate(0,234.153125)">0.25</text></g><g class="ycba75034tick"><text text-anchor="start" x="374.4" y="4.199999999999999" style="font-family: arial; font-size: 12px; fill: rgb(0, 0, 0); fill-opacity: 1; white-space: pre; opacity: 1;" transform="translate(0,172.473125)">0.5</text></g><g class="ycba75034tick"><text text-anchor="start" x="374.4" y="4.199999999999999" style="font-family: arial; font-size: 12px; fill: rgb(0, 0, 0); fill-opacity: 1; white-space: pre; opacity: 1;" transform="translate(0,110.803125)">0.75</text></g><g class="ycba75034tick"><text text-anchor="start" x="374.4" y="4.199999999999999" style="font-family: arial; font-size: 12px; fill: rgb(0, 0, 0); fill-opacity: 1; white-space: pre; opacity: 1;" transform="translate(0,49.123125)">1</text></g></g><g class="cbtitleunshift" transform="translate(-40,-10)"><g class="cbtitle" transform="translate(-0.5,-0.5)"><text class="ycba75034title" x="377.42" y="33.5" text-anchor="start" style="font-family: arial; font-size: 14px; fill: rgb(0, 0, 0); opacity: 1; font-weight: normal; white-space: pre;">K​<tspan style="font-size:70%" dy="0.3em">0,oc</tspan><tspan dy="-0.21em">​</tspan></text></g></g><rect class="cboutline" x="337" y="32.953125" width="30" height="259.046875" style="stroke: rgb(68, 68, 68); stroke-opacity: 1; fill: none; stroke-width: 1;"/></g><g class="g-gtitle"/><g class="g-xtitle" transform="translate(0,-2.7062500000000114)"><text class="xtitle" x="200.5" y="349.70625" text-anchor="middle" style="font-family: arial; font-size: 14px; fill: rgb(0, 0, 0); opacity: 1; font-weight: normal; white-space: pre;">OCR, unitless</text></g><g class="g-ytitle" transform="translate(9.0498046875,0)"><text class="ytitle" transform="rotate(-90,3.950000000000003,161)" x="3.950000000000003" y="161" text-anchor="middle" style="font-family: arial; font-size: 14px; fill: rgb(0, 0, 0); opacity: 1; font-weight: normal; white-space: pre;">Effective Friction Angle, deg</text></g></g></svg>