<svg class="main-svg" xmlns="http://www.w3.org/2000/svg" xmlns:xlink="http://www.w3.org/1999/xlink" width="800" height="700" style="" viewBox="0 0 800 700"><rect x="0" y="0" width="800" height="700" style="fill: rgb(255, 255, 255); fill-opacity: 1;"/><defs id="defs-b638ec"><g class="clips"><clipPath id="clipb638ecxyplot" class="plotclip"><rect width="654" height="635"/></clipPath><clipPath class="axesclip" id="clipb638ecx"><rect x="47" y="0" width="654" height="700"/></clipPath><clipPath class="axesclip" id="clipb638ecy"><rect x="0" y="17" width="800" height="635"/></clipPath><clipPath class="axesclip" id="clipb638ecxy"><rect x="47" y="17" width="654" height="635"/></clipPath><clipPath class="contourlineclip" id="clipline5497ab"><path d="M0,0L654,0L654,635L0,635ZM166.40630874140805,450.6293953686595L166.39890514562768,460.6293926279976L194.08639755742007,460.6498913338145L194.09380115320045,450.6498940744764ZM66.75669732200197,358.4658709840469L67.24785723843866,368.4538017976081L94.90194067848631,367.093902778974L94.41078076204963,357.1059719654128ZM271.07328312128516,603.3574402195278L281.0146152288976,604.4390667383199L284.00936865280335,576.914003465368L274.0680365451909,575.8323769465759ZM64.39540793764807,566.1621765416504L60.13009329552526,575.2069037903678L85.17268186541183,587.0164937057453L89.43799650753463,577.9717664570279ZM44.25438706028627,191.38814050636353L41.568971350636055,201.02082146580386L61.812652429459824,206.66439041811566L64.49806813911005,197.03170945867532ZM418.8497469385214,505.1331059096165L410.10290923253825,509.9800461965596L420.2890571793171,528.3620723130398L429.03589488530025,523.5151320260966ZM13.151219882917783,563.3130564487421L8.392231733541095,572.1080568349896L26.875474732764182,582.1093678676641L31.634462882140873,573.3143674814166ZM584.3337461495431,468.2820196416391L580.9517762488664,477.69277304351493L606.6990093843111,486.9456313186474L610.0809792849878,477.53487791677156ZM195.91555658243496,110.87021134102744L187.68743313831956,116.55334292391368L203.23612595337235,139.0649744092981L211.46424939748775,133.38184282641186ZM374.8527787845511,310.3285408963045L368.01546176950296,317.6258757547123L387.980513858678,336.3323477755705L394.81783087372617,329.0350129171627ZM581.7425459232533,335.93513297678373L579.6579931875198,345.71545198446165L606.737251440028,351.4870573715235L608.8218041757615,341.7067383638456ZM309.023487445549,74.01924340109161L299.53948889461765,77.19001168116688L308.318553570076,103.44883266905813L317.80255212100735,100.27806438898287ZM576.7198310783117,231.45017283239932L575.7058670949896,241.3986338711995L603.2506685961675,244.20604665002256L604.2646325794897,234.25758561122237ZM411.3954565004267,29.46359044057574L401.42082506722784,30.17543857876296L403.3917545998337,57.7926993594324L413.36638603303254,57.080851221245176ZM581.4693869711642,130.41723144385446L583.7813716893378,140.14629751737516L610.7187233803983,133.74498982893198L608.4067386622247,124.01592375541128Z"/></clipPath></g><g class="gradients"/><g class="patterns"/></defs><g class="bglayer"/><g class="layer-below"><g class="imagelayer"/><g class="shapelayer"/></g><g class="cartesianlayer"><g class="subplot xy"><g class="layer-subplot"><g class="shapelayer"/><g class="imagelayer"/></g><g class="minor-gridlayer"><g class="x"/><g class="y"/></g><g class="gridlayer"><g class="x"><path class="xgrid crisp" transform="translate(165.91,0)" d="M0,17v635" style="stroke: rgb(232, 232, 232); stroke-opacity: 1; stroke-width: 1px;"/><path class="xgrid crisp" transform="translate(284.82,0)" d="M0,17v635" style="stroke: rgb(232, 232, 232); stroke-opacity: 1; stroke-width: 1px;"/><path class="xgrid crisp" transform="translate(403.73,0)" d="M0,17v635" style="stroke: rgb(232, 232, 232); stroke-opacity: 1; stroke-width: 1px;"/><path class="xgrid crisp" transform="translate(522.64,0)" d="M0,17v635" style="stroke: rgb(232, 232, 232); stroke-opacity: 1; stroke-width: 1px;"/><path class="xgrid crisp" transform="translate(641.55,0)" d="M0,17v635" style="stroke: rgb(232, 232, 232); stroke-opacity: 1; stroke-width: 1px;"/></g><g class="y"><path class="ygrid crisp" transform="translate(0,581.44)" d="M47,0h654" style="stroke: rgb(232, 232, 232); stroke-opacity: 1; stroke-width: 1px;"/><path class="ygrid crisp" transform="translate(0,510.89)" d="M47,0h654" style="stroke: rgb(232, 232, 232); stroke-opacity: 1; stroke-width: 1px;"/><path class="ygrid crisp" transform="translate(0,440.33)" d="M47,0h654" style="stroke: rgb(232, 232, 232); stroke-opacity: 1; stroke-width: 1px;"/><path class="ygrid crisp" transform="translate(0,369.78)" d="M47,0h654" style="stroke: rgb(232, 232, 232); stroke-opacity: 1; stroke-width: 1px;"/><path class="ygrid crisp" transform="translate(0,299.22)" d="M47,0h654" style="stroke: rgb(232, 232, 232); stroke-opacity: 1; stroke-width: 1px;"/><path class="ygrid crisp" transform="translate(0,228.67)" d="M47,0h654" style="stroke: rgb(232, 232, 232); stroke-opacity: 1; stroke-width: 1px;"/><path class="ygrid crisp" transform="translate(0,158.11)" d="M47,0h654" style="stroke: rgb(232, 232, 232); stroke-opacity: 1; stroke-width: 1px;"/><path class="ygrid crisp" transform="translate(0,87.56)" d="M47,0h654" style="stroke: rgb(232, 232, 232); stroke-opacity: 1; stroke-width: 1px;"/></g></g><g class="zerolinelayer"/><path class="xlines-below"/><path class="ylines-below"/><g class="overlines-below"/><g class="xaxislayer-below"/><g class="yaxislayer-below"/><g class="overaxes-below"/><g class="plot" transform="translate(47,17)" clip-path="url(#clipb638ecxyplot)"><g class="contourlayer mlayer"><g class="contour" style="opacity: 1;"><g class="heatmapcoloring"/><g class="contourbg"><path d="M0,0L654,0L654,635L0,635Z" style="stroke: none; fill: rgb(68, 1, 84);"/></g><g class="contourfill"><path d="M0,0L654,0L654,635L0,635Z" style="stroke: none; fill: rgb(69, 8, 90);"/><path d="M0,0L654,0L654,635L0,635Z" style="stroke: none; fill: rgb(69, 15, 97);"/><path d="M0,0L654,0L654,635L0,635Z" style="stroke: none; fill: rgb(70, 22, 103);"/><path d="M0,0L654,0L654,635L0,635Z" style="stroke: none; fill: rgb(71, 29, 109);"/><path d="M0,0L654,0L654,635L0,635Z" style="stroke: none; fill: rgb(72, 35, 116);"/><path d="M0,0L654,0L654,635L0,635Z" style="stroke: none; fill: rgb(71, 42, 121);"/><path d="M0,0L654,0L654,635L0,635Z" style="stroke: none; fill: rgb(70, 48, 124);"/><path d="M0,0L654,0L654,635L0,635Z" style="stroke: none; fill: rgb(68, 54, 127);"/><path d="M0,0L654,0L654,635L0,635Z" style="stroke: none; fill: rgb(66, 59, 130);"/><path d="M0,0L654,0L654,635L0,635Z" style="stroke: none; fill: rgb(64, 65, 133);"/><path d="M0,0L654,0L654,635L0,635Z" style="stroke: none; fill: rgb(63, 71, 136);"/><path d="M0,0L654,0L654,635L0,635Z" style="stroke: none; fill: rgb(60, 77, 138);"/><path d="M0,0L654,0L654,635L0,635Z" style="stroke: none; fill: rgb(58, 82, 138);"/><path d="M0,0L654,0L654,635L0,635Z" style="stroke: none; fill: rgb(56, 88, 139);"/><path d="M0,0L654,0L654,635L0,635Z" style="stroke: none; fill: rgb(54, 93, 140);"/><path d="M0,0L654,0L654,635L0,635Z" style="stroke: none; fill: rgb(51, 99, 141);"/><path d="M0,0L654,0L654,635L0,635Z" style="stroke: none; fill: rgb(49, 104, 142);"/><path d="M0,0L654,0L654,635L0,635Z" style="stroke: none; fill: rgb(47, 109, 142);"/><path d="M0,0L654,0L654,635L0,635Z" style="stroke: none; fill: rgb(45, 113, 142);"/><path d="M0,0L654,0L654,635L0,635Z" style="stroke: none; fill: rgb(43, 118, 142);"/><path d="M0,0L654,0L654,635L0,635Z" style="stroke: none; fill: rgb(41, 122, 142);"/><path d="M0,0L654,0L654,635L0,635Z" style="stroke: none; fill: rgb(39, 127, 142);"/><path d="M0,0L654,0L654,635L0,635Z" style="stroke: none; fill: rgb(38, 132, 142);"/><path d="M0,0L654,0L654,635L0,635Z" style="stroke: none; fill: rgb(36, 137, 141);"/><path d="M0,0L654,0L654,635L0,635Z" style="stroke: none; fill: rgb(35, 142, 140);"/><path d="M0,0L654,0L654,635L0,635Z" style="stroke: none; fill: rgb(34, 146, 139);"/><path d="M0,0L654,0L654,635L0,635Z" style="stroke: none; fill: rgb(33, 151, 138);"/><path d="M0,0L654,0L654,635L0,635Z" style="stroke: none; fill: rgb(31, 156, 137);"/><path d="M0,0L654,0L654,635L0,635Z" style="stroke: none; fill: rgb(34, 161, 135);"/><path d="M0,0L654,0L654,635L0,635Z" style="stroke: none; fill: rgb(37, 165, 132);"/><path d="M0,0L654,0L654,635L0,635Z" style="stroke: none; fill: rgb(41, 170, 129);"/><path d="M0,0L654,0L654,635L0,635Z" style="stroke: none; fill: rgb(45, 174, 127);"/><path d="M0,0L654,0L654,635L0,635Z" style="stroke: none; fill: rgb(49, 179, 124);"/><path d="M0,0L654,0L654,635L0,635Z" style="stroke: none; fill: rgb(53, 183, 121);"/><path d="M0,0L654,0L654,635L0,635Z" style="stroke: none; fill: rgb(63, 187, 115);"/><path d="M0,0L654,0L654,635L0,635Z" style="stroke: none; fill: rgb(73, 191, 109);"/><path d="M0,0L654,0L654,635L0,635Z" style="stroke: none; fill: rgb(83, 195, 104);"/><path d="M0,0L654,0L654,635L0,635Z" style="stroke: none; fill: rgb(93, 199, 98);"/><path d="M0,0L654,0L654,635L0,635Z" style="stroke: none; fill: rgb(103, 203, 92);"/><path d="M0,0L654,0L654,635L0,635Z" style="stroke: none; fill: rgb(114, 207, 85);"/><path d="M0,0L654,0L654,635L0,635Z" style="stroke: none; fill: rgb(127, 210, 77);"/><path d="M0,0L654,0L654,635L0,635Z" style="stroke: none; fill: rgb(139, 213, 69);"/><path d="M0,0L654,0L654,635L0,635Z" style="stroke: none; fill: rgb(152, 215, 62);"/><path d="M0,0L654,0L654,635L0,635ZM111.41,518.37C112.07,521.76 116.65,526.17 120.12,526.83C123.9,527.55 130.01,522.94 133.47,521.31C135.75,520.24 137.04,519.52 139.03,518.37C141.43,516.98 144.11,515.38 146.82,513.45C150.02,511.17 154.5,507.53 156.9,505.41C158.33,504.15 158.85,503.6 160.16,502.21C162.37,499.87 166.32,495.51 168.69,492.45C170.61,489.96 172.05,487.64 173.51,485.37C174.82,483.34 175.81,481.87 177.11,479.49C178.98,476.05 181.62,470.61 183.32,466.53C184.77,463.03 186.25,459.06 186.86,456.57C187.21,455.13 187.86,453.59 187.36,453.08500000000004C186.85,452.57 185.25,453.23 183.77,453.57C181.21,454.17 177.12,455.59 173.51,457C169.31,458.64 163.71,461.21 160.16,463.03C157.71,464.29 156.2,465.25 154.1,466.53C151.77,467.95 149.38,469.34 146.82,471.21C143.67,473.5 139.17,477.35 136.76,479.49C135.33,480.76 134.77,481.26 133.47,482.65C131.29,484.98 127.53,489.33 125.18,492.45C123.2,495.07 121.55,497.67 120.12,500C118.94,501.93 118.21,503.19 117.1,505.41C115.43,508.77 110.69,514.71 111.41,518.37Z" style="stroke: none; fill: rgb(164, 218, 54);"/><path d="M272.69,635Q273.48,626.36 273.93,622.04C274.38,617.72 274.89,613.4 275.38,609.08C275.87,604.76 276.4,600.44 276.89,596.12C277.38,591.8 277.87,587.48 278.31,583.16C278.74,578.84 279.16,574.46 279.5,570.2C279.83,566.08 280.11,562.2 280.33500000000004,558.015C280.58,553.58 280.77,548.8 280.89,544.29C281,539.91 281.05,535.65 281.03,531.33C281.01,527.01 280.92,522.39 280.78,518.37C280.66,514.87 280.41,510.91 280.29,508.55C280.22,507.21 280.23,506.81 280.14,505.41C279.96,502.56 279.52,496.77 279.12,492.45C278.72,488.13 278.25,483.81 277.73,479.49C277.21,475.17 276.62,470.85 275.98,466.53C275.34,462.21 274.63,457.89 273.87,453.57C273.11,449.25 272.3,444.92 271.42,440.61C270.54,436.28 269.45,431.26 268.61,427.65C268,425.05 267.46,423.15 266.94,420.95C266.43,418.83 266.11,417.15 265.51,414.69C264.64,411.14 263.32,406.04 262.14,401.73C260.96,397.4 260.27,391.86 258.42,388.78C257.11,386.6 255.81,385.36 253.59,384.09C250.4,382.28 244.7,381.63 240.24,380.48C235.8,379.33 230.55,378.04 226.9,377.2C224.37,376.62 222.64,376.31 220.46,375.82C218.19,375.31 216.23,374.78 213.55,374.19C209.83,373.37 204.65,372.32 200.2,371.47C195.76,370.62 191.31,369.82 186.86,369.08C182.42,368.34 177.96,367.66 173.51,367.04C169.06,366.42 164.61,365.85 160.16,365.34C155.72,364.83 151.27,364.38 146.82,363.99C142.37,363.6 136.41,363.17 133.47,363C132.03,362.92 131.62,362.92 130.24,362.86C127.8,362.75 123.73,362.5 120.12,362.38C115.98,362.24 111.23,362.15 106.78,362.13C102.33,362.11 97.94,362.16 93.43,362.27C88.78,362.38 83.86,362.58 79.285,362.81C74.97,363.03 70.98,363.3 66.73,363.62C62.35,363.95 57.84,364.36 53.39,364.78C48.94,365.2 44.49,365.68 40.04,366.15C35.59,366.62 31.14,367.14 26.69,367.62C22.24,368.1 17.8,368.59 13.35,369.03Q8.9,369.46 0,370.23L0,0L654,0L654,635ZM0,503.56Q3.2,504.8 5.12,505.41C7.53,506.18 10.38,506.39 13.35,507.7C17.38,509.48 24.21,514.06 26.69,516.1C27.8,517.01 27.83,517.35 28.84,518.37C31.1,520.65 38.1,526.86 40.04,529.16C40.84,530.1 40.81,530.31 41.52,531.33C43.26,533.84 48.52,541.21 50.67,544.29C51.85,545.99 52.43,546.62 53.39,548.25C54.77,550.6 56.31,553.95 57.85,557.24C59.68,561.15 61.64,567.47 63.54,570.2C64.6,571.73 65.17,572.27 66.73,573.3C69.55,575.16 76.05,577.06 80.08,578.83C83.47,580.32 86.91,581.82 89.34,583.16C91.02,584.09 91.68,584.65 93.43,585.8C96.61,587.88 104.19,593 106.78,594.69C107.83,595.38 108.04,595.35 109.01,596.12C111.37,598 117.77,604.8 120.12,606.99C121.17,607.98 121.52,608 122.46,609.08C124.55,611.49 129.27,618.11 131.11,622.04C132.45,624.91 132.68,627.7 133.47,630.03Q134.1,631.9 135.38,635L0,635Z" style="stroke: none; fill: rgb(177, 221, 46);"/><path d="M456.85,635Q456.71,626.35 456.38,622.04C456.05,617.71 455.4,612.47 454.87,609.08C454.52,606.87 454.18,605.59 453.8,603.63C453.36,601.33 453.02,598.95 452.38,596.12C451.54,592.37 450.26,587.46 448.98,583.16C447.69,578.82 446.16,574.28 444.67,570.2C443.31,566.48 441.34,561.93 440.45,559.65C440.03,558.57 439.99,558.35 439.53,557.24C438.45,554.63 435.81,548.6 433.78,544.29C431.71,539.89 429.45,535.46 427.22,531.115C425.02,526.82 422.8,522.57 420.5,518.37C418.21,514.19 415.88,510.19 413.455,505.97C410.91,501.55 407.94,496.39 405.56,492.45C403.68,489.34 401.85,486.54 400.41,484.16C399.34,482.39 398.84,481.43 397.67,479.49C395.71,476.24 391.57,469.58 389.62,466.53C388.54,464.84 388.06,464.21 387.06,462.63C385.54,460.25 383.52,456.82 381.47,453.57C379.05,449.73 376.15,445.31 373.435,441.065C370.63,436.68 367.32,431.37 364.91,427.65C363.18,424.98 361.8,423.04 360.37,420.81C359.03,418.72 358.1,417.1 356.57,414.69C354.33,411.16 349.72,404.03 348.19,401.73C347.63,400.88 347.57,400.84 347.02,400.01C345.64,397.91 342.19,392.34 339.88,388.78C337.75,385.5 335.2,381.8 333.67,379.4C332.73,377.93 332.45,377.38 331.47,375.82C329.58,372.84 325.11,365.94 323.06,362.86C321.91,361.14 321.39,360.47 320.33,358.86C318.76,356.48 316.69,353.06 314.63,349.9C312.29,346.3 308.64,340.44 306.98,338.45C306.32,337.66 306.24,337.58 305.43,336.94C303.38,335.32 297.33,331.79 293.63,329.51C290.38,327.51 286.85,325.51 284.4,323.98C282.75,322.95 282.06,322.43 280.29,321.32C277.12,319.33 270.01,314.99 266.94,313.16C265.33,312.2 264.76,311.93 263.25,311.02C260.78,309.53 256.97,307.05 253.59,304.99C249.92,302.74 244.19,299.4 242.02,298.06C241.16,297.53 241.11,297.47 240.24,296.92C237.86,295.44 230.53,290.95 226.9,288.78C224.42,287.3 222.75,286.4 220.6,285.1C218.31,283.71 216.3,282.37 213.55,280.69C209.72,278.35 204.25,275.13 199.73,272.40999999999997C195.36,269.78 190.82,266.96 186.86,264.61C183.51,262.62 179.98,260.65 177.52,259.18C175.9,258.21 175.24,257.74 173.51,256.7C170.37,254.81 163.5,250.79 160.16,248.88C158.17,247.74 157.18,247.26 155.36,246.22C152.91,244.83 150.03,243.04 146.82,241.22C142.76,238.91 137.44,236.03 132.89,233.56C128.55,231.2 124.42,228.94 120.12,226.72C115.79,224.48 111.42,222.33 107,220.19C102.53,218.03 97.96,215.83 93.43,213.82C88.98,211.85 82.77,209.28 80.08,208.24C78.93,207.79 78.72,207.76 77.6,207.35C75.26,206.49 70.56,204.57 66.73,203.25C62.53,201.8 57.86,200.32 53.39,199.07C48.96,197.83 43.9,196.58 40.04,195.76C37.13,195.14 34.68,194.82 32.31,194.39C30.29,194.02 28.97,193.68 26.69,193.34C23.2,192.82 17.8,192.19 13.35,191.87Q8.91,191.55 0,191.42L0,0L654,0L654,635ZM0,565.39Q10.99,568.16 13.35,569.16C14.27,569.55 14.29,569.72 15.16,570.2C17.34,571.41 23.42,574.03 26.69,576.38C29.54,578.42 31.65,580.93 33.94,583.16C36.08,585.25 37.93,587.24 40.04,589.34C42.28,591.56 44.74,593.95 47.03,596.12C49.19,598.17 51.24,599.97 53.39,602.05C55.68,604.27 58.26,606.3 60.37,609.08C62.77,612.25 65.48,618.17 66.73,620.28C67.23,621.13 67.41,621.14 67.81,622.04Q68.84,624.33 71.69,635L0,635Z" style="stroke: none; fill: rgb(189, 223, 42);"/><path d="M0,592.05Q8.41,594.29 12.59,596.355C17.31,598.68 23.64,603.27 26.69,605.72C28.32,607.03 28.8,607.49 30.16,609.08C32.68,612.03 37.4,618.18 39.8,622.78Q41.91,626.83 44.24,635L0,635ZM654,489.53Q645.09,489.1 640.65,488.62C636.19,488.14 631.74,487.48 627.31,486.64C622.84,485.8 618.38,484.77 613.96,483.58C609.5,482.38 605.09,480.96 600.665,479.475C596.19,477.97 591.7,476.39 587.27,474.61C582.79,472.81 577.13,470.28 573.92,468.75C572.07,467.87 571.31,467.38 569.6,466.53C567.15,465.31 563.85,463.87 560.57,462.18C556.53,460.09 549.67,456.23 547.22,454.79C546.27,454.23 546.19,454.13 545.27,453.57C543.05,452.22 537.48,449.1 533.88,446.86C530.54,444.78 526.83,442.19 524.36,440.61C522.81,439.62 522.18,439.31 520.53,438.23C517.41,436.19 509.6,430.81 507.18,429.07C506.25,428.4 506.19,428.31 505.29,427.65C503.09,426.04 497.05,421.86 493.84,419.47C491.45,417.69 489.82,416.31 487.68,414.69C485.39,412.95 483.04,411.33 480.49,409.37C477.51,407.08 473.41,403.66 470.94,401.73C469.4,400.52 468.76,400.12 467.14,398.83C464.12,396.44 458.74,391.97 454.365,388.33C449.71,384.45 444.65,380.19 440.005,376.22C435.58,372.44 429.68,367.37 427.1,365.07C425.97,364.06 425.8,363.85 424.71,362.86C422.39,360.77 416.39,355.6 413.76,353.21C412.25,351.83 411.71,351.26 410.23,349.9C407.79,347.66 403.01,343.5 400.41,341.09C398.66,339.47 397.79,338.54 396.07,336.94C393.62,334.66 389.59,331.13 387.06,328.75C385.16,326.96 384.02,325.75 382.15,323.98C379.73,321.69 376.18,318.56 373.71,316.21C371.73,314.32 370.39,312.89 368.43,311.02C366.04,308.74 362.78,305.85 360.37,303.53C358.34,301.58 356.87,300.03 354.87,298.06C352.49,295.72 349.43,292.75 347.02,290.44C344.99,288.5 343.4,287.07 341.39,285.1C339,282.76 336.02,279.59 333.67,277.27C331.74,275.36 330.26,274.07 328.32,272.14C325.9,269.75 322.68,266.3 320.33,263.95C318.51,262.13 317.26,261.03 315.42,259.18C312.97,256.72 309.33,252.82 306.98,250.44C305.33,248.77 304.38,247.93 302.7,246.22C300.22,243.7 295.94,239.05 293.63,236.68C292.23,235.25 291.64,234.74 290.22,233.27C287.76,230.72 282.44,224.88 280.29,222.63C279.27,221.57 279.05,221.4 278.01,220.31C275.64,217.81 270.42,212.08 266.525,207.78C262.44,203.27 258.04,198.36 254.05,193.83999999999997C250.3,189.6 245.71,184.36 243.24,181.43C241.91,179.85 241.49,179.24 240.24,177.74C238.25,175.34 234.74,171.36 232.38,168.47C230.36,166 228.69,163.72 226.9,161.49C225.23,159.41 223.81,157.83 221.97,155.51C219.51,152.39 215.21,146.53 213.55,144.39C212.87,143.51 212.78,143.45 212.09,142.55C210.3,140.2 204.76,132.62 202.66,129.59C201.55,127.99 201.22,127.39 200.2,125.88C198.57,123.48 195.91,119.88 193.77,116.63C191.47,113.13 188.25,107.73 186.86,105.57C186.28,104.67 186.18,104.6 185.6,103.67C184.11,101.29 180.16,94.64 178,90.71C176.26,87.53 174.77,84.33 173.51,81.95C172.63,80.29 172.13,79.56 171.22,77.76C169.65,74.65 167.04,69.16 165.19,64.8C163.36,60.5 161.73,56.13 160.18,51.785C158.65,47.49 157.18,43.21 155.95,38.88C154.73,34.59 153.67,30.26 152.8,25.92C151.94,21.62 151.26,17.29 150.76,12.96Q150.27,8.65 149.82,0L654,0Z" style="stroke: none; fill: rgb(202, 225, 41);"/><path d="M0,609.01Q9.67,611.96 13.35,614.35C16.58,616.44 19.11,618.88 21.27,622.04Q23.71,625.6 26.76,635L0,635ZM654,350.09Q647.54,349.95 645.08,349.9C643.35,349.86 642.52,349.89 640.65,349.81C637.4,349.66 631.75,349.3 627.31,348.88C622.86,348.46 618.4,347.93 613.96,347.3C609.5,346.67 605.05,345.92 600.61,345.08C596.15,344.23 591.71,343.27 587.27,342.22C582.81,341.16 577.47,339.75 573.92,338.75C571.55,338.08 570.1,337.57 568.02,336.94C565.68,336.23 563.4,335.63 560.57,334.73C556.75,333.51 551.65,331.78 547.22,330.18C542.76,328.57 536.59,326.18 533.88,325.08C532.68,324.59 532.46,324.46 531.3,323.98C528.94,323 524.3,321.19 520.53,319.57C516.3,317.76 510.6,315.19 507.18,313.59C505.01,312.58 503.86,311.95 501.91,311.02C499.51,309.88 496.85,308.72 493.84,307.26C489.93,305.37 483.77,302.26 480.49,300.55C478.55,299.54 477.67,299 475.89,298.06C473.44,296.77 470.35,295.27 467.14,293.56C463.15,291.44 456.25,287.63 453.8,286.24C452.86,285.7 452.78,285.63 451.86,285.1C449.64,283.83 444.22,280.92 440.45,278.76C436.68,276.6 431.49,273.44 429.22,272.14C428.24,271.58 428.1,271.54 427.1,270.97C424.56,269.52 417.35,265.25 413.76,263.06C411.3,261.56 409.73,260.49 407.59,259.18C405.3,257.78 402.83,256.79 400.41,254.95C397.45,252.69 393.76,249.11 391.43,246.22C389.54,243.88 388.5,241.47 387.06,239.25C385.71,237.17 384.62,235.66 383.07,233.27C380.81,229.79 376.42,222.78 374.92,220.31C374.33,219.33 374.29,219.2 373.71,218.25C372.37,216.04 369.12,211.01 366.9,207.35C364.68,203.69 361.68,198.42 360.37,196.27C359.83,195.38 359.74,195.3 359.19,194.39C357.75,192.01 353.85,185.31 351.66,181.43C349.9,178.31 348.35,175.3 347.02,172.93C346.05,171.2 345.5,170.35 344.46,168.47C342.7,165.29 339.5,159.3 337.55,155.51C336.05,152.58 334.85,150 333.67,147.67C332.71,145.78 332.06,144.66 331.02,142.55C329.37,139.23 326.73,133.69 324.87,129.59C323.21,125.93 321.35,121.43 320.33,119.14C319.83,118.01 319.69,117.8 319.19,116.63C318.06,114 315.6,108.01 313.94,103.67C312.29,99.37 310.51,94.42 309.26,90.71C308.33,87.96 307.71,85.75 306.98,83.48C306.33,81.46 305.8,80.06 305.11,77.76C304.07,74.32 302.63,69.13 301.54,64.8C300.46,60.49 299.47,56.17 298.6,51.84C297.73,47.53 296.96,43.21 296.31,38.88C295.66,34.57 295.12,30.25 294.69,25.92C294.26,21.61 293.88,16.12 293.73,12.96C293.64,11.14 293.67,10.34 293.63,8.66Q293.58,6.27 293.44,0L654,0Z" style="stroke: none; fill: rgb(215, 226, 40);"/><path d="M0,620.16Q2.05,621.04 3.4,622.04C5.95,623.93 11.4,629.22 13.35,631.7Q14.37,633 15.29,635L0,635ZM654,240.66Q645.1,240.73 640.65,240.69C636.2,240.65 631.76,240.56 627.31,240.41C622.86,240.26 618.41,240.05 613.96,239.79C609.51,239.53 605.06,239.22 600.61,238.85C596.16,238.48 591.71,238.06 587.27,237.59C582.82,237.11 578.37,236.58 573.92,236C569.47,235.42 563.93,234.62 560.57,234.1C558.52,233.78 557.5,233.58 555.64,233.27C553.21,232.87 550.34,232.44 547.22,231.9C543.28,231.21 538.32,230.29 533.88,229.42C529.43,228.55 524.98,227.63 520.53,226.66C516.08,225.69 511.62,224.68 507.18,223.62C502.74,222.56 498.31,221.44 493.875,220.3C489.42,219.16 484.94,217.99 480.49,216.78C476.03,215.56 471.58,214.31 467.14,213.01C462.69,211.71 457.14,210.02 453.8,208.96C451.78,208.32 450.66,208.39 448.95,207.35C446.34,205.77 442.08,201.65 440.45,199.1C439.39,197.45 439.45,196.35 438.79,194.39C437.7,191.15 435.96,185.76 434.61,181.43C433.27,177.12 431.98,172.8 430.73,168.47C429.48,164.15 428.29,159.8 427.11,155.475C425.94,151.16 424.78,146.87 423.69,142.55C422.6,138.24 421.56,133.92 420.56,129.59C419.56,125.28 418.61,120.96 417.71,116.63C416.81,112.31 415.86,107.5 415.16,103.67C414.6,100.64 414.17,97.86 413.76,95.5C413.44,93.69 413.23,92.7 412.9,90.71C412.36,87.45 411.53,82.08 410.93,77.76C410.33,73.44 409.79,69.12 409.3,64.8C408.81,60.48 408.38,56.16 408,51.84C407.62,47.52 407.3,43.2 407.03,38.88C406.76,34.56 406.55,30.24 406.4,25.92C406.25,21.6 406.15,17.28 406.11,12.96Q406.07,8.64 406.14,0L654,0Z" style="stroke: none; fill: rgb(228, 228, 39);"/><path d="M0,627.92L7.29,635L0,635ZM654,120.66Q645.09,121.46 640.65,122.11C636.19,122.76 631.75,123.64 627.31,124.57C622.85,125.5 617.74,126.75 613.96,127.68C611.16,128.37 609,129.02 606.68,129.59C604.57,130.11 603.02,130.42 600.61,130.99C597.03,131.83 591.72,133.16 587.27,134.2C582.82,135.24 578.38,136.28 573.92,137.25C569.48,138.21 565.09,139.14 560.57,139.99C555.93,140.87 551.02,141.72 546.4449999999999,142.435C542.14,143.11 538.14,143.68 533.88,144.21C529.5,144.76 524.98,145.25 520.53,145.66C516.08,146.07 510.23,147.78 507.18,146.67C505.15,145.93 503.69,144.54 502.94,142.55C501.83,139.59 503.56,133.91 503.98,129.59C504.4,125.27 504.92,120.88 505.48,116.63C506.03,112.5 506.61,108.61 507.305,104.43C508.04,99.98 508.92,95.21 509.82,90.71C510.7,86.32 511.65,82.07 512.64,77.76C513.63,73.44 514.7,69.12 515.78,64.8C516.86,60.48 518.23,55.32 519.1,51.84C519.68,49.49 520,47.99 520.53,45.94C521.12,43.69 521.79,41.59 522.5,38.88C523.46,35.22 524.74,30.25 525.7,25.92C526.65,21.61 527.57,17.29 528.24,12.96Q528.91,8.65 529.73,0L644.6,0L654,9.13Z" style="stroke: none; fill: rgb(240, 229, 38);"/></g><g class="contourlines" clip-path="url(#clipline5497ab)"><g class="contourlevel"/><g class="contourlevel"/><g class="contourlevel"/><g class="contourlevel"/><g class="contourlevel"/><g class="contourlevel"/><g class="contourlevel"/><g class="contourlevel"/><g class="contourlevel"/><g class="contourlevel"/><g class="contourlevel"/><g class="contourlevel"/><g class="contourlevel"/><g class="contourlevel"/><g class="contourlevel"/><g class="contourlevel"/><g class="contourlevel"/><g class="contourlevel"/><g class="contourlevel"/><g class="contourlevel"/><g class="contourlevel"/><g class="contourlevel"/><g class="contourlevel"/><g class="contourlevel"/><g class="contourlevel"/><g class="contourlevel"/><g class="contourlevel"/><g class="contourlevel"/><g class="contourlevel"/><g class="contourlevel"/><g class="contourlevel"/><g class="contourlevel"/><g class="contourlevel"/><g class="contourlevel"/><g class="contourlevel"/><g class="contourlevel"/><g class="contourlevel"/><g class="contourlevel"/><g class="contourlevel"/><g class="contourlevel"/><g class="contourlevel"/><g class="contourlevel"/><g class="contourlevel"/><g class="contourlevel"><path class="closedline" d="M111.41,518.37C112.07,521.76 116.65,526.17 120.12,526.83C123.9,527.55 130.01,522.94 133.47,521.31C135.75,520.24 137.04,519.52 139.03,518.37C141.43,516.98 144.11,515.38 146.82,513.45C150.02,511.17 154.5,507.53 156.9,505.41C158.33,504.15 158.85,503.6 160.16,502.21C162.37,499.87 166.32,495.51 168.69,492.45C170.61,489.96 172.05,487.64 173.51,485.37C174.82,483.34 175.81,481.87 177.11,479.49C178.98,476.05 181.62,470.61 183.32,466.53C184.77,463.03 186.25,459.06 186.86,456.57C187.21,455.13 187.86,453.59 187.36,453.08500000000004C186.85,452.57 185.25,453.23 183.77,453.57C181.21,454.17 177.12,455.59 173.51,457C169.31,458.64 163.71,461.21 160.16,463.03C157.71,464.29 156.2,465.25 154.1,466.53C151.77,467.95 149.38,469.34 146.82,471.21C143.67,473.5 139.17,477.35 136.76,479.49C135.33,480.76 134.77,481.26 133.47,482.65C131.29,484.98 127.53,489.33 125.18,492.45C123.2,495.07 121.55,497.67 120.12,500C118.94,501.93 118.21,503.19 117.1,505.41C115.43,508.77 110.69,514.71 111.41,518.37Z" style="stroke-miterlimit: 1; vector-effect: none; fill: none; stroke: rgb(0, 0, 0); stroke-opacity: 1; stroke-width: 0.5px;"/></g><g class="contourlevel"><path class="openline" d="M272.69,635Q273.48,626.36 273.93,622.04C274.38,617.72 274.89,613.4 275.38,609.08C275.87,604.76 276.4,600.44 276.89,596.12C277.38,591.8 277.87,587.48 278.31,583.16C278.74,578.84 279.16,574.46 279.5,570.2C279.83,566.08 280.11,562.2 280.33500000000004,558.015C280.58,553.58 280.77,548.8 280.89,544.29C281,539.91 281.05,535.65 281.03,531.33C281.01,527.01 280.92,522.39 280.78,518.37C280.66,514.87 280.41,510.91 280.29,508.55C280.22,507.21 280.23,506.81 280.14,505.41C279.96,502.56 279.52,496.77 279.12,492.45C278.72,488.13 278.25,483.81 277.73,479.49C277.21,475.17 276.62,470.85 275.98,466.53C275.34,462.21 274.63,457.89 273.87,453.57C273.11,449.25 272.3,444.92 271.42,440.61C270.54,436.28 269.45,431.26 268.61,427.65C268,425.05 267.46,423.15 266.94,420.95C266.43,418.83 266.11,417.15 265.51,414.69C264.64,411.14 263.32,406.04 262.14,401.73C260.96,397.4 260.27,391.86 258.42,388.78C257.11,386.6 255.81,385.36 253.59,384.09C250.4,382.28 244.7,381.63 240.24,380.48C235.8,379.33 230.55,378.04 226.9,377.2C224.37,376.62 222.64,376.31 220.46,375.82C218.19,375.31 216.23,374.78 213.55,374.19C209.83,373.37 204.65,372.32 200.2,371.47C195.76,370.62 191.31,369.82 186.86,369.08C182.42,368.34 177.96,367.66 173.51,367.04C169.06,366.42 164.61,365.85 160.16,365.34C155.72,364.83 151.27,364.38 146.82,363.99C142.37,363.6 136.41,363.17 133.47,363C132.03,362.92 131.62,362.92 130.24,362.86C127.8,362.75 123.73,362.5 120.12,362.38C115.98,362.24 111.23,362.15 106.78,362.13C102.33,362.11 97.94,362.16 93.43,362.27C88.78,362.38 83.86,362.58 79.285,362.81C74.97,363.03 70.98,363.3 66.73,363.62C62.35,363.95 57.84,364.36 53.39,364.78C48.94,365.2 44.49,365.68 40.04,366.15C35.59,366.62 31.14,367.14 26.69,367.62C22.24,368.1 17.8,368.59 13.35,369.03Q8.9,369.46 0,370.23" style="stroke-miterlimit: 1; vector-effect: none; fill: none; stroke: rgb(0, 0, 0); stroke-opacity: 1; stroke-width: 0.5px;"/><path class="openline" d="M0,503.56Q3.2,504.8 5.12,505.41C7.53,506.18 10.38,506.39 13.35,507.7C17.38,509.48 24.21,514.06 26.69,516.1C27.8,517.01 27.83,517.35 28.84,518.37C31.1,520.65 38.1,526.86 40.04,529.16C40.84,530.1 40.81,530.31 41.52,531.33C43.26,533.84 48.52,541.21 50.67,544.29C51.85,545.99 52.43,546.62 53.39,548.25C54.77,550.6 56.31,553.95 57.85,557.24C59.68,561.15 61.64,567.47 63.54,570.2C64.6,571.73 65.17,572.27 66.73,573.3C69.55,575.16 76.05,577.06 80.08,578.83C83.47,580.32 86.91,581.82 89.34,583.16C91.02,584.09 91.68,584.65 93.43,585.8C96.61,587.88 104.19,593 106.78,594.69C107.83,595.38 108.04,595.35 109.01,596.12C111.37,598 117.77,604.8 120.12,606.99C121.17,607.98 121.52,608 122.46,609.08C124.55,611.49 129.27,618.11 131.11,622.04C132.45,624.91 132.68,627.7 133.47,630.03Q134.1,631.9 135.38,635" style="stroke-miterlimit: 1; vector-effect: none; fill: none; stroke: rgb(0, 0, 0); stroke-opacity: 1; stroke-width: 0.5px;"/></g><g class="contourlevel"><path class="openline" d="M456.85,635Q456.71,626.35 456.38,622.04C456.05,617.71 455.4,612.47 454.87,609.08C454.52,606.87 454.18,605.59 453.8,603.63C453.36,601.33 453.02,598.95 452.38,596.12C451.54,592.37 450.26,587.46 448.98,583.16C447.69,578.82 446.16,574.28 444.67,570.2C443.31,566.48 441.34,561.93 440.45,559.65C440.03,558.57 439.99,558.35 439.53,557.24C438.45,554.63 435.81,548.6 433.78,544.29C431.71,539.89 429.45,535.46 427.22,531.115C425.02,526.82 422.8,522.57 420.5,518.37C418.21,514.19 415.88,510.19 413.455,505.97C410.91,501.55 407.94,496.39 405.56,492.45C403.68,489.34 401.85,486.54 400.41,484.16C399.34,482.39 398.84,481.43 397.67,479.49C395.71,476.24 391.57,469.58 389.62,466.53C388.54,464.84 388.06,464.21 387.06,462.63C385.54,460.25 383.52,456.82 381.47,453.57C379.05,449.73 376.15,445.31 373.435,441.065C370.63,436.68 367.32,431.37 364.91,427.65C363.18,424.98 361.8,423.04 360.37,420.81C359.03,418.72 358.1,417.1 356.57,414.69C354.33,411.16 349.72,404.03 348.19,401.73C347.63,400.88 347.57,400.84 347.02,400.01C345.64,397.91 342.19,392.34 339.88,388.78C337.75,385.5 335.2,381.8 333.67,379.4C332.73,377.93 332.45,377.38 331.47,375.82C329.58,372.84 325.11,365.94 323.06,362.86C321.91,361.14 321.39,360.47 320.33,358.86C318.76,356.48 316.69,353.06 314.63,349.9C312.29,346.3 308.64,340.44 306.98,338.45C306.32,337.66 306.24,337.58 305.43,336.94C303.38,335.32 297.33,331.79 293.63,329.51C290.38,327.51 286.85,325.51 284.4,323.98C282.75,322.95 282.06,322.43 280.29,321.32C277.12,319.33 270.01,314.99 266.94,313.16C265.33,312.2 264.76,311.93 263.25,311.02C260.78,309.53 256.97,307.05 253.59,304.99C249.92,302.74 244.19,299.4 242.02,298.06C241.16,297.53 241.11,297.47 240.24,296.92C237.86,295.44 230.53,290.95 226.9,288.78C224.42,287.3 222.75,286.4 220.6,285.1C218.31,283.71 216.3,282.37 213.55,280.69C209.72,278.35 204.25,275.13 199.73,272.40999999999997C195.36,269.78 190.82,266.96 186.86,264.61C183.51,262.62 179.98,260.65 177.52,259.18C175.9,258.21 175.24,257.74 173.51,256.7C170.37,254.81 163.5,250.79 160.16,248.88C158.17,247.74 157.18,247.26 155.36,246.22C152.91,244.83 150.03,243.04 146.82,241.22C142.76,238.91 137.44,236.03 132.89,233.56C128.55,231.2 124.42,228.94 120.12,226.72C115.79,224.48 111.42,222.33 107,220.19C102.53,218.03 97.96,215.83 93.43,213.82C88.98,211.85 82.77,209.28 80.08,208.24C78.93,207.79 78.72,207.76 77.6,207.35C75.26,206.49 70.56,204.57 66.73,203.25C62.53,201.8 57.86,200.32 53.39,199.07C48.96,197.83 43.9,196.58 40.04,195.76C37.13,195.14 34.68,194.82 32.31,194.39C30.29,194.02 28.97,193.68 26.69,193.34C23.2,192.82 17.8,192.19 13.35,191.87Q8.91,191.55 0,191.42" style="stroke-miterlimit: 1; vector-effect: none; fill: none; stroke: rgb(0, 0, 0); stroke-opacity: 1; stroke-width: 0.5px;"/><path class="openline" d="M0,565.39Q10.99,568.16 13.35,569.16C14.27,569.55 14.29,569.72 15.16,570.2C17.34,571.41 23.42,574.03 26.69,576.38C29.54,578.42 31.65,580.93 33.94,583.16C36.08,585.25 37.93,587.24 40.04,589.34C42.28,591.56 44.74,593.95 47.03,596.12C49.19,598.17 51.24,599.97 53.39,602.05C55.68,604.27 58.26,606.3 60.37,609.08C62.77,612.25 65.48,618.17 66.73,620.28C67.23,621.13 67.41,621.14 67.81,622.04Q68.84,624.33 71.69,635" style="stroke-miterlimit: 1; vector-effect: none; fill: none; stroke: rgb(0, 0, 0); stroke-opacity: 1; stroke-width: 0.5px;"/></g><g class="contourlevel"><path class="openline" d="M0,592.05Q8.41,594.29 12.59,596.355C17.31,598.68 23.64,603.27 26.69,605.72C28.32,607.03 28.8,607.49 30.16,609.08C32.68,612.03 37.4,618.18 39.8,622.78Q41.91,626.83 44.24,635" style="stroke-miterlimit: 1; vector-effect: none; fill: none; stroke: rgb(0, 0, 0); stroke-opacity: 1; stroke-width: 0.5px;"/><path class="openline" d="M654,489.53Q645.09,489.1 640.65,488.62C636.19,488.14 631.74,487.48 627.31,486.64C622.84,485.8 618.38,484.77 613.96,483.58C609.5,482.38 605.09,480.96 600.665,479.475C596.19,477.97 591.7,476.39 587.27,474.61C582.79,472.81 577.13,470.28 573.92,468.75C572.07,467.87 571.31,467.38 569.6,466.53C567.15,465.31 563.85,463.87 560.57,462.18C556.53,460.09 549.67,456.23 547.22,454.79C546.27,454.23 546.19,454.13 545.27,453.57C543.05,452.22 537.48,449.1 533.88,446.86C530.54,444.78 526.83,442.19 524.36,440.61C522.81,439.62 522.18,439.31 520.53,438.23C517.41,436.19 509.6,430.81 507.18,429.07C506.25,428.4 506.19,428.31 505.29,427.65C503.09,426.04 497.05,421.86 493.84,419.47C491.45,417.69 489.82,416.31 487.68,414.69C485.39,412.95 483.04,411.33 480.49,409.37C477.51,407.08 473.41,403.66 470.94,401.73C469.4,400.52 468.76,400.12 467.14,398.83C464.12,396.44 458.74,391.97 454.365,388.33C449.71,384.45 444.65,380.19 440.005,376.22C435.58,372.44 429.68,367.37 427.1,365.07C425.97,364.06 425.8,363.85 424.71,362.86C422.39,360.77 416.39,355.6 413.76,353.21C412.25,351.83 411.71,351.26 410.23,349.9C407.79,347.66 403.01,343.5 400.41,341.09C398.66,339.47 397.79,338.54 396.07,336.94C393.62,334.66 389.59,331.13 387.06,328.75C385.16,326.96 384.02,325.75 382.15,323.98C379.73,321.69 376.18,318.56 373.71,316.21C371.73,314.32 370.39,312.89 368.43,311.02C366.04,308.74 362.78,305.85 360.37,303.53C358.34,301.58 356.87,300.03 354.87,298.06C352.49,295.72 349.43,292.75 347.02,290.44C344.99,288.5 343.4,287.07 341.39,285.1C339,282.76 336.02,279.59 333.67,277.27C331.74,275.36 330.26,274.07 328.32,272.14C325.9,269.75 322.68,266.3 320.33,263.95C318.51,262.13 317.26,261.03 315.42,259.18C312.97,256.72 309.33,252.82 306.98,250.44C305.33,248.77 304.38,247.93 302.7,246.22C300.22,243.7 295.94,239.05 293.63,236.68C292.23,235.25 291.64,234.74 290.22,233.27C287.76,230.72 282.44,224.88 280.29,222.63C279.27,221.57 279.05,221.4 278.01,220.31C275.64,217.81 270.42,212.08 266.525,207.78C262.44,203.27 258.04,198.36 254.05,193.83999999999997C250.3,189.6 245.71,184.36 243.24,181.43C241.91,179.85 241.49,179.24 240.24,177.74C238.25,175.34 234.74,171.36 232.38,168.47C230.36,166 228.69,163.72 226.9,161.49C225.23,159.41 223.81,157.83 221.97,155.51C219.51,152.39 215.21,146.53 213.55,144.39C212.87,143.51 212.78,143.45 212.09,142.55C210.3,140.2 204.76,132.62 202.66,129.59C201.55,127.99 201.22,127.39 200.2,125.88C198.57,123.48 195.91,119.88 193.77,116.63C191.47,113.13 188.25,107.73 186.86,105.57C186.28,104.67 186.18,104.6 185.6,103.67C184.11,101.29 180.16,94.64 178,90.71C176.26,87.53 174.77,84.33 173.51,81.95C172.63,80.29 172.13,79.56 171.22,77.76C169.65,74.65 167.04,69.16 165.19,64.8C163.36,60.5 161.73,56.13 160.18,51.785C158.65,47.49 157.18,43.21 155.95,38.88C154.73,34.59 153.67,30.26 152.8,25.92C151.94,21.62 151.26,17.29 150.76,12.96Q150.27,8.65 149.82,0" style="stroke-miterlimit: 1; vector-effect: none; fill: none; stroke: rgb(0, 0, 0); stroke-opacity: 1; stroke-width: 0.5px;"/></g><g class="contourlevel"><path class="openline" d="M0,609.01Q9.67,611.96 13.35,614.35C16.58,616.44 19.11,618.88 21.27,622.04Q23.71,625.6 26.76,635" style="stroke-miterlimit: 1; vector-effect: none; fill: none; stroke: rgb(0, 0, 0); stroke-opacity: 1; stroke-width: 0.5px;"/><path class="openline" d="M654,350.09Q647.54,349.95 645.08,349.9C643.35,349.86 642.52,349.89 640.65,349.81C637.4,349.66 631.75,349.3 627.31,348.88C622.86,348.46 618.4,347.93 613.96,347.3C609.5,346.67 605.05,345.92 600.61,345.08C596.15,344.23 591.71,343.27 587.27,342.22C582.81,341.16 577.47,339.75 573.92,338.75C571.55,338.08 570.1,337.57 568.02,336.94C565.68,336.23 563.4,335.63 560.57,334.73C556.75,333.51 551.65,331.78 547.22,330.18C542.76,328.57 536.59,326.18 533.88,325.08C532.68,324.59 532.46,324.46 531.3,323.98C528.94,323 524.3,321.19 520.53,319.57C516.3,317.76 510.6,315.19 507.18,313.59C505.01,312.58 503.86,311.95 501.91,311.02C499.51,309.88 496.85,308.72 493.84,307.26C489.93,305.37 483.77,302.26 480.49,300.55C478.55,299.54 477.67,299 475.89,298.06C473.44,296.77 470.35,295.27 467.14,293.56C463.15,291.44 456.25,287.63 453.8,286.24C452.86,285.7 452.78,285.63 451.86,285.1C449.64,283.83 444.22,280.92 440.45,278.76C436.68,276.6 431.49,273.44 429.22,272.14C428.24,271.58 428.1,271.54 427.1,270.97C424.56,269.52 417.35,265.25 413.76,263.06C411.3,261.56 409.73,260.49 407.59,259.18C405.3,257.78 402.83,256.79 400.41,254.95C397.45,252.69 393.76,249.11 391.43,246.22C389.54,243.88 388.5,241.47 387.06,239.25C385.71,237.17 384.62,235.66 383.07,233.27C380.81,229.79 376.42,222.78 374.92,220.31C374.33,219.33 374.29,219.2 373.71,218.25C372.37,216.04 369.12,211.01 366.9,207.35C364.68,203.69 361.68,198.42 360.37,196.27C359.83,195.38 359.74,195.3 359.19,194.39C357.75,192.01 353.85,185.31 351.66,181.43C349.9,178.31 348.35,175.3 347.02,172.93C346.05,171.2 345.5,170.35 344.46,168.47C342.7,165.29 339.5,159.3 337.55,155.51C336.05,152.58 334.85,150 333.67,147.67C332.71,145.78 332.06,144.66 331.02,142.55C329.37,139.23 326.73,133.69 324.87,129.59C323.21,125.93 321.35,121.43 320.33,119.14C319.83,118.01 319.69,117.8 319.19,116.63C318.06,114 315.6,108.01 313.94,103.67C312.29,99.37 310.51,94.42 309.26,90.71C308.33,87.96 307.71,85.75 306.98,83.48C306.33,81.46 305.8,80.06 305.11,77.76C304.07,74.32 302.63,69.13 301.54,64.8C300.46,60.49 299.47,56.17 298.6,51.84C297.73,47.53 296.96,43.21 296.31,38.88C295.66,34.57 295.12,30.25 294.69,25.92C294.26,21.61 293.88,16.12 293.73,12.96C293.64,11.14 293.67,10.34 293.63,8.66Q293.58,6.27 293.44,0" style="stroke-miterlimit: 1; vector-effect: none; fill: none; stroke: rgb(0, 0, 0); stroke-opacity: 1; stroke-width: 0.5px;"/></g><g class="contourlevel"><path class="openline" d="M0,620.16Q2.05,621.04 3.4,622.04C5.95,623.93 11.4,629.22 13.35,631.7Q14.37,633 15.29,635" style="stroke-miterlimit: 1; vector-effect: none; fill: none; stroke: rgb(0, 0, 0); stroke-opacity: 1; stroke-width: 0.5px;"/><path class="openline" d="M654,240.66Q645.1,240.73 640.65,240.69C636.2,240.65 631.76,240.56 627.31,240.41C622.86,240.26 618.41,240.05 613.96,239.79C609.51,239.53 605.06,239.22 600.61,238.85C596.16,238.48 591.71,238.06 587.27,237.59C582.82,237.11 578.37,236.58 573.92,236C569.47,235.42 563.93,234.62 560.57,234.1C558.52,233.78 557.5,233.58 555.64,233.27C553.21,232.87 550.34,232.44 547.22,231.9C543.28,231.21 538.32,230.29 533.88,229.42C529.43,228.55 524.98,227.63 520.53,226.66C516.08,225.69 511.62,224.68 507.18,223.62C502.74,222.56 498.31,221.44 493.875,220.3C489.42,219.16 484.94,217.99 480.49,216.78C476.03,215.56 471.58,214.31 467.14,213.01C462.69,211.71 457.14,210.02 453.8,208.96C451.78,208.32 450.66,208.39 448.95,207.35C446.34,205.77 442.08,201.65 440.45,199.1C439.39,197.45 439.45,196.35 438.79,194.39C437.7,191.15 435.96,185.76 434.61,181.43C433.27,177.12 431.98,172.8 430.73,168.47C429.48,164.15 428.29,159.8 427.11,155.475C425.94,151.16 424.78,146.87 423.69,142.55C422.6,138.24 421.56,133.92 420.56,129.59C419.56,125.28 418.61,120.96 417.71,116.63C416.81,112.31 415.86,107.5 415.16,103.67C414.6,100.64 414.17,97.86 413.76,95.5C413.44,93.69 413.23,92.7 412.9,90.71C412.36,87.45 411.53,82.08 410.93,77.76C410.33,73.44 409.79,69.12 409.3,64.8C408.81,60.48 408.38,56.16 408,51.84C407.62,47.52 407.3,43.2 407.03,38.88C406.76,34.56 406.55,30.24 406.4,25.92C406.25,21.6 406.15,17.28 406.11,12.96Q406.07,8.64 406.14,0" style="stroke-miterlimit: 1; vector-effect: none; fill: none; stroke: rgb(0, 0, 0); stroke-opacity: 1; stroke-width: 0.5px;"/></g><g class="contourlevel"><path class="openline" d="M0,627.92L7.29,635" style="stroke-miterlimit: 1; vector-effect: none; fill: none; stroke: rgb(0, 0, 0); stroke-opacity: 1; stroke-width: 0.5px;"/><path class="openline" d="M654,120.66Q645.09,121.46 640.65,122.11C636.19,122.76 631.75,123.64 627.31,124.57C622.85,125.5 617.74,126.75 613.96,127.68C611.16,128.37 609,129.02 606.68,129.59C604.57,130.11 603.02,130.42 600.61,130.99C597.03,131.83 591.72,133.16 587.27,134.2C582.82,135.24 578.38,136.28 573.92,137.25C569.48,138.21 565.09,139.14 560.57,139.99C555.93,140.87 551.02,141.72 546.4449999999999,142.435C542.14,143.11 538.14,143.68 533.88,144.21C529.5,144.76 524.98,145.25 520.53,145.66C516.08,146.07 510.23,147.78 507.18,146.67C505.15,145.93 503.69,144.54 502.94,142.55C501.83,139.59 503.56,133.91 503.98,129.59C504.4,125.27 504.92,120.88 505.48,116.63C506.03,112.5 506.61,108.61 507.305,104.43C508.04,99.98 508.92,95.21 509.82,90.71C510.7,86.32 511.65,82.07 512.64,77.76C513.63,73.44 514.7,69.12 515.78,64.8C516.86,60.48 518.23,55.32 519.1,51.84C519.68,49.49 520,47.99 520.53,45.94C521.12,43.69 521.79,41.59 522.5,38.88C523.46,35.22 524.74,30.25 525.7,25.92C526.65,21.61 527.57,17.29 528.24,12.96Q528.91,8.65 529.73,0" style="stroke-miterlimit: 1; vector-effect: none; fill: none; stroke: rgb(0, 0, 0); stroke-opacity: 1; stroke-width: 0.5px;"/><path class="openline" d="M644.6,0L654,9.13" style="stroke-miterlimit: 1; vector-effect: none; fill: none; stroke: rgb(0, 0, 0); stroke-opacity: 1; stroke-width: 0.5px;"/></g><g class="contourlevel"/></g><g class="contourlabels"><text data-notex="1" text-anchor="middle" x="180.2433917111019" y="459.6396422549722" transform="rotate(0.04241948301881792 180.2433917111019 459.6396422549722)" style="white-space: pre; font-family: arial; font-size: 12px; fill: rgb(0, 0, 0); fill-opacity: 1;">0.86</text><text data-notex="1" text-anchor="middle" x="81.02578296681881" y="366.77505920693494" transform="rotate(-2.8152717202476705 81.02578296681881 366.77505920693494)" style="white-space: pre; font-family: arial; font-size: 12px; fill: rgb(0, 0, 0); fill-opacity: 1;">0.88</text><text data-notex="1" text-anchor="middle" x="281.51785873008924" y="590.5683724499647" transform="rotate(-83.7905886878422 281.51785873008924 590.5683724499647)" style="white-space: pre; font-family: arial; font-size: 12px; fill: rgb(0, 0, 0); fill-opacity: 1;">0.88</text><text data-notex="1" text-anchor="middle" x="73.07791904468083" y="580.2072260231848" transform="rotate(25.247638667961276 73.07791904468083 580.2072260231848)" style="white-space: pre; font-family: arial; font-size: 12px; fill: rgb(0, 0, 0); fill-opacity: 1;">0.88</text><text data-notex="1" text-anchor="middle" x="51.95935346101296" y="202.87933784601572" transform="rotate(15.577500245711473 51.95935346101296 202.87933784601572)" style="white-space: pre; font-family: arial; font-size: 12px; fill: rgb(0, 0, 0); fill-opacity: 1;">0.9</text><text data-notex="1" text-anchor="middle" x="416.070666976526" y="518.6863652261054" transform="rotate(61.007572051565724 416.070666976526 518.6863652261054)" style="white-space: pre; font-family: arial; font-size: 12px; fill: rgb(0, 0, 0); fill-opacity: 1;">0.9</text><text data-notex="1" text-anchor="middle" x="18.109752048090307" y="576.2292123127021" transform="rotate(28.417887922601434 18.109752048090307 576.2292123127021)" style="white-space: pre; font-family: arial; font-size: 12px; fill: rgb(0, 0, 0); fill-opacity: 1;">0.9</text><text data-notex="1" text-anchor="middle" x="594.1635898066564" y="481.3781268408936" transform="rotate(19.76706297752071 594.1635898066564 481.3781268408936)" style="white-space: pre; font-family: arial; font-size: 12px; fill: rgb(0, 0, 0); fill-opacity: 1;">0.92</text><text data-notex="1" text-anchor="middle" x="196.2845918902575" y="127.24084550831725" transform="rotate(55.36731927756652 196.2845918902575 127.24084550831725)" style="white-space: pre; font-family: arial; font-size: 12px; fill: rgb(0, 0, 0); fill-opacity: 1;">0.92</text><text data-notex="1" text-anchor="middle" x="378.6817195155953" y="326.24937827930063" transform="rotate(43.13594411526032 378.6817195155953 326.24937827930063)" style="white-space: pre; font-family: arial; font-size: 12px; fill: rgb(0, 0, 0); fill-opacity: 1;">0.92</text><text data-notex="1" text-anchor="middle" x="593.4060775873472" y="347.6232227772248" transform="rotate(12.031842677919176 593.4060775873472 347.6232227772248)" style="white-space: pre; font-family: arial; font-size: 12px; fill: rgb(0, 0, 0); fill-opacity: 1;">0.94</text><text data-notex="1" text-anchor="middle" x="304.8774210874399" y="90.00234534710498" transform="rotate(71.51376437366868 304.8774210874399 90.00234534710498)" style="white-space: pre; font-family: arial; font-size: 12px; fill: rgb(0, 0, 0); fill-opacity: 1;">0.94</text><text data-notex="1" text-anchor="middle" x="589.5796642439108" y="241.80749415673102" transform="rotate(5.819586970579193 589.5796642439108 241.80749415673102)" style="white-space: pre; font-family: arial; font-size: 12px; fill: rgb(0, 0, 0); fill-opacity: 1;">0.96</text><text data-notex="1" text-anchor="middle" x="403.4037529768506" y="43.91288415527895" transform="rotate(85.91795816692199 403.4037529768506 43.91288415527895)" style="white-space: pre; font-family: arial; font-size: 12px; fill: rgb(0, 0, 0); fill-opacity: 1;">0.96</text><text data-notex="1" text-anchor="middle" x="597.0188490630507" y="135.9727370658015" transform="rotate(-13.36764105591937 597.0188490630507 135.9727370658015)" style="white-space: pre; font-family: arial; font-size: 12px; fill: rgb(0, 0, 0); fill-opacity: 1;">0.98</text></g></g></g></g><g class="overplot"/><path class="xlines-above crisp" d="M46,652.5H702M46,16.5H702" style="fill: none; stroke-width: 1px; stroke: rgb(36, 36, 36); stroke-opacity: 1;"/><path class="ylines-above crisp" d="M46.5,17V652M701.5,17V652" style="fill: none; stroke-width: 1px; stroke: rgb(36, 36, 36); stroke-opacity: 1;"/><g class="overlines-above"/><g class="xaxislayer-above"><path class="xtick ticks crisp" d="M0,653v5" transform="translate(47,0)" style="stroke: rgb(68, 68, 68); stroke-opacity: 1; stroke-width: 1px;"/><path class="xtick ticks crisp" d="M0,653v5" transform="translate(165.91,0)" style="stroke: rgb(68, 68, 68); stroke-opacity: 1; stroke-width: 1px;"/><path class="xtick ticks crisp" d="M0,653v5" transform="translate(284.82,0)" style="stroke: rgb(68, 68, 68); stroke-opacity: 1; stroke-width: 1px;"/><path class="xtick ticks crisp" d="M0,653v5" transform="translate(403.73,0)" style="stroke: rgb(68, 68, 68); stroke-opacity: 1; stroke-width: 1px;"/><path class="xtick ticks crisp" d="M0,653v5" transform="translate(522.64,0)" style="stroke: rgb(68, 68, 68); stroke-opacity: 1; stroke-width: 1px;"/><path class="xtick ticks crisp" d="M0,653v5" transform="translate(641.55,0)" style="stroke: rgb(68, 68, 68); stroke-opacity: 1; stroke-width: 1px;"/><g class="xtick"><text text-anchor="middle" x="0" y="672.4" transform="translate(47,0)" style="font-family: arial; font-size: 12px; fill: rgb(0, 0, 0); fill-opacity: 1; white-space: pre; opacity: 1;">0</text></g><g class="xtick"><text text-anchor="middle" x="0" y="672.4" style="font-family: arial; font-size: 12px; fill: rgb(0, 0, 0); fill-opacity: 1; white-space: pre; opacity: 1;" transform="translate(165.91,0)">1</text></g><g class="xtick"><text text-anchor="middle" x="0" y="672.4" style="font-family: arial; font-size: 12px; fill: rgb(0, 0, 0); fill-opacity: 1; white-space: pre; opacity: 1;" transform="translate(284.82,0)">2</text></g><g class="xtick"><text text-anchor="middle" x="0" y="672.4" style="font-family: arial; font-size: 12px; fill: rgb(0, 0, 0); fill-opacity: 1; white-space: pre; opacity: 1;" transform="translate(403.73,0)">3</text></g><g class="xtick"><text text-anchor="middle" x="0" y="672.4" style="font-family: arial; font-size: 12px; fill: rgb(0, 0, 0); fill-opacity: 1; white-space: pre; opacity: 1;" transform="translate(522.64,0)">4</text></g><g class="xtick"><text text-anchor="middle" x="0" y="672.4" style="font-family: arial; font-size: 12px; fill: rgb(0, 0, 0); fill-opacity: 1; white-space: pre; opacity: 1;" transform="translate(641.55,0)">5</text></g></g><g class="yaxislayer-above"><path class="ytick ticks crisp" d="M46,0h-5" transform="translate(0,652)" style="stroke: rgb(68, 68, 68); stroke-opacity: 1; stroke-width: 1px;"/><path class="ytick ticks crisp" d="M46,0h-5" transform="translate(0,581.44)" style="stroke: rgb(68, 68, 68); stroke-opacity: 1; stroke-width: 1px;"/><path class="ytick ticks crisp" d="M46,0h-5" transform="translate(0,510.89)" style="stroke: rgb(68, 68, 68); stroke-opacity: 1; stroke-width: 1px;"/><path class="ytick ticks crisp" d="M46,0h-5" transform="translate(0,440.33)" style="stroke: rgb(68, 68, 68); stroke-opacity: 1; stroke-width: 1px;"/><path class="ytick ticks crisp" d="M46,0h-5" transform="translate(0,369.78)" style="stroke: rgb(68, 68, 68); stroke-opacity: 1; stroke-width: 1px;"/><path class="ytick ticks crisp" d="M46,0h-5" transform="translate(0,299.22)" style="stroke: rgb(68, 68, 68); stroke-opacity: 1; stroke-width: 1px;"/><path class="ytick ticks crisp" d="M46,0h-5" transform="translate(0,228.67)" style="stroke: rgb(68, 68, 68); stroke-opacity: 1; stroke-width: 1px;"/><path class="ytick ticks crisp" d="M46,0h-5" transform="translate(0,158.11)" style="stroke: rgb(68, 68, 68); stroke-opacity: 1; stroke-width: 1px;"/><path class="ytick ticks crisp" d="M46,0h-5" transform="translate(0,87.56)" style="stroke: rgb(68, 68, 68); stroke-opacity: 1; stroke-width: 1px;"/><path class="ytick ticks crisp" d="M46,0h-5" transform="translate(0,17)" style="stroke: rgb(68, 68, 68); stroke-opacity: 1; stroke-width: 1px;"/><g class="ytick"><text text-anchor="end" x="38.6" y="4.199999999999999" transform="translate(0,652)" style="font-family: arial; font-size: 12px; fill: rgb(0, 0, 0); fill-opacity: 1; white-space: pre; opacity: 1;">0</text></g><g class="ytick"><text text-anchor="end" x="38.6" y="4.199999999999999" style="font-family: arial; font-size: 12px; fill: rgb(0, 0, 0); fill-opacity: 1; white-space: pre; opacity: 1;" transform="translate(0,581.44)">5</text></g><g class="ytick"><text text-anchor="end" x="38.6" y="4.199999999999999" style="font-family: arial; font-size: 12px; fill: rgb(0, 0, 0); fill-opacity: 1; white-space: pre; opacity: 1;" transform="translate(0,510.89)">10</text></g><g class="ytick"><text text-anchor="end" x="38.6" y="4.199999999999999" style="font-family: arial; font-size: 12px; fill: rgb(0, 0, 0); fill-opacity: 1; white-space: pre; opacity: 1;" transform="translate(0,440.33)">15</text></g><g class="ytick"><text text-anchor="end" x="38.6" y="4.199999999999999" style="font-family: arial; font-size: 12px; fill: rgb(0, 0, 0); fill-opacity: 1; white-space: pre; opacity: 1;" transform="translate(0,369.78)">20</text></g><g class="ytick"><text text-anchor="end" x="38.6" y="4.199999999999999" style="font-family: arial; font-size: 12px; fill: rgb(0, 0, 0); fill-opacity: 1; white-space: pre; opacity: 1;" transform="translate(0,299.22)">25</text></g><g class="ytick"><text text-anchor="end" x="38.6" y="4.199999999999999" style="font-family: arial; font-size: 12px; fill: rgb(0, 0, 0); fill-opacity: 1; white-space: pre; opacity: 1;" transform="translate(0,228.67)">30</text></g><g class="ytick"><text text-anchor="end" x="38.6" y="4.199999999999999" style="font-family: arial; font-size: 12px; fill: rgb(0, 0, 0); fill-opacity: 1; white-space: pre; opacity: 1;" transform="translate(0,158.11)">35</text></g><g class="ytick"><text text-anchor="end" x="38.6" y="4.199999999999999" style="font-family: arial; font-size: 12px; fill: rgb(0, 0, 0); fill-opacity: 1; white-space: pre; opacity: 1;" transform="translate(0,87.56)">40</text></g><g class="ytick"><text text-anchor="end" x="38.6" y="4.199999999999999" style="font-family: arial; font-size: 12px; fill: rgb(0, 0, 0); fill-opacity: 1; white-space: pre; opacity: 1;" transform="translate(0,17)">45</text></g></g><g class="overaxes-above"/></g></g><g class="polarlayer"/><g class="smithlayer"/><g class="ternarylayer"/><g class="geolayer"/><g class="funnelarealayer"/><g class="pielayer"/><g class="iciclelayer"/><g class="treemaplayer"/><g class="sunburstlayer"/><g class="glimages"/><defs id="topdefs-b638ec"><g class="clips"/></defs><g class="layer-above"><g class="imagelayer"/><g class="shapelayer"/></g><g class="infolayer"><g class="cb5497ab colorbar" transform="translate(47,17)"><rect class="cbbg" x="666.5" y="0" width="75.421875" height="636" style="fill: rgb(0, 0, 0); fill-opacity: 0; stroke: rgb(68, 68, 68); stroke-opacity: 1; stroke-width: 0;"/><g class="cbfills" transform="translate(0,33)"><rect class="cbfill" style="" x="677" y="1" width="30" height="591" fill="#440154"/><rect class="cbfill" style="" x="677" y="1" width="30" height="585" fill="#45085a"/><rect class="cbfill" style="" x="677" y="1" width="30" height="574" fill="#450f61"/><rect class="cbfill" style="" x="677" y="1" width="30" height="562" fill="#461667"/><rect class="cbfill" style="" x="677" y="1" width="30" height="550" fill="#471d6d"/><rect class="cbfill" style="" x="677" y="1" width="30" height="539" fill="#482374"/><rect class="cbfill" style="" x="677" y="1" width="30" height="527" fill="#472a79"/><rect class="cbfill" style="" x="677" y="1" width="30" height="516" fill="#46307c"/><rect class="cbfill" style="" x="677" y="1" width="30" height="504" fill="#44367f"/><rect class="cbfill" style="" x="677" y="1" width="30" height="492" fill="#423b82"/><rect class="cbfill" style="" x="677" y="1" width="30" height="481" fill="#404185"/><rect class="cbfill" style="" x="677" y="1" width="30" height="469" fill="#3f4788"/><rect class="cbfill" style="" x="677" y="1" width="30" height="458" fill="#3c4d8a"/><rect class="cbfill" style="" x="677" y="1" width="30" height="446" fill="#3a528a"/><rect class="cbfill" style="" x="677" y="1" width="30" height="434" fill="#38588b"/><rect class="cbfill" style="" x="677" y="1" width="30" height="423" fill="#365d8c"/><rect class="cbfill" style="" x="677" y="1" width="30" height="411" fill="#33638d"/><rect class="cbfill" style="" x="677" y="1" width="30" height="400" fill="#31688e"/><rect class="cbfill" style="" x="677" y="1" width="30" height="388" fill="#2f6d8e"/><rect class="cbfill" style="" x="677" y="1" width="30" height="376" fill="#2d718e"/><rect class="cbfill" style="" x="677" y="1" width="30" height="365" fill="#2b768e"/><rect class="cbfill" style="" x="677" y="1" width="30" height="353" fill="#297a8e"/><rect class="cbfill" style="" x="677" y="1" width="30" height="341" fill="#277f8e"/><rect class="cbfill" style="" x="677" y="1" width="30" height="330" fill="#26848e"/><rect class="cbfill" style="" x="677" y="1" width="30" height="318" fill="#24898d"/><rect class="cbfill" style="" x="677" y="1" width="30" height="307" fill="#238e8c"/><rect class="cbfill" style="" x="677" y="1" width="30" height="295" fill="#22928b"/><rect class="cbfill" style="" x="677" y="1" width="30" height="283" fill="#21978a"/><rect class="cbfill" style="" x="677" y="1" width="30" height="272" fill="#1f9c89"/><rect class="cbfill" style="" x="677" y="1" width="30" height="260" fill="#22a187"/><rect class="cbfill" style="" x="677" y="1" width="30" height="249" fill="#25a584"/><rect class="cbfill" style="" x="677" y="1" width="30" height="237" fill="#29aa81"/><rect class="cbfill" style="" x="677" y="1" width="30" height="225" fill="#2dae7f"/><rect class="cbfill" style="" x="677" y="1" width="30" height="214" fill="#31b37c"/><rect class="cbfill" style="" x="677" y="1" width="30" height="202" fill="#35b779"/><rect class="cbfill" style="" x="677" y="1" width="30" height="191" fill="#3fbb73"/><rect class="cbfill" style="" x="677" y="1" width="30" height="179" fill="#49bf6d"/><rect class="cbfill" style="" x="677" y="1" width="30" height="167" fill="#53c368"/><rect class="cbfill" style="" x="677" y="1" width="30" height="156" fill="#5dc762"/><rect class="cbfill" style="" x="677" y="1" width="30" height="144" fill="#67cb5c"/><rect class="cbfill" style="" x="677" y="1" width="30" height="133" fill="#72cf55"/><rect class="cbfill" style="" x="677" y="1" width="30" height="121" fill="#7fd24d"/><rect class="cbfill" style="" x="677" y="1" width="30" height="109" fill="#8bd545"/><rect class="cbfill" style="" x="677" y="1" width="30" height="98" fill="#98d73e"/><rect class="cbfill" style="" x="677" y="1" width="30" height="86" fill="#a4da36"/><rect class="cbfill" style="" x="677" y="1" width="30" height="74" fill="#b1dd2e"/><rect class="cbfill" style="" x="677" y="1" width="30" height="63" fill="#bddf2a"/><rect class="cbfill" style="" x="677" y="1" width="30" height="51" fill="#cae129"/><rect class="cbfill" style="" x="677" y="1" width="30" height="40" fill="#d7e228"/><rect class="cbfill" style="" x="677" y="1" width="30" height="28" fill="#e4e427"/><rect class="cbfill" style="" x="677" y="1" width="30" height="16" fill="#f0e526"/><rect class="cbfill" style="" x="677" y="0" width="30" height="6" fill="#fde725"/></g><g class="cblines" transform="translate(0,33)"><path class="cbline" d="M677,586.25h30" style="fill: none; stroke: rgb(0, 0, 0); stroke-opacity: 1; stroke-width: 0.5px;"/><path class="cbline" d="M677,575.25h30" style="fill: none; stroke: rgb(0, 0, 0); stroke-opacity: 1; stroke-width: 0.5px;"/><path class="cbline" d="M677,563.25h30" style="fill: none; stroke: rgb(0, 0, 0); stroke-opacity: 1; stroke-width: 0.5px;"/><path class="cbline" d="M677,551.25h30" style="fill: none; stroke: rgb(0, 0, 0); stroke-opacity: 1; stroke-width: 0.5px;"/><path class="cbline" d="M677,540.25h30" style="fill: none; stroke: rgb(0, 0, 0); stroke-opacity: 1; stroke-width: 0.5px;"/><path class="cbline" d="M677,528.25h30" style="fill: none; stroke: rgb(0, 0, 0); stroke-opacity: 1; stroke-width: 0.5px;"/><path class="cbline" d="M677,517.25h30" style="fill: none; stroke: rgb(0, 0, 0); stroke-opacity: 1; stroke-width: 0.5px;"/><path class="cbline" d="M677,505.25h30" style="fill: none; stroke: rgb(0, 0, 0); stroke-opacity: 1; stroke-width: 0.5px;"/><path class="cbline" d="M677,493.25h30" style="fill: none; stroke: rgb(0, 0, 0); stroke-opacity: 1; stroke-width: 0.5px;"/><path class="cbline" d="M677,482.25h30" style="fill: none; stroke: rgb(0, 0, 0); stroke-opacity: 1; stroke-width: 0.5px;"/><path class="cbline" d="M677,470.25h30" style="fill: none; stroke: rgb(0, 0, 0); stroke-opacity: 1; stroke-width: 0.5px;"/><path class="cbline" d="M677,459.25h30" style="fill: none; stroke: rgb(0, 0, 0); stroke-opacity: 1; stroke-width: 0.5px;"/><path class="cbline" d="M677,447.25h30" style="fill: none; stroke: rgb(0, 0, 0); stroke-opacity: 1; stroke-width: 0.5px;"/><path class="cbline" d="M677,435.25h30" style="fill: none; stroke: rgb(0, 0, 0); stroke-opacity: 1; stroke-width: 0.5px;"/><path class="cbline" d="M677,424.25h30" style="fill: none; stroke: rgb(0, 0, 0); stroke-opacity: 1; stroke-width: 0.5px;"/><path class="cbline" d="M677,412.25h30" style="fill: none; stroke: rgb(0, 0, 0); stroke-opacity: 1; stroke-width: 0.5px;"/><path class="cbline" d="M677,401.25h30" style="fill: none; stroke: rgb(0, 0, 0); stroke-opacity: 1; stroke-width: 0.5px;"/><path class="cbline" d="M677,389.25h30" style="fill: none; stroke: rgb(0, 0, 0); stroke-opacity: 1; stroke-width: 0.5px;"/><path class="cbline" d="M677,377.25h30" style="fill: none; stroke: rgb(0, 0, 0); stroke-opacity: 1; stroke-width: 0.5px;"/><path class="cbline" d="M677,366.25h30" style="fill: none; stroke: rgb(0, 0, 0); stroke-opacity: 1; stroke-width: 0.5px;"/><path class="cbline" d="M677,354.25h30" style="fill: none; stroke: rgb(0, 0, 0); stroke-opacity: 1; stroke-width: 0.5px;"/><path class="cbline" d="M677,342.25h30" style="fill: none; stroke: rgb(0, 0, 0); stroke-opacity: 1; stroke-width: 0.5px;"/><path class="cbline" d="M677,331.25h30" style="fill: none; stroke: rgb(0, 0, 0); stroke-opacity: 1; stroke-width: 0.5px;"/><path class="cbline" d="M677,319.25h30" style="fill: none; stroke: rgb(0, 0, 0); stroke-opacity: 1; stroke-width: 0.5px;"/><path class="cbline" d="M677,308.25h30" style="fill: none; stroke: rgb(0, 0, 0); stroke-opacity: 1; stroke-width: 0.5px;"/><path class="cbline" d="M677,296.25h30" style="fill: none; stroke: rgb(0, 0, 0); stroke-opacity: 1; stroke-width: 0.5px;"/><path class="cbline" d="M677,284.25h30" style="fill: none; stroke: rgb(0, 0, 0); stroke-opacity: 1; stroke-width: 0.5px;"/><path class="cbline" d="M677,273.25h30" style="fill: none; stroke: rgb(0, 0, 0); stroke-opacity: 1; stroke-width: 0.5px;"/><path class="cbline" d="M677,261.25h30" style="fill: none; stroke: rgb(0, 0, 0); stroke-opacity: 1; stroke-width: 0.5px;"/><path class="cbline" d="M677,250.25h30" style="fill: none; stroke: rgb(0, 0, 0); stroke-opacity: 1; stroke-width: 0.5px;"/><path class="cbline" d="M677,238.25h30" style="fill: none; stroke: rgb(0, 0, 0); stroke-opacity: 1; stroke-width: 0.5px;"/><path class="cbline" d="M677,226.25h30" style="fill: none; stroke: rgb(0, 0, 0); stroke-opacity: 1; stroke-width: 0.5px;"/><path class="cbline" d="M677,215.25h30" style="fill: none; stroke: rgb(0, 0, 0); stroke-opacity: 1; stroke-width: 0.5px;"/><path class="cbline" d="M677,203.25h30" style="fill: none; stroke: rgb(0, 0, 0); stroke-opacity: 1; stroke-width: 0.5px;"/><path class="cbline" d="M677,192.25h30" style="fill: none; stroke: rgb(0, 0, 0); stroke-opacity: 1; stroke-width: 0.5px;"/><path class="cbline" d="M677,180.25h30" style="fill: none; stroke: rgb(0, 0, 0); stroke-opacity: 1; stroke-width: 0.5px;"/><path class="cbline" d="M677,168.25h30" style="fill: none; stroke: rgb(0, 0, 0); stroke-opacity: 1; stroke-width: 0.5px;"/><path class="cbline" d="M677,157.25h30" style="fill: none; stroke: rgb(0, 0, 0); stroke-opacity: 1; stroke-width: 0.5px;"/><path class="cbline" d="M677,145.25h30" style="fill: none; stroke: rgb(0, 0, 0); stroke-opacity: 1; stroke-width: 0.5px;"/><path class="cbline" d="M677,134.25h30" style="fill: none; stroke: rgb(0, 0, 0); stroke-opacity: 1; stroke-width: 0.5px;"/><path class="cbline" d="M677,122.25h30" style="fill: none; stroke: rgb(0, 0, 0); stroke-opacity: 1; stroke-width: 0.5px;"/><path class="cbline" d="M677,110.25h30" style="fill: none; stroke: rgb(0, 0, 0); stroke-opacity: 1; stroke-width: 0.5px;"/><path class="cbline" d="M677,99.25h30" style="fill: none; stroke: rgb(0, 0, 0); stroke-opacity: 1; stroke-width: 0.5px;"/><path class="cbline" d="M677,87.25h30" style="fill: none; stroke: rgb(0, 0, 0); stroke-opacity: 1; stroke-width: 0.5px;"/><path class="cbline" d="M677,75.25h30" style="fill: none; stroke: rgb(0, 0, 0); stroke-opacity: 1; stroke-width: 0.5px;"/><path class="cbline" d="M677,64.25h30" style="fill: none; stroke: rgb(0, 0, 0); stroke-opacity: 1; stroke-width: 0.5px;"/><path class="cbline" d="M677,52.25h30" style="fill: none; stroke: rgb(0, 0, 0); stroke-opacity: 1; stroke-width: 0.5px;"/><path class="cbline" d="M677,41.25h30" style="fill: none; stroke: rgb(0, 0, 0); stroke-opacity: 1; stroke-width: 0.5px;"/><path class="cbline" d="M677,29.25h30" style="fill: none; stroke: rgb(0, 0, 0); stroke-opacity: 1; stroke-width: 0.5px;"/><path class="cbline" d="M677,17.25h30" style="fill: none; stroke: rgb(0, 0, 0); stroke-opacity: 1; stroke-width: 0.5px;"/><path class="cbline" d="M677,6.25h30" style="fill: none; stroke: rgb(0, 0, 0); stroke-opacity: 1; stroke-width: 0.5px;"/></g><g class="cbaxis crisp" transform="translate(0,-17)"><path class="ycb5497abtick ticks crisp" d="M707,0h5" transform="translate(0,636.193125)" style="stroke: rgb(36, 36, 36); stroke-opacity: 1; stroke-width: 1px;"/><path class="ycb5497abtick ticks crisp" d="M707,0h5" transform="translate(0,578.153125)" style="stroke: rgb(36, 36, 36); stroke-opacity: 1; stroke-width: 1px;"/><path class="ycb5497abtick ticks crisp" d="M707,0h5" transform="translate(0,520.103125)" style="stroke: rgb(36, 36, 36); stroke-opacity: 1; stroke-width: 1px;"/><path class="ycb5497abtick ticks crisp" d="M707,0h5" transform="translate(0,462.06312499999996)" style="stroke: rgb(36, 36, 36); stroke-opacity: 1; stroke-width: 1px;"/><path class="ycb5497abtick ticks crisp" d="M707,0h5" transform="translate(0,404.02312499999994)" style="stroke: rgb(36, 36, 36); stroke-opacity: 1; stroke-width: 1px;"/><path class="ycb5497abtick ticks crisp" d="M707,0h5" transform="translate(0,345.9731249999999)" style="stroke: rgb(36, 36, 36); stroke-opacity: 1; stroke-width: 1px;"/><path class="ycb5497abtick ticks crisp" d="M707,0h5" transform="translate(0,287.93312499999996)" style="stroke: rgb(36, 36, 36); stroke-opacity: 1; stroke-width: 1px;"/><path class="ycb5497abtick ticks crisp" d="M707,0h5" transform="translate(0,229.89312499999994)" style="stroke: rgb(36, 36, 36); stroke-opacity: 1; stroke-width: 1px;"/><path class="ycb5497abtick ticks crisp" d="M707,0h5" transform="translate(0,171.84312499999996)" style="stroke: rgb(36, 36, 36); stroke-opacity: 1; stroke-width: 1px;"/><path class="ycb5497abtick ticks crisp" d="M707,0h5" transform="translate(0,113.80312499999995)" style="stroke: rgb(36, 36, 36); stroke-opacity: 1; stroke-width: 1px;"/><path class="ycb5497abtick ticks crisp" d="M707,0h5" transform="translate(0,55.75312499999995)" style="stroke: rgb(36, 36, 36); stroke-opacity: 1; stroke-width: 1px;"/><g class="ycb5497abtick"><text text-anchor="start" x="714.4" y="4.199999999999999" transform="translate(0,636.193125)" style="font-family: arial; font-size: 12px; fill: rgb(0, 0, 0); fill-opacity: 1; white-space: pre; opacity: 1;">0</text></g><g class="ycb5497abtick"><text text-anchor="start" x="714.4" y="4.199999999999999" style="font-family: arial; font-size: 12px; fill: rgb(0, 0, 0); fill-opacity: 1; white-space: pre; opacity: 1;" transform="translate(0,578.153125)">0.1</text></g><g class="ycb5497abtick"><text text-anchor="start" x="714.4" y="4.199999999999999" style="font-family: arial; font-size: 12px; fill: rgb(0, 0, 0); fill-opacity: 1; white-space: pre; opacity: 1;" transform="translate(0,520.103125)">0.2</text></g><g class="ycb5497abtick"><text text-anchor="start" x="714.4" y="4.199999999999999" style="font-family: arial; font-size: 12px; fill: rgb(0, 0, 0); fill-opacity: 1; white-space: pre; opacity: 1;" transform="translate(0,462.06312499999996)">0.3</text></g><g class="ycb5497abtick"><text text-anchor="start" x="714.4" y="4.199999999999999" style="font-family: arial; font-size: 12px; fill: rgb(0, 0, 0); fill-opacity: 1; white-space: pre; opacity: 1;" transform="translate(0,404.02312499999994)">0.4</text></g><g class="ycb5497abtick"><text text-anchor="start" x="714.4" y="4.199999999999999" style="font-family: arial; font-size: 12px; fill: rgb(0, 0, 0); fill-opacity: 1; white-space: pre; opacity: 1;" transform="translate(0,345.9731249999999)">0.5</text></g><g class="ycb5497abtick"><text text-anchor="start" x="714.4" y="4.199999999999999" style="font-family: arial; font-size: 12px; fill: rgb(0, 0, 0); fill-opacity: 1; white-space: pre; opacity: 1;" transform="translate(0,287.93312499999996)">0.6</text></g><g class="ycb5497abtick"><text text-anchor="start" x="714.4" y="4.199999999999999" style="font-family: arial; font-size: 12px; fill: rgb(0, 0, 0); fill-opacity: 1; white-space: pre; opacity: 1;" transform="translate(0,229.89312499999994)">0.7</text></g><g class="ycb5497abtick"><text text-anchor="start" x="714.4" y="4.199999999999999" style="font-family: arial; font-size: 12px; fill: rgb(0, 0, 0); fill-opacity: 1; white-space: pre; opacity: 1;" transform="translate(0,171.84312499999996)">0.8</text></g><g class="ycb5497abtick"><text text-anchor="start" x="714.4" y="4.199999999999999" style="font-family: arial; font-size: 12px; fill: rgb(0, 0, 0); fill-opacity: 1; white-space: pre; opacity: 1;" transform="translate(0,113.80312499999995)">0.9</text></g><g class="ycb5497abtick"><text text-anchor="start" x="714.4" y="4.199999999999999" style="font-family: arial; font-size: 12px; fill: rgb(0, 0, 0); fill-opacity: 1; white-space: pre; opacity: 1;" transform="translate(0,55.75312499999995)">1</text></g></g><g class="cbtitleunshift" transform="translate(-47,-17)"><g class="cbtitle" transform="translate(-0.5,-0.5)"><text class="ycb5497abtitle" x="724.08" y="40.5" text-anchor="start" style="font-family: arial; font-size: 14px; fill: rgb(0, 0, 0); opacity: 1; font-weight: normal; white-space: pre;">K<tspan style="font-size:70%" dy="0.3em">0,oc</tspan><tspan dy="-0.21em"></tspan></text></g></g><rect class="cboutline" x="677" y="32.953125" width="30" height="592.046875" style="stroke: rgb(68, 68, 68); stroke-opacity: 1; fill: none; stroke-width: 1;"/></g><g class="g-gtitle"/><g class="g-xtitle"><text class="xtitle" x="374" y="689.70625" text-anchor="middle" style="font-family: arial; font-size: 14px; fill: rgb(0, 0, 0); opacity: 1; font-weight: normal; white-space: pre;">OCR, unitless</text></g><g class="g-ytitle" transform="translate(2.0498046875,0)"><text class="ytitle" transform="rotate(-90,10.950000000000003,334.5)" x="10.950000000000003" y="334.5" text-anchor="middle" style="font-family: arial; font-size: 14px; fill: rgb(0, 0, 0); opacity: 1; font-weight: normal; white-space: pre;">Effective Friction Angle, deg</text></g></g></svg>